<svg xmlns="http://www.w3.org/2000/svg" width="738" height="657" fill="none" viewBox="0 0 738 657"><g clip-path="url(#clip0_4649_74446)"><path fill="url(#paint0_diamond_4649_74446)" d="M399.1 580.907c95.889 0 173.623-45.809 173.623-102.317 0-56.508-77.734-102.317-173.623-102.317-95.89 0-173.623 45.809-173.623 102.317 0 56.508 77.733 102.317 173.623 102.317Z" opacity=".5"/><g opacity=".1"><path fill="#5B75B7" d="m616.846 366.432-30.026-17.68v35.36l30.026 17.709 30.025-17.709v-35.36l-30.025 17.68Z" opacity=".1"/><path fill="#5B75B7" d="m616.846 401.821-30.026-17.709v-35.36l30.026 17.68v35.389Z" opacity=".1"/><path fill="#104DBF" d="m646.871 384.11-30.025 17.709V366.43l30.025-17.68v35.36Z" opacity=".1"/><path fill="#5B75B7" d="m616.846 366.431-30.026-17.68 30.026-17.708 30.025 17.708-30.025 17.68Z" opacity=".1"/><path fill="#fff" d="m616.846 366.432-30.026-17.68v1.534l30.026 17.68 30.025-17.68v-1.534l-30.025 17.68Z" opacity=".1"/></g><path fill="#03002D" d="m616.846 344.986-30.026-17.68 30.026-17.708 30.025 17.708-30.025 17.68Z" opacity=".2"/><path fill="#5B75B7" d="m616.846 282.797-30.026-17.68v35.389l30.026 17.68 30.025-17.68v-35.389l-30.025 17.68Z"/><path fill="#5B75B7" d="m616.846 318.186-30.026-17.68v-35.389l30.026 17.68v35.389Z"/><path fill="#104DBF" d="m646.871 300.506-30.025 17.68v-35.389l30.025-17.68v35.389Z"/><path fill="#5B75B7" d="m616.846 282.798-30.026-17.68 30.026-17.68 30.025 17.68-30.025 17.68Z"/><path fill="#fff" d="m616.846 282.797-30.026-17.68v1.534l30.026 17.68 30.025-17.68v-1.534l-30.025 17.68Z"/><g opacity=".1"><path fill="#5B75B7" d="m143.297 390.663-29.998-17.681v35.389l29.998 17.68 30.025-17.68v-35.389l-30.025 17.681Z" opacity=".1"/><path fill="#5B75B7" d="m143.297 426.051-29.998-17.68v-35.389l29.998 17.681v35.388Z" opacity=".1"/><path fill="#C2CCDD" d="m173.322 408.371-30.025 17.68v-35.388l30.025-17.681v35.389Z" opacity=".1"/><path fill="#5B75B7" d="m143.297 390.663-29.998-17.68 29.998-17.68 30.025 17.68-30.025 17.68Z" opacity=".1"/><path fill="#fff" d="m143.297 390.663-29.998-17.681v1.534l29.998 17.68 30.025-17.68v-1.534l-30.025 17.681Z" opacity=".1"/></g><path fill="#03002D" d="m143.297 369.218-29.998-17.68 29.998-17.681 30.025 17.681-30.025 17.68Z" opacity=".2"/><path fill="#5B75B7" d="m143.297 307.058-29.998-17.708v35.388l29.998 17.68 30.025-17.68V289.35l-30.025 17.708Z"/><path fill="#5B75B7" d="m143.297 342.418-29.998-17.68V289.35l29.998 17.708v35.36Z"/><path fill="#C2CCDD" d="m173.322 324.738-30.025 17.68v-35.36l30.025-17.708v35.388Z"/><path fill="#5B75B7" d="m143.297 307.058-29.998-17.708 29.998-17.68 30.025 17.68-30.025 17.708Z"/><path fill="#fff" d="m143.297 307.058-29.998-17.708v1.533l29.998 17.708 30.025-17.708v-1.533l-30.025 17.708Z"/><g opacity=".1"><path fill="#5B75B7" d="m272.986 601.544-30.025-17.681v35.389l30.025 17.68 30.026-17.68v-35.389l-30.026 17.681Z" opacity=".1"/><path fill="#5B75B7" d="m272.986 636.932-30.025-17.68v-35.389l30.025 17.681v35.388Z" opacity=".1"/><path fill="#C2CCDD" d="m303.012 619.252-30.026 17.68v-35.388l30.026-17.681v35.389Z" opacity=".1"/><path fill="#5B75B7" d="m272.986 601.544-30.025-17.68 30.025-17.68 30.026 17.68-30.026 17.68Z" opacity=".1"/><path fill="#fff" d="m272.986 601.544-30.025-17.681v1.534l30.025 17.68 30.026-17.68v-1.534l-30.026 17.681Z" opacity=".1"/></g><path fill="#fff" d="m272.986 580.101-30.025-17.681 30.025-17.68 30.026 17.68-30.026 17.681Z" opacity=".2"/><path fill="#5B75B7" d="m272.986 517.939-30.025-17.709v35.389l30.025 17.68 30.026-17.68V500.23l-30.026 17.709Z"/><path fill="#5B75B7" d="m272.986 553.299-30.025-17.68V500.23l30.025 17.709v35.36Z"/><path fill="#C2CCDD" d="m303.012 535.619-30.026 17.68v-35.36l30.026-17.709v35.389Z"/><path fill="#5B75B7" d="m272.986 517.939-30.025-17.708 30.025-17.68 30.026 17.68-30.026 17.708Z"/><path fill="#fff" d="m272.986 517.939-30.025-17.709v1.534l30.025 17.708 30.026-17.708v-1.534l-30.026 17.709Z"/><path fill="#fff" d="M418.742 134.607 217.143 253.432v-54.435L418.742 80.172v54.435Z" opacity=".2"/><path fill="#fff" d="m231.05 220.721-3.661 2.147v-22.56l3.661-2.175v22.588Z" opacity=".3"/><g fill="#fff" opacity=".3"><path d="m231.05 224.124-3.661 2.147v-1.45l3.661-2.147v1.45ZM231.05 227.165l-3.661 2.147v-1.45l3.661-2.147v1.45ZM231.05 230.203l-3.661 2.148v-1.422l3.661-2.148v1.422ZM231.05 233.272l-3.661 2.148v-1.45l3.661-2.148v1.45ZM231.05 236.311l-3.661 2.148v-1.45l3.661-2.148v1.45ZM231.05 239.35l-3.661 2.147v-1.422l3.661-2.147v1.422Z"/></g><g fill="#fff" opacity=".3"><path d="m238.343 219.801-3.661 2.175v-1.45l3.661-2.147v1.422ZM238.343 222.868l-3.661 2.147v-1.45l3.661-2.147v1.45ZM238.343 225.909l-3.661 2.147v-1.422l3.661-2.148v1.423ZM238.343 228.948l-3.661 2.147v-1.422l3.661-2.148v1.423ZM238.343 232.017l-3.661 2.147v-1.45l3.661-2.148v1.451ZM238.343 235.056l-3.661 2.147v-1.422l3.661-2.176v1.451Z"/></g><g fill="#fff" opacity=".3"><path d="m252.932 223.399-3.661 2.147v-1.422l3.661-2.147v1.422ZM252.932 226.466l-3.661 2.147v-1.45l3.661-2.147v1.45ZM245.638 230.761l-3.661 2.147v-1.45l3.661-2.147v1.45Z"/></g><g fill="#fff" opacity=".3"><path d="m260.227 216.065-3.661 2.148v-1.45l3.661-2.148v1.45ZM260.227 219.106l-3.661 2.147v-1.422l3.661-2.147v1.422ZM260.227 222.173l-3.661 2.147v-1.45l3.661-2.147v1.45Z"/></g><g fill="#fff" opacity=".3"><path d="m267.522 202.622-3.661 2.147v-1.45l3.661-2.147v1.45ZM267.522 205.661l-3.661 2.147v-1.422l3.661-2.148v1.423ZM267.522 208.702l-3.661 2.175v-1.45l3.661-2.148v1.423ZM267.522 211.77l-3.661 2.148v-1.45l3.661-2.148v1.45ZM267.522 214.809l-3.661 2.148v-1.422l3.661-2.176v1.45ZM267.522 217.848l-3.661 2.147v-1.422l3.661-2.147v1.422Z"/></g><g fill="#fff" opacity=".3"><path d="m274.817 198.329-3.661 2.147v-1.45l3.661-2.147v1.45ZM274.817 201.368l-3.661 2.147v-1.45l3.661-2.147v1.45ZM274.817 204.409l-3.661 2.147v-1.422l3.661-2.148v1.423ZM274.817 207.477l-3.661 2.148v-1.45l3.661-2.148v1.45ZM274.817 210.517l-3.661 2.147v-1.45l3.661-2.148v1.451ZM274.817 213.555l-3.661 2.147v-1.422l3.661-2.147v1.422Z"/></g><g fill="#fff" opacity=".3"><path d="m282.11 200.114-3.661 2.147v-1.422l3.661-2.148v1.423ZM282.11 203.153l-3.661 2.147v-1.422l3.661-2.148v1.423ZM282.11 206.222l-3.661 2.147v-1.45l3.661-2.148v1.451ZM282.11 209.261l-3.661 2.147v-1.422l3.661-2.175v1.45ZM289.405 204.966l-3.661 2.147v-1.45l3.661-2.147v1.45Z"/></g><g fill="#fff" opacity=".3"><path d="m296.7 185.416-3.661 2.148v-1.423l3.661-2.147v1.422ZM296.7 188.457l-3.661 2.176v-1.451l3.661-2.147v1.422ZM296.7 191.524l-3.661 2.148v-1.451l3.661-2.147v1.45ZM296.7 194.565l-3.661 2.147v-1.422l3.661-2.147v1.422ZM296.7 197.604l-3.661 2.147v-1.422l3.661-2.147v1.422ZM296.7 200.671l-3.661 2.147v-1.45l3.661-2.147v1.45Z"/></g><g fill="#fff" opacity=".3"><path d="m303.995 190.268-3.661 2.148v-1.45l3.661-2.148v1.45ZM303.995 193.309l-3.661 2.147v-1.422l3.661-2.147v1.422ZM303.995 196.376l-3.661 2.147v-1.45l3.661-2.147v1.45Z"/></g><g fill="#fff" opacity=".3"><path d="m311.29 185.974-3.661 2.147v-1.45l3.661-2.148v1.451ZM311.29 189.013l-3.661 2.147v-1.422l3.661-2.176v1.451ZM311.29 192.053l-3.661 2.147v-1.422l3.661-2.147v1.422Z"/></g><path fill="#fff" d="m238.343 219.467-3.661 2.147v-20.051l3.661-2.147v20.051ZM245.638 227.72l-3.661 2.148v-25.963l3.661-2.147v25.962ZM252.932 220.358l-3.661 2.147v-15.756l3.661-2.147v15.756ZM260.227 213.025l-3.661 2.147v-19.521l3.661-2.147v19.521ZM267.522 199.445l-3.661 2.147v-16.425l3.661-2.147v16.425ZM274.817 195.149l-3.661 2.147v-23.508l3.661-2.147v23.508ZM282.11 197.072l-3.661 2.148v-24.875l3.661-2.148v24.875ZM289.405 201.926l-3.661 2.148v-31.819l3.661-2.148v31.819ZM296.7 196.489l-3.661 2.148v-23.621l3.661-2.147v23.62ZM303.995 186.895l-3.661 2.147v-22.699l3.661-2.148v22.7ZM311.29 182.6l-3.661 2.148v-31.735l3.661-2.148V182.6Z" opacity=".3"/><g fill="#fff" opacity=".3"><path d="M400.656 109.204 370.33 127.08v-8.506l30.326-17.847v8.477ZM411.584 115.869l-41.254 24.289v-8.477l41.254-24.318v8.506ZM389.4 142.027l-19.07 11.238v-8.477l19.07-11.267v8.506Z" opacity=".4"/></g><g fill="#fff" opacity=".3"><path d="m336.287 164.834 30.326-17.875v8.505l-30.326 17.848v-8.478ZM325.359 158.17l41.255-24.289v8.477l-41.255 24.318v-8.506ZM347.543 132.012l19.07-11.239v8.506l-19.07 11.238v-8.505ZM340.414 136.223l3.388-2.008v8.505l-3.388 1.98v-8.477ZM333.965 140.015l3.36-1.98v8.478l-3.36 2.008v-8.506ZM327.49 143.836l3.388-2.008v8.506l-3.388 1.98v-8.478ZM321.043 147.628l3.388-1.98v8.478l-3.388 2.008v-8.506Z"/></g><path fill="#fff" d="M385.493 114.976 370.33 123.9v-2.371l15.163-8.924v2.371ZM390.957 124.93l-20.627 12.159v-2.342l20.627-12.159v2.342Z" opacity=".3"/><path fill="#1049B3" d="m379.455 144.925-9.125 5.382v-2.343l9.125-5.382v2.343Z" opacity=".3"/><path fill="#5B75B7" d="M498.901 230.034a5.364 5.364 0 0 0 .219-7.474 5.106 5.106 0 0 0-7.322-.223 5.365 5.365 0 0 0-.219 7.474c1.968 2.119 5.246 2.231 7.322.223Z" opacity=".4"/><path fill="#5B75B7" d="M558.763 225.46a5.365 5.365 0 0 0 .218-7.474 5.106 5.106 0 0 0-7.322-.223 5.365 5.365 0 0 0-.218 7.474c1.967 2.119 5.245 2.231 7.322.223Z"/><path fill="#5B75B7" d="M544.008 143.584c2.24-2.147 2.35-5.745.246-8.031a5.487 5.487 0 0 0-7.868-.251c-2.241 2.147-2.35 5.744-.246 8.031a5.488 5.488 0 0 0 7.868.251ZM537.752 159.759c1.339-1.282 1.393-3.43.136-4.796a3.276 3.276 0 0 0-4.699-.139c-1.338 1.282-1.393 3.43-.136 4.796 1.257 1.339 3.36 1.422 4.699.139Z" opacity=".4"/><path fill="#5B75B7" d="M530.868 151.364c.874-.836.901-2.203.109-3.095-.82-.892-2.158-.92-3.033-.112-.874.837-.901 2.203-.109 3.096.82.892 2.186.948 3.033.111ZM545.129 199.749c.875-.836.902-2.203.11-3.095-.82-.893-2.159-.921-3.033-.112-.874.837-.902 2.203-.109 3.096.819.892 2.185.92 3.032.111Z" opacity=".8"/><path fill="#5B75B7" d="M514.967 137.255c.274-.251.274-.67.028-.948-.246-.279-.656-.279-.929-.028s-.273.669-.027.948a.642.642 0 0 0 .928.028Z" opacity=".4"/><path fill="#5B75B7" d="M518.874 164.669c.273-.251.273-.67.027-.948-.246-.279-.656-.279-.929-.028s-.273.669-.027.948c.246.279.656.279.929.028ZM527.233 216.899c.273-.251.273-.669.027-.948-.245-.279-.655-.279-.929-.028-.273.251-.273.669-.027.948.273.251.683.279.929.028ZM521.305 208.561c.274-.251.274-.669.028-.948-.246-.279-.656-.279-.929-.028s-.273.67-.028.948c.274.279.683.279.929.028Z" opacity=".8"/><path fill="#5B75B7" d="M499.202 168.405c3.17-3.04 3.334-8.143.356-11.406a7.814 7.814 0 0 0-11.175-.362c-3.169 3.039-3.333 8.143-.355 11.406a7.814 7.814 0 0 0 11.174.362Z" opacity=".4"/><path fill="#5B75B7" d="M456.665 184.077c1.584-1.506 1.666-4.044.164-5.661a3.846 3.846 0 0 0-5.546-.168c-1.585 1.506-1.667 4.044-.164 5.661a3.846 3.846 0 0 0 5.546.168Z"/><path fill="#5B75B7" d="M527.725 183.993c1.585-1.506 1.667-4.044.164-5.661a3.846 3.846 0 0 0-5.546-.168c-1.585 1.506-1.666 4.044-.164 5.661 1.475 1.618 3.962 1.674 5.546.168ZM499.174 117.819c1.585-1.506 1.667-4.044.164-5.661a3.845 3.845 0 0 0-5.546-.167c-1.584 1.505-1.666 4.043-.164 5.661 1.476 1.589 3.989 1.673 5.546.167ZM449.534 146.626c1.584-1.506 1.666-4.044.164-5.662a3.846 3.846 0 0 0-5.546-.167c-1.585 1.506-1.667 4.044-.164 5.661 1.475 1.618 3.961 1.673 5.546.168ZM584.417 159.118c1.584-1.506 1.666-4.044.164-5.661a3.847 3.847 0 0 0-5.547-.168c-1.584 1.506-1.666 4.044-.163 5.661a3.846 3.846 0 0 0 5.546.168ZM556.003 88.899c1.584-1.506 1.666-4.044.164-5.661a3.847 3.847 0 0 0-5.547-.167 4.041 4.041 0 0 0-.163 5.66 3.846 3.846 0 0 0 5.546.168Z" opacity=".4"/><path fill="#5B75B7" d="M607.747 96.428c.765-.725.792-1.952.082-2.733a1.87 1.87 0 0 0-2.677-.083c-.765.725-.793 1.952-.082 2.733a1.87 1.87 0 0 0 2.677.083Z"/><path fill="#5B75B7" d="M510.65 216.507c.928-.892.983-2.37.109-3.318a2.261 2.261 0 0 0-3.251-.112 2.376 2.376 0 0 0-.11 3.319c.875.948 2.323 1.004 3.252.111Z" opacity=".4"/><path fill="#5B75B7" d="M506.196 149.916a2.376 2.376 0 0 0 .11-3.319c-.875-.948-2.323-1.004-3.252-.112a2.377 2.377 0 0 0-.109 3.319 2.26 2.26 0 0 0 3.251.112ZM476.69 149.023c.628-.614.656-1.618.082-2.231-.601-.641-1.585-.669-2.186-.084-.628.614-.655 1.618-.082 2.231.574.642 1.558.67 2.186.084ZM472.264 148.911c.901-.864.956-2.314.109-3.263-.847-.92-2.295-.976-3.196-.111-.902.864-.957 2.314-.11 3.263.875.92 2.295.976 3.197.111ZM471.473 154.377c.492-.474.519-1.283.055-1.813a1.261 1.261 0 0 0-1.776-.055c-.492.474-.519 1.283-.055 1.812.492.53 1.284.558 1.776.056Z"/><path fill="#5B75B7" d="M493.166 192.304c.655-.614.683-1.673.081-2.343-.601-.669-1.639-.697-2.294-.083-.656.613-.683 1.673-.082 2.342.601.669 1.639.697 2.295.084ZM540.457 199.052c.655-.614.683-1.673.082-2.343-.601-.669-1.64-.697-2.295-.083-.656.613-.683 1.673-.082 2.342.601.697 1.639.725 2.295.084Z" opacity=".4"/><path fill="#5B75B7" d="M503.218 194.869c1.612-1.533 1.694-4.127.191-5.772a3.95 3.95 0 0 0-5.655-.195c-1.612 1.533-1.694 4.127-.191 5.772 1.53 1.645 4.043 1.729 5.655.195Z"/><path fill="url(#paint1_radial_4649_74446)" d="M283.314 368.242c-3.661 12.41-23.304 36.504-35.462 32.767-12.158-3.737-12.212-33.882-8.551-46.292 3.661-12.41 16.474-19.437 28.632-15.7 12.157 3.737 19.042 16.815 15.381 29.225Z"/><path fill="url(#paint2_linear_4649_74446)" d="M283.314 368.242c-3.661 12.41-23.304 36.504-35.462 32.767-12.158-3.737-12.212-33.882-8.551-46.292 3.661-12.41 16.474-19.437 28.632-15.7 12.157 3.737 19.042 16.815 15.381 29.225Z"/><path fill="#251C72" d="M259.927 339.184c6.393-.586 14.534 3.29 18.223 8.644 3.688 5.355 1.502 10.151-4.891 10.737-6.393.585-14.534-3.291-18.223-8.645-3.688-5.354-1.475-10.179 4.891-10.736Z"/><path fill="url(#paint3_radial_4649_74446)" d="M259.927 339.184c6.393-.586 14.534 3.29 18.223 8.644 3.688 5.355 1.502 10.151-4.891 10.737-6.393.585-14.534-3.291-18.223-8.645-3.688-5.354-1.475-10.179 4.891-10.736Z" opacity=".5"/><path fill="#DCE2ED" d="M253.26 345.235c1.12-.976 2.759-1.617 4.863-1.813 6.393-.585 14.535 3.291 18.223 8.645 1.12 1.646 1.694 3.235 1.776 4.685 2.322-1.98 2.513-5.326.027-8.924-3.688-5.354-11.857-9.23-18.223-8.644-4.426.39-6.83 2.816-6.666 6.051Z"/><path fill="#5B75B7" d="M281.347 332.827c-1.011-.028-1.831.781-1.858 1.813a1.83 1.83 0 0 0 1.776 1.896c1.011.028 1.83-.781 1.858-1.813a1.847 1.847 0 0 0-1.776-1.896Z" opacity=".6"/><path fill="#5B75B7" d="M264.273 319.943c-2.514-.056-4.618 1.979-4.672 4.545-.055 2.566 1.939 4.713 4.453 4.769 2.514.055 4.617-1.98 4.672-4.546.054-2.565-1.94-4.685-4.453-4.768Z"/><path fill="#5B75B7" d="M290.446 309.458a2.584 2.584 0 0 0-2.623 2.537c-.028 1.45 1.093 2.649 2.486 2.677a2.585 2.585 0 0 0 2.623-2.537c.027-1.45-1.093-2.65-2.486-2.677Z" opacity=".6"/><path fill="#5B75B7" d="M280.2 311.52c-.956-.028-1.775.753-1.803 1.757-.027.976.738 1.813 1.721 1.841.957.028 1.776-.753 1.804-1.757 0-1.004-.765-1.813-1.722-1.841ZM282.141 307.505c-.656-.028-1.203.53-1.23 1.199-.027.669.519 1.227 1.175 1.255.656.028 1.202-.53 1.229-1.199 0-.669-.519-1.227-1.174-1.255Z"/><path fill="#5B75B7" d="M267.387 341.918c-1.393-.027-2.568 1.088-2.595 2.538-.028 1.422 1.065 2.622 2.486 2.649 1.393.028 2.568-1.087 2.595-2.537.027-1.423-1.093-2.622-2.486-2.65Z" opacity=".6"/><path fill="#5B75B7" d="M275.064 341.054c-2.103-.056-3.824 1.645-3.879 3.793-.055 2.147 1.612 3.904 3.716 3.96 2.103.055 3.824-1.646 3.879-3.793.055-2.147-1.612-3.904-3.716-3.96Z"/><path fill="url(#paint4_radial_4649_74446)" d="M315.854 325.519c19.117 0 34.615-15.819 34.615-35.333 0-19.514-15.498-35.332-34.615-35.332-19.118 0-34.616 15.818-34.616 35.332 0 19.514 15.498 35.333 34.616 35.333Z"/><path fill="url(#paint5_linear_4649_74446)" d="M334.459 260.405c16.119 10.485 20.873 32.321 10.6 48.774-10.272 16.453-31.664 21.305-47.783 10.82-16.12-10.486-20.873-32.321-10.601-48.774 10.273-16.453 31.665-21.306 47.784-10.82Z"/><path fill="url(#paint6_radial_4649_74446)" d="M488.439 354.327c0 68.573-39.997 124.152-89.339 124.152-49.341 0-89.338-55.579-89.338-124.152 0-68.574 39.997-89.098 89.338-89.098 49.342 0 89.339 20.552 89.339 89.098Z"/><path fill="url(#paint7_linear_4649_74446)" d="M488.439 354.327c0 68.573-39.997 124.152-89.339 124.152-49.341 0-89.338-55.579-89.338-124.152 0-68.574 39.997-89.098 89.338-89.098 49.342 0 89.339 20.552 89.339 89.098Z"/><path fill="#5674BF" d="M399.099 338.041c33.678 0 60.98-16.094 60.98-35.947 0-19.852-27.302-35.946-60.98-35.946s-60.98 16.094-60.98 35.946c0 19.853 27.302 35.947 60.98 35.947Z"/><path fill="#1049B3" d="M399.099 338.041c33.678 0 60.98-16.094 60.98-35.947 0-19.852-27.302-35.946-60.98-35.946s-60.98 16.094-60.98 35.946c0 19.853 27.302 35.947 60.98 35.947Z" opacity=".5"/><path fill="#DCE2ED" d="M355.96 286.253c23.823-14.027 62.427-14.027 86.224 0 9.835 5.801 15.6 13.079 17.321 20.637 2.432-10.709-3.333-21.947-17.321-30.202-23.824-14.027-62.428-14.027-86.224 0-13.989 8.227-19.726 19.465-17.294 30.202 1.721-7.558 7.458-14.836 17.294-20.637Z"/><path fill="#BCBEFF" d="M364.951 195.188c10.042-17.752 10.036-36.944-.012-42.866-10.048-5.922-26.335 3.669-36.376 21.421-10.042 17.753-10.036 36.944.012 42.866 10.049 5.922 26.335-3.669 36.376-21.421Z"/><path fill="url(#paint8_radial_4649_74446)" d="M402.624 309.317c50.321 0 91.115-41.638 91.115-93.002s-40.794-93.003-91.115-93.003-91.114 41.639-91.114 93.003 40.793 93.002 91.114 93.002Z"/><path fill="url(#paint9_linear_4649_74446)" d="M402.624 309.317c50.321 0 91.115-41.638 91.115-93.002s-40.794-93.003-91.115-93.003-91.114 41.639-91.114 93.003 40.793 93.002 91.114 93.002Z"/><path fill="#5674BF" d="M374.21 260.375c-2.322 18.294-15.846 24.038-30.217 12.828-14.343-11.211-24.096-35.11-21.774-53.403 2.322-18.294 15.846-24.039 30.217-12.828 14.343 11.21 24.096 35.109 21.774 53.403Z"/><path fill="url(#paint10_radial_4649_74446)" d="M374.21 260.375c-2.322 18.294-15.846 24.038-30.217 12.828-14.343-11.211-24.096-35.11-21.774-53.403 2.322-18.294 15.846-24.039 30.217-12.828 14.343 11.21 24.096 35.109 21.774 53.403Z" opacity=".5"/><path fill="#DCE2ED" d="M362.353 244.534c-.847 6.637-5.765 8.728-10.983 4.657-5.218-4.071-8.77-12.772-7.923-19.409.847-6.637 5.765-8.729 10.983-4.657 5.218 4.071 8.77 12.772 7.923 19.409Z"/><path fill="#DCE2ED" d="M350.878 270.553c-14.343-11.211-24.097-35.11-21.774-53.403.956-7.446 3.77-12.828 7.731-15.812-7.513.725-13.195 7.223-14.616 18.489-2.322 18.294 7.431 42.193 21.774 53.403 8.497 6.637 16.721 7.334 22.485 2.984-4.671.418-10.081-1.367-15.6-5.661Z"/><path fill="#DCE2ED" d="M345.223 272.617c-14.344-11.21-24.097-35.109-21.775-53.403 1.066-8.478 4.563-14.25 9.399-16.9-5.492 2.315-9.481 8.311-10.655 17.485-2.323 18.294 7.431 42.193 21.774 53.404 7.705 6.023 15.163 7.139 20.791 4.043-5.437 2.315-12.376.948-19.534-4.629Z"/><path fill="url(#paint11_radial_4649_74446)" d="M497.291 413.28c19.118 0 34.615-15.819 34.615-35.332 0-19.514-15.497-35.333-34.615-35.333-19.117 0-34.615 15.819-34.615 35.333 0 19.513 15.498 35.332 34.615 35.332Z"/><path fill="url(#paint12_linear_4649_74446)" d="M497.291 413.28c19.118 0 34.615-15.819 34.615-35.332 0-19.514-15.497-35.333-34.615-35.333-19.117 0-34.615 15.819-34.615 35.333 0 19.513 15.498 35.332 34.615 35.332Z"/><path fill="#5674BF" d="M530.566 378.616c0 9.955-6.858 22.058-15.3 27.05-8.442 4.991-15.299.948-15.299-9.008 0-9.955 6.857-22.058 15.299-27.05 8.442-4.992 15.3-.948 15.3 9.008Z"/><path fill="url(#paint13_radial_4649_74446)" d="M530.566 378.616c0 9.955-6.858 22.058-15.3 27.05-8.442 4.991-15.299.948-15.299-9.008 0-9.955 6.857-22.058 15.299-27.05 8.442-4.992 15.3-.948 15.3 9.008Z" opacity=".5"/><path fill="#DCE2ED" d="M522.424 367.488c1.284 1.897 2.049 4.49 2.049 7.781 0 9.955-6.857 22.058-15.299 27.05-2.596 1.534-5.027 2.203-7.186 2.119 2.65 3.849 7.595 4.602 13.251 1.255 8.442-4.992 15.299-17.094 15.299-27.05.028-6.916-3.278-10.96-8.114-11.155Z"/><path fill="#5674BF" d="m479.56 250.336-33.031 19.465v-38.902l33.031-19.465v38.902Z"/><path fill="#CFDCFD" d="M474.642 214.334v33.297l-28.113 16.564v5.606l33.031-19.465v-38.902l-4.918 2.9Z" opacity=".8"/><path fill="#DCE2ED" d="m452.839 241.523-2.95 1.729v-3.486l2.95-1.729v3.486ZM459.123 233.353l-2.978 1.757v-3.486l2.978-1.757v3.486ZM465.378 234.134l-2.95 1.729v-3.486l2.95-1.729v3.486ZM465.378 243.251l-2.95 1.757v-3.486l2.95-1.756v3.485ZM461.609 250.281l-2.951 1.757v-3.486l2.951-1.757v3.486ZM471.855 239.46l-2.951 1.729v-3.485l2.951-1.729v3.485Z"/><path fill="url(#paint14_linear_4649_74446)" d="m506.142 240.074 3.634-6.386-3.634-2.12-33.003 19.465v38.902l3.606 2.12 3.606-6.386 25.791-15.199v-30.396Z"/><path fill="url(#paint15_linear_4649_74446)" d="m509.777 272.59-33.031 19.465v-38.903l33.031-19.464v38.902Z"/><path fill="url(#paint16_linear_4649_74446)" d="m509.777 272.59-33.031 19.465v-38.903l33.031-19.464v38.902Z"/><path fill="#7C9EF2" d="m471.007 238.876-.628-.614 36.473-39.794h103.846l38.304-39.098V.025h.874v159.708l-.109.139-38.714 39.488H507.235l-36.228 39.516Z"/><path fill="#7C9EF2" d="m649.137 119.743-18.004-18.406V35.775h.847v65.2l17.785 18.126-.628.642ZM538.378 199.221l-.628-.614 20.436-20.859h44.396l21.31-21.752.629.641-21.584 22.003h-44.396l-20.163 20.581Z"/><path fill="#7C9EF2" d="M624.193 159.344c-1.639 0-2.951-1.367-2.951-3.012 0-1.673 1.339-3.012 2.951-3.012 1.639 0 2.95 1.367 2.95 3.012.028 1.645-1.311 3.012-2.95 3.012ZM594.304 138.986c1.63 0 2.951-1.348 2.951-3.011 0-1.664-1.321-3.012-2.951-3.012-1.629 0-2.95 1.348-2.95 3.012 0 1.663 1.321 3.011 2.95 3.011ZM617.992 109.231c1.629 0 2.95-1.349 2.95-3.012 0-1.664-1.321-3.012-2.95-3.012-1.63 0-2.951 1.348-2.951 3.012 0 1.663 1.321 3.012 2.951 3.012ZM606.298 33.602c-1.639 0-2.95-1.367-2.95-3.012s1.338-3.012 2.95-3.012c1.64 0 2.951 1.367 2.951 3.012s-1.311 3.012-2.951 3.012ZM631.57 38.79c1.629 0 2.95-1.35 2.95-3.013 0-1.663-1.321-3.011-2.95-3.011-1.63 0-2.951 1.348-2.951 3.011 0 1.664 1.321 3.012 2.951 3.012ZM649.439 3.037c1.629 0 2.95-1.348 2.95-3.012 0-1.663-1.321-3.011-2.95-3.011-1.63 0-2.951 1.348-2.951 3.011 0 1.664 1.321 3.012 2.951 3.012ZM508.134 129.418c1.63 0 2.951-1.348 2.951-3.012 0-1.663-1.321-3.011-2.951-3.011-1.629 0-2.95 1.348-2.95 3.011 0 1.664 1.321 3.012 2.95 3.012Z"/><path fill="#7C9EF2" d="M451.8 240.661h-.874v-17.652l.136-.112 41.337-42.862v-60.793l.109-.139 34.151-34.859h67.291l11.911-12.159V30.59h.875v41.858l-.137.14-12.294 12.548h-67.291l-33.768 34.468v60.794l-.11.139-41.336 42.834v17.29Z"/><path fill="#7C9EF2" d="m493.136 166.175-.628-.642 15.19-15.477v-23.648h.874v24.011l-.136.139-15.3 15.617ZM457.947 233.075l-.629-.642 94.94-96.878h41.363v.864h-41.008l-94.666 96.656Z"/><path fill="#7C9EF2" d="M535.155 154.071h-.874v-30.87l.137-.14 16.966-17.29h66.608v.893h-66.253l-16.584 16.899v30.508Z"/><path fill="url(#paint17_radial_4649_74446)" d="M521.058 477.113c-3.661 12.41-23.304 36.504-35.462 32.767-12.157-3.737-12.212-33.882-8.551-46.292 3.661-12.409 16.474-19.437 28.632-15.7 12.158 3.737 19.042 16.816 15.381 29.225Z"/><path fill="url(#paint18_linear_4649_74446)" d="M521.058 477.113c-3.661 12.41-23.304 36.504-35.462 32.767-12.157-3.737-12.212-33.882-8.551-46.292 3.661-12.409 16.474-19.437 28.632-15.7 12.158 3.737 19.042 16.816 15.381 29.225Z"/><path fill="#251C72" d="M497.671 448.027c6.393-.585 14.534 3.291 18.223 8.645 3.688 5.354 1.502 10.151-4.891 10.737-6.393.585-14.534-3.291-18.222-8.645-3.689-5.327-1.503-10.151 4.89-10.737Z"/><path fill="url(#paint19_radial_4649_74446)" d="M497.671 448.027c6.393-.585 14.534 3.291 18.223 8.645 3.688 5.354 1.502 10.151-4.891 10.737-6.393.585-14.534-3.291-18.222-8.645-3.689-5.327-1.503-10.151 4.89-10.737Z" opacity=".5"/><path fill="#DCE2ED" d="M491.004 454.106c1.12-.976 2.759-1.617 4.863-1.813 6.393-.585 14.535 3.291 18.223 8.645 1.12 1.646 1.694 3.235 1.776 4.685 2.322-1.98 2.513-5.326.027-8.924-3.688-5.354-11.857-9.23-18.223-8.644-4.426.39-6.83 2.816-6.666 6.051Z"/><path fill="#5B75B7" d="M515.703 433.136c.738-.698.765-1.869.082-2.622a1.788 1.788 0 0 0-2.568-.083c-.738.697-.765 1.868-.082 2.621a1.789 1.789 0 0 0 2.568.084Z" opacity=".6"/><path fill="#5B75B7" d="M536.714 430.095c1.831-1.757 1.94-4.713.191-6.609a4.512 4.512 0 0 0-6.475-.196c-1.83 1.757-1.939 4.713-.191 6.61 1.749 1.868 4.645 1.98 6.475.195Z"/><path fill="#5B75B7" d="M525.294 456.338c1.038-.976 1.092-2.649.109-3.681a2.49 2.49 0 0 0-3.607-.111c-1.038.976-1.092 2.649-.109 3.681a2.538 2.538 0 0 0 3.607.111Z" opacity=".6"/><path fill="#5B75B7" d="M531.167 447.525c.711-.669.738-1.813.082-2.538-.655-.725-1.776-.753-2.486-.083-.71.669-.738 1.812-.082 2.537a1.74 1.74 0 0 0 2.486.084ZM532.534 451.762a1.222 1.222 0 0 0 .054-1.729c-.464-.502-1.202-.53-1.694-.056a1.222 1.222 0 0 0-.054 1.729c.464.502 1.202.53 1.694.056Z"/><path fill="#5B75B7" d="M519.42 416.682c1.011-.976 1.065-2.621.109-3.653a2.504 2.504 0 0 0-3.579-.112c-1.011.976-1.066 2.622-.109 3.653a2.504 2.504 0 0 0 3.579.112Z" opacity=".6"/><path fill="#5B75B7" d="M514.53 422.789c1.53-1.45 1.612-3.904.164-5.466a3.716 3.716 0 0 0-5.355-.167c-1.53 1.45-1.612 3.904-.164 5.466a3.717 3.717 0 0 0 5.355.167Z"/><path fill="#F2F2F2" d="M682.743 477.336 474.941 599.814v-67.29l207.802-122.479v67.291Z" opacity=".1"/><path fill="#6C90D4" d="m486.581 564.455-3.743 2.231V550.4l3.743-2.203v16.258ZM494.122 560.022l-3.77 2.231v-22.282l3.77-2.231v22.282ZM501.634 555.587l-3.771 2.231v-28.974l3.771-2.203v28.946ZM509.147 551.154l-3.77 2.231v-26.381l3.77-2.203v26.353ZM516.661 546.719l-3.743 2.23v-22.281l3.743-2.203v22.254Z"/><path fill="#6C90D4" d="m524.202 542.312-3.77 2.203v-18.628l3.77-2.231v18.656ZM531.714 537.88l-3.771 2.203v-14.446l3.771-2.231v14.474Z" opacity=".9"/><path fill="#6C90D4" d="m539.227 533.445-3.77 2.203v-10.987l3.77-2.231v11.015ZM546.741 529.01l-3.743 2.203v-8.561l3.743-2.203v8.561Z" opacity=".7"/><path fill="#6C90D4" d="m554.255 524.578-3.743 2.203v-11.713l3.743-2.203v11.713ZM561.796 520.142l-3.771 2.231v-17.039l3.771-2.23v17.038Z" opacity=".5"/><path fill="#6C90D4" d="m569.307 515.709-3.77 2.231v-22.281l3.77-2.231v22.281ZM576.821 511.276l-3.743 2.23v-17.987l3.743-2.203v17.96Z" opacity=".3"/><path fill="#6C90D4" d="m584.335 506.839-3.743 2.231v-12.8l3.743-2.231v12.8ZM591.874 502.407l-3.77 2.231v-9.454l3.77-2.231v9.454Z" opacity=".1"/><path fill="#A7B8D8" d="m671.105 433.442 3.771-2.231v22.281l-3.771 2.231v-22.281Z"/><path fill="#A7B8D8" d="m663.592 441.502 3.77-2.203v18.628l-3.77 2.231v-18.656ZM656.078 450.117l3.743-2.203v14.445l-3.743 2.231v-14.473Z" opacity=".9"/><path fill="#A7B8D8" d="m648.564 458.008 3.743-2.231v11.016l-3.743 2.231v-11.016ZM641.023 464.871l3.771-2.203v8.561l-3.771 2.203v-8.561Z" opacity=".7"/><path fill="#A7B8D8" d="m633.512 466.152 3.77-2.203v11.713l-3.77 2.203v-11.713ZM625.998 465.262l3.743-2.203v17.038l-3.743 2.204v-17.039Z" opacity=".5"/><path fill="#A7B8D8" d="m618.484 464.453 3.743-2.203v22.282l-3.743 2.203v-22.282ZM610.945 473.207l3.77-2.23v17.987l-3.77 2.203v-17.96Z" opacity=".3"/><path fill="#A7B8D8" d="m603.432 482.801 3.77-2.203v12.772l-3.77 2.231v-12.8ZM595.918 490.583l3.77-2.231v9.453l-3.77 2.231v-9.453Z" opacity=".1"/><g fill="#1049B3" fill-opacity=".3" opacity=".1"><g opacity=".1"><path d="m486.581 571.257-3.743 2.203v-3.653l3.743-2.231v3.681ZM501.634 562.39l-3.771 2.203v-3.654l3.771-2.203v3.654ZM509.147 557.956l-3.77 2.203v-3.653l3.77-2.203v3.653ZM516.661 553.522l-3.743 2.231v-3.681l3.743-2.203v3.653ZM524.202 549.087l-3.77 2.231v-3.681l3.77-2.203v3.653ZM539.227 540.22l-3.77 2.23v-3.653l3.77-2.231v3.654ZM546.741 535.814l-3.743 2.203v-3.653l3.743-2.231v3.681ZM554.255 531.38l-3.743 2.203v-3.653l3.743-2.231v3.681ZM561.796 526.947l-3.771 2.203v-3.653l3.771-2.231v3.681ZM569.307 522.511l-3.77 2.203v-3.653l3.77-2.231v3.681ZM584.335 513.643l-3.743 2.203v-3.653l3.743-2.203v3.653ZM591.874 509.21l-3.77 2.231v-3.681l3.77-2.203v3.653ZM599.387 504.774l-3.77 2.231v-3.681l3.77-2.203v3.653ZM606.901 500.343l-3.77 2.231v-3.681l3.77-2.204v3.654ZM614.415 495.907l-3.743 2.231v-3.681l3.743-2.203v3.653ZM621.954 491.473l-3.77 2.231v-3.653l3.77-2.231v3.653ZM629.468 487.068l-3.771 2.203v-3.653l3.771-2.231v3.681ZM644.495 478.199l-3.743 2.203v-3.653l3.743-2.231v3.681ZM652.009 473.765l-3.743 2.203v-3.654l3.743-2.203v3.654ZM659.548 469.333l-3.771 2.203v-3.653l3.771-2.203v3.653ZM667.061 464.897l-3.77 2.231v-3.681l3.77-2.203v3.653Z" opacity=".1"/></g><g opacity=".1"><path d="m486.581 577.809-3.743 2.231v-3.653l3.743-2.231v3.653ZM494.122 573.404l-3.77 2.203v-3.653l3.77-2.231v3.681ZM501.634 568.972l-3.771 2.203v-3.653l3.771-2.231v3.681ZM509.147 564.537l-3.77 2.203v-3.654l3.77-2.231v3.682ZM516.661 560.103l-3.743 2.203v-3.653l3.743-2.231v3.681ZM524.202 555.669l-3.77 2.203v-3.653l3.77-2.203v3.653ZM539.227 546.802l-3.77 2.231v-3.681l3.77-2.204v3.654ZM554.255 537.932l-3.743 2.231v-3.681l3.743-2.203v3.653ZM561.796 533.497l-3.771 2.231v-3.681l3.771-2.203v3.653ZM569.307 529.065l-3.77 2.231v-3.653l3.77-2.231v3.653ZM584.335 520.224l-3.743 2.203v-3.653l3.743-2.231v3.681ZM591.874 515.79l-3.77 2.204v-3.654l3.77-2.231v3.681ZM614.415 502.489l-3.743 2.231v-3.681l3.743-2.203v3.653ZM621.954 498.056l-3.77 2.23v-3.681l3.77-2.203v3.654ZM629.468 493.622l-3.771 2.231v-3.681l3.771-2.203v3.653ZM644.495 484.753l-3.743 2.231v-3.653l3.743-2.231v3.653ZM659.548 475.912l-3.771 2.203v-3.654l3.771-2.231v3.682ZM667.061 471.478l-3.77 2.203v-3.653l3.77-2.231v3.681ZM674.575 467.044l-3.77 2.203v-3.653l3.77-2.231v3.681Z" opacity=".1"/></g><g opacity=".1"><path d="m486.581 584.391-3.743 2.231v-3.681l3.743-2.203v3.653ZM494.122 579.958l-3.77 2.231v-3.681l3.77-2.203v3.653ZM524.202 562.251l-3.77 2.204v-3.654l3.77-2.231v3.681ZM531.714 557.816l-3.771 2.203v-3.653l3.771-2.231v3.681ZM539.227 553.382l-3.77 2.203v-3.653l3.77-2.231v3.681ZM546.741 548.948l-3.743 2.203v-3.653l3.743-2.203v3.653ZM554.255 544.514l-3.743 2.204v-3.654l3.743-2.203v3.653ZM569.307 535.647l-3.77 2.231v-3.681l3.77-2.203v3.653ZM576.821 531.212l-3.743 2.231v-3.681l3.743-2.203v3.653ZM591.874 522.345l-3.77 2.231v-3.654l3.77-2.231v3.654ZM599.387 517.939l-3.77 2.203v-3.653l3.77-2.231v3.681ZM606.901 513.503l-3.77 2.203v-3.653l3.77-2.231v3.681ZM614.415 509.072l-3.743 2.203v-3.653l3.743-2.231v3.681ZM621.954 504.638l-3.77 2.203v-3.653l3.77-2.231v3.681ZM636.981 495.768l-3.77 2.231v-3.681l3.77-2.203v3.653ZM644.495 491.335l-3.743 2.231v-3.681l3.743-2.203v3.653ZM652.009 486.901l-3.743 2.231v-3.681l3.743-2.203v3.653ZM659.548 482.466l-3.771 2.231v-3.681l3.771-2.204v3.654ZM667.061 478.034l-3.77 2.231v-3.653l3.77-2.231v3.653ZM674.575 473.626l-3.77 2.203v-3.653l3.77-2.231v3.681Z" opacity=".1"/></g></g><path fill="#fff" fill-opacity=".3" d="m494.12 566.826-3.77 2.203v-3.654l3.77-2.23v3.681ZM531.714 544.655l-3.771 2.231v-3.681l3.771-2.203v3.653ZM576.821 518.079l-3.743 2.203v-3.653l3.743-2.203v3.653ZM636.981 482.634l-3.77 2.203v-3.653l3.77-2.231v3.681ZM674.573 460.464l-3.77 2.231v-3.681l3.77-2.203v3.653ZM531.714 551.235l-3.771 2.203v-3.653l3.771-2.203v3.653ZM546.741 542.368l-3.743 2.231v-3.681l3.743-2.203v3.653ZM576.821 524.66l-3.743 2.203v-3.654l3.743-2.23v3.681ZM599.387 511.358l-3.77 2.203v-3.653l3.77-2.203v3.653ZM606.901 506.923l-3.77 2.203v-3.653l3.77-2.203v3.653ZM636.981 489.188l-3.77 2.231v-3.681l3.77-2.203v3.653ZM652.007 480.347l-3.743 2.203v-3.653l3.743-2.231v3.681ZM501.634 575.524l-3.771 2.231v-3.681l3.771-2.203v3.653ZM509.147 571.091l-3.77 2.231v-3.681l3.77-2.203v3.653ZM516.659 566.657l-3.743 2.231v-3.653l3.743-2.231v3.653ZM561.794 540.081l-3.771 2.231v-3.681l3.771-2.203v3.653ZM584.333 526.778l-3.743 2.231v-3.681l3.743-2.203v3.653ZM629.468 500.202l-3.771 2.203v-3.653l3.771-2.203v3.653Z"/><path fill="#2A66D8" d="M222.361 473.683 20.734 592.508v-54.435l201.627-118.798v54.408Z" opacity=".1"/><path fill="#2A66D8" d="m30.951 579.568 6.64-15.867c2.075-4.936 6.501-8.115 9.206-6.609l.874.502c2.35 1.31 6.12-.921 8.443-5.048l10.791-19.13c2.35-4.155 6.147-6.414 8.497-5.02l6.448 3.793c1.885 1.115 4.835-.14 7.158-3.04l2.841-3.541c2.076-2.594 4.644-3.877 6.53-3.319l11.338 3.374c2.185.642 5.245-1.199 7.376-4.489l9.726-14.976c.246-.39.492-.808.711-1.227l11.037-21.082c1.967-3.765 5.246-6.219 7.732-5.8 1.967.334 4.481-1.144 6.475-3.765l5.628-7.502v37.647l-127.45 75.099Z" opacity=".3"/><path fill="#2A66D8" d="m31.827 579.959-1.749-.781 6.64-15.867c1.447-3.458 4.124-6.33 6.775-7.251 1.393-.502 2.704-.418 3.77.168l.874.502c1.858 1.059 5.136-1.088 7.158-4.685l10.792-19.131c1.666-2.928 4.043-5.075 6.393-5.717 1.257-.334 2.431-.223 3.415.335l6.448 3.793c1.448.836 3.961-.335 5.956-2.817l2.84-3.541c2.35-2.929 5.246-4.323 7.541-3.654l11.338 3.375c1.804.529 4.426-1.2 6.312-4.1l9.726-14.975c.246-.362.464-.753.655-1.143l11.038-21.055c2.158-4.155 5.792-6.804 8.743-6.302 1.584.251 3.824-1.088 5.546-3.402l5.628-7.502 1.502 1.171-5.628 7.502c-2.213 2.956-5.054 4.573-7.376 4.155-2.022-.307-5 1.98-6.749 5.298l-11.037 21.083c-.219.446-.492.864-.765 1.283l-9.726 14.975c-2.404 3.709-5.792 5.689-8.442 4.88l-11.338-3.374c-1.503-.446-3.716.753-5.52 3.012l-2.84 3.541c-2.678 3.347-6.038 4.657-8.388 3.263l-6.448-3.793c-.519-.306-1.202-.362-1.967-.139-1.83.502-3.852 2.342-5.245 4.824l-10.792 19.131c-2.623 4.629-6.885 7.027-9.726 5.41l-.874-.502c-.738-.419-1.612-.251-2.213-.028-2.159.753-4.426 3.235-5.656 6.191l-6.611 15.867Z"/><path fill="#104DBF" d="M98.05 510.521c0 2.204-1.502 4.881-3.387 5.968-1.858 1.088-3.388.196-3.388-1.98 0-2.203 1.503-4.88 3.388-5.968 1.885-1.115 3.388-.223 3.388 1.98ZM45.213 546.885c0 2.203-1.503 4.88-3.388 5.968-1.858 1.087-3.388.195-3.388-1.98 0-2.203 1.503-4.881 3.388-5.968 1.885-1.116 3.388-.223 3.388 1.98ZM147.585 500.704l-13.169 7.78v-2.37l13.169-7.753v2.343ZM152.202 502.628l-17.786 10.485v-2.342l17.786-10.486v2.343ZM77.834 542.954l-13.496 7.948v-2.343l13.496-7.948v2.343ZM66.578 554.249l-2.24 1.311v-2.37l2.24-1.311v2.37Z"/><path fill="#C9D6ED" d="m205.286 439.188-31.938 18.823v37.647l31.938-18.823v-37.647Z" opacity=".3"/><path fill="#C9D6ED" d="m181.161 458.791-3.251 1.924v3.821l3.251-1.924v-3.821Z" opacity=".3"/><path fill="#C9D6ED" d="m187.691 454.943-3.252 1.924v3.849l3.252-1.924v-3.849Z"/><path fill="#C9D6ED" d="m194.22 451.094-3.279 1.924v3.848l3.279-1.924v-3.848ZM200.724 447.273l-3.251 1.897v3.848l3.251-1.924v-3.821ZM181.161 466.461l-3.251 1.924v3.848l3.251-1.924v-3.848Z" opacity=".3"/><path fill="#C9D6ED" d="m187.691 462.611-3.252 1.924v3.849l3.252-1.924v-3.849Z"/><path fill="#C9D6ED" d="m194.22 458.791-3.279 1.924v3.821l3.279-1.924v-3.821ZM200.724 454.941l-3.251 1.925v3.848l3.251-1.924v-3.849Z" opacity=".3"/><path fill="#C9D6ED" d="m181.161 474.156-3.251 1.924v3.821l3.251-1.924v-3.821Z"/><path fill="#C9D6ED" d="m187.691 470.309-3.252 1.924v3.848l3.252-1.924v-3.848ZM194.22 466.461l-3.279 1.924v3.848l3.279-1.924v-3.848Z" opacity=".3"/><path fill="#C9D6ED" d="m200.724 462.611-3.251 1.924v3.849l3.251-1.924v-3.849Z"/><path fill="#C9D6ED" d="m181.161 481.826-3.251 1.924v3.849l3.251-1.924v-3.849Z" opacity=".3"/><path fill="#C9D6ED" d="m187.691 477.977-3.252 1.924v3.848l3.252-1.924v-3.848Z"/><path fill="#C9D6ED" d="m194.22 474.156-3.279 1.924v3.821l3.279-1.924v-3.821ZM200.724 470.309l-3.251 1.924v3.848l3.251-1.924v-3.848Z" opacity=".3"/><g opacity=".2"><g opacity=".2"><path fill="#5B75B7" d="M682.743 534.614 475.27 656.897v-55.996l207.473-122.284v55.997Z" opacity=".1"/></g><g fill="#5B75B7" opacity=".2"><g opacity=".2"><path d="m486.882 626.334-3.743 2.231v-13.553l3.743-2.203v13.525ZM494.395 621.928l-3.743 2.203v-18.545l3.743-2.203v18.545ZM501.907 617.493l-3.743 2.203v-24.094l3.743-2.231v24.122ZM509.421 613.06l-3.771 2.231v-21.975l3.771-2.203v21.947ZM516.934 608.654l-3.77 2.203v-18.545l3.77-2.203v18.545Z" opacity=".2"/><path d="m524.421 604.22-3.743 2.203v-15.505l3.743-2.203v15.505ZM531.934 599.785l-3.743 2.231v-12.047l3.743-2.203v12.019Z" opacity=".9"/><path d="m539.446 595.38-3.743 2.203v-9.147l3.743-2.231v9.175ZM546.96 590.946l-3.771 2.203v-7.111l3.771-2.231v7.139Z" opacity=".7"/><path d="m554.473 586.512-3.77 2.231v-9.76l3.77-2.231v9.76ZM561.958 582.104l-3.743 2.204v-14.195l3.743-2.203v14.194Z" opacity=".5"/><path d="m569.471 577.67-3.742 2.203v-18.545l3.742-2.203v18.545ZM576.985 573.238l-3.743 2.231v-14.975l3.743-2.203v14.947Z" opacity=".3"/><path d="m584.499 568.831-3.77 2.203v-10.653l3.77-2.203v10.653ZM592.012 564.397l-3.77 2.203v-7.864l3.77-2.203v7.864Z" opacity=".1"/></g><g opacity=".2"><path d="m671.131 499.226 3.743-2.203v18.545l-3.743 2.203v-18.545Z" opacity=".2"/><path d="m663.619 506.672 3.743-2.203v15.505l-3.743 2.231v-15.533ZM656.105 514.592l3.771-2.203v12.019l-3.771 2.203v-12.019Z" opacity=".9"/><path d="m648.592 521.871 3.77-2.203v9.175l-3.77 2.203v-9.175ZM641.107 528.34l3.743-2.203v7.111l-3.743 2.231v-7.139Z" opacity=".7"/><path d="m633.594 530.125 3.743-2.203v9.76l-3.743 2.203v-9.76ZM626.08 530.125l3.743-2.203v14.194l-3.743 2.203v-14.194Z" opacity=".5"/><path d="m618.566 530.182 3.771-2.203v18.544l-3.771 2.231v-18.572ZM611.055 538.211l3.77-2.231v14.976l-3.77 2.203v-14.948Z" opacity=".3"/><path d="m603.568 546.942 3.743-2.231v10.681l-3.743 2.203v-10.653ZM596.055 554.137l3.743-2.203v7.864l-3.743 2.231v-7.892Z" opacity=".1"/></g></g><g fill="#5B75B7" opacity=".1"><g opacity=".1"><path d="m486.882 631.995-3.743 2.203v-3.04l3.743-2.203v3.04ZM501.907 623.153l-3.743 2.204v-3.04l3.743-2.231v3.067ZM509.421 618.721l-3.771 2.203v-3.039l3.771-2.203v3.039ZM516.934 614.286l-3.77 2.231v-3.068l3.77-2.203v3.04ZM524.421 609.88l-3.743 2.203v-3.04l3.743-2.231v3.068ZM539.446 601.012l-3.743 2.231v-3.067l3.743-2.203v3.039ZM546.96 596.607l-3.771 2.203v-3.04l3.771-2.231v3.068ZM554.473 592.172l-3.77 2.203v-3.039l3.77-2.203v3.039ZM561.958 587.739l-3.743 2.231v-3.068l3.743-2.203v3.04ZM569.471 583.333l-3.742 2.203v-3.039l3.742-2.231v3.067ZM584.499 574.464l-3.77 2.23v-3.067l3.77-2.203v3.04ZM592.012 570.058l-3.77 2.203v-3.04l3.77-2.231v3.068ZM599.497 565.624l-3.743 2.203v-3.04l3.743-2.203v3.04ZM607.01 561.19l-3.742 2.231v-3.068l3.742-2.203v3.04ZM614.524 556.784l-3.743 2.203v-3.039l3.743-2.231v3.067ZM622.038 552.35l-3.743 2.203v-3.039l3.743-2.203v3.039ZM629.55 547.942l-3.771 2.204v-3.04l3.771-2.231v3.067ZM644.55 539.075l-3.743 2.231v-3.068l3.743-2.203v3.04ZM652.061 534.669l-3.743 2.203v-3.039l3.743-2.231v3.067ZM659.575 530.235l-3.743 2.203v-3.04l3.743-2.203v3.04ZM667.089 525.801l-3.771 2.231v-3.067l3.771-2.203v3.039Z" opacity=".1"/></g><g opacity=".1"><path d="m486.882 637.46-3.743 2.231v-3.068l3.743-2.203v3.04ZM494.395 633.054l-3.743 2.203v-3.04l3.743-2.231v3.068ZM501.907 628.618l-3.743 2.203v-3.04l3.743-2.203v3.04ZM509.421 624.186l-3.771 2.231v-3.067l3.771-2.204v3.04ZM516.934 619.78l-3.77 2.204v-3.04l3.77-2.231v3.067ZM524.421 615.344l-3.743 2.203v-3.039l3.743-2.203v3.039ZM539.446 606.505l-3.743 2.203v-3.04l3.743-2.23v3.067ZM554.473 597.637l-3.77 2.231v-3.067l3.77-2.203v3.039ZM561.958 593.232l-3.743 2.203v-3.04l3.743-2.231v3.068ZM569.471 588.797 565.729 591v-3.039l3.742-2.203v3.039ZM584.499 579.956l-3.77 2.203v-3.039l3.77-2.231v3.067ZM592.012 575.524l-3.77 2.203v-3.04l3.77-2.203v3.04ZM614.524 562.249l-3.743 2.203v-3.04l3.743-2.203v3.04ZM622.038 557.815l-3.743 2.231v-3.068l3.743-2.203v3.04ZM629.55 553.409l-3.771 2.203v-3.039l3.771-2.231v3.067ZM644.55 544.542l-3.743 2.231v-3.068l3.743-2.203v3.04ZM659.575 535.702l-3.743 2.203v-3.04l3.743-2.203v3.04ZM667.089 531.266l-3.771 2.231v-3.067l3.771-2.203v3.039ZM674.602 526.861l-3.77 2.203v-3.04l3.77-2.231v3.068Z" opacity=".1"/></g><g opacity=".1"><path d="m486.882 642.926-3.743 2.231v-3.067l3.743-2.203v3.039ZM494.395 638.521l-3.743 2.203v-3.04l3.743-2.231v3.068ZM524.421 620.813l-3.743 2.203v-3.04l3.743-2.203v3.04ZM531.934 616.378l-3.743 2.23v-3.067l3.743-2.203v3.04ZM539.446 611.97l-3.743 2.203v-3.04l3.743-2.231v3.068ZM546.96 607.538l-3.771 2.203v-3.04l3.771-2.203v3.04ZM554.473 603.104l-3.77 2.231v-3.068l3.77-2.203v3.04ZM569.471 594.264l-3.742 2.203v-3.039l3.742-2.203v3.039ZM576.985 589.829l-3.743 2.231v-3.068l3.743-2.203v3.04ZM592.012 580.989l-3.77 2.203v-3.04l3.77-2.203v3.04ZM599.497 576.555l-3.743 2.231v-3.067l3.743-2.203v3.039ZM607.01 572.149l-3.742 2.203v-3.04l3.742-2.203v3.04ZM614.524 567.715l-3.743 2.231v-3.067l3.743-2.203v3.039ZM622.038 563.308l-3.743 2.203v-3.04l3.743-2.231v3.068ZM637.063 554.44l-3.77 2.231v-3.068l3.77-2.203v3.04ZM644.55 550.034l-3.743 2.204v-3.04l3.743-2.231v3.067ZM652.061 545.602l-3.743 2.203v-3.039l3.743-2.204v3.04ZM659.575 541.167l-3.743 2.231v-3.068l3.743-2.203v3.04ZM667.089 536.761l-3.771 2.203v-3.04l3.771-2.231v3.068ZM674.602 532.327l-3.77 2.203v-3.04l3.77-2.203v3.04Z" opacity=".1"/></g></g><path fill="#5B75B7" d="m494.393 627.561-3.743 2.231v-3.067l3.743-2.204v3.04ZM531.932 605.448l-3.743 2.203v-3.04l3.743-2.203v3.04ZM576.985 578.897l-3.743 2.203v-3.04l3.743-2.203v3.04ZM637.063 543.508l-3.77 2.203v-3.039l3.77-2.203v3.039ZM674.6 521.396l-3.77 2.203v-3.04l3.77-2.231v3.068ZM531.932 610.913l-3.743 2.231v-3.068l3.743-2.203v3.04ZM546.96 602.071l-3.771 2.203v-3.04l3.771-2.203v3.04ZM576.985 584.364l-3.743 2.231v-3.068l3.743-2.203v3.04ZM599.497 571.09l-3.743 2.231v-3.067l3.743-2.203v3.039ZM607.01 566.683l-3.742 2.203v-3.04l3.742-2.231v3.068ZM637.063 548.975l-3.77 2.203v-3.039l3.77-2.203v3.039ZM652.061 540.136l-3.743 2.203v-3.04l3.743-2.231v3.068ZM501.907 634.087l-3.743 2.203v-3.04l3.743-2.203v3.04ZM509.421 629.651l-3.771 2.231v-3.068l3.771-2.203v3.04ZM516.934 625.247l-3.77 2.203v-3.039l3.77-2.231v3.067ZM561.958 598.696l-3.743 2.203v-3.039l3.743-2.231v3.067ZM584.497 585.423l-3.77 2.203v-3.04l3.77-2.231v3.068ZM629.55 558.876l-3.771 2.203v-3.04l3.771-2.203v3.04Z" opacity=".2"/></g></g><defs><radialGradient id="paint0_diamond_4649_74446" cx="0" cy="0" r="1" gradientTransform="rotate(174.436 270.096 237.346) scale(330.773 584.575)" gradientUnits="userSpaceOnUse"><stop stop-color="#2A66D8"/><stop offset="1" stop-color="#F2F2F2"/></radialGradient><radialGradient id="paint1_radial_4649_74446" cx="0" cy="0" r="1" gradientTransform="matrix(62.49728 19.20769 -19.53769 63.57101 275.69 349.748)" gradientUnits="userSpaceOnUse"><stop stop-color="#C0BFF6"/><stop offset="1" stop-color="#393091"/></radialGradient><radialGradient id="paint3_radial_4649_74446" cx="0" cy="0" r="1" gradientTransform="matrix(-3.76992 -43.0635 42.2028 -3.69457 263.414 353.509)" gradientUnits="userSpaceOnUse"><stop stop-color="#C2CCDD"/><stop offset=".459" stop-color="#1C3F72"/><stop offset=".582" stop-color="#162561"/><stop offset=".711" stop-color="#121355"/><stop offset=".846" stop-color="#10084E"/><stop offset="1" stop-color="#0F054C"/></radialGradient><radialGradient id="paint4_radial_4649_74446" cx="0" cy="0" r="1" gradientTransform="matrix(195.95273 39.59465 -40.35143 199.69803 481.381 177.349)" gradientUnits="userSpaceOnUse"><stop stop-color="#C0BFF6"/><stop offset="1" stop-color="#393091"/></radialGradient><radialGradient id="paint6_radial_4649_74446" cx="0" cy="0" r="1" gradientTransform="matrix(153.547 0 0 213.349 451.809 335.735)" gradientUnits="userSpaceOnUse"><stop stop-color="#C0BFF6"/><stop offset="1" stop-color="#393091"/></radialGradient><radialGradient id="paint8_radial_4649_74446" cx="0" cy="0" r="1" gradientTransform="matrix(154.018 0 0 157.209 459.504 202.54)" gradientUnits="userSpaceOnUse"><stop stop-color="#C0BFF6"/><stop offset="1" stop-color="#393091"/></radialGradient><radialGradient id="paint10_radial_4649_74446" cx="0" cy="0" r="1" gradientTransform="matrix(75.6499 0 0 77.2174 374.26 224.895)" gradientUnits="userSpaceOnUse"><stop stop-color="#42E8E0"/><stop offset=".059" stop-color="#3CCBCD"/><stop offset=".178" stop-color="#3098AC"/><stop offset=".3" stop-color="#266B8F"/><stop offset=".421" stop-color="#1E4777"/><stop offset=".541" stop-color="#172A65"/><stop offset=".662" stop-color="#131657"/><stop offset=".782" stop-color="#100A50"/><stop offset=".902" stop-color="#0F064D"/><stop offset="1" stop-color="#0F054C"/></radialGradient><radialGradient id="paint11_radial_4649_74446" cx="0" cy="0" r="1" gradientTransform="rotate(11.424 -1515.137 2765.9) scale(72.2532 73.6341)" gradientUnits="userSpaceOnUse"><stop stop-color="#C0BFF6"/><stop offset="1" stop-color="#393091"/></radialGradient><radialGradient id="paint13_radial_4649_74446" cx="0" cy="0" r="1" gradientTransform="matrix(64.4762 0 0 65.8122 508.786 382.065)" gradientUnits="userSpaceOnUse"><stop stop-color="#42E8E0"/><stop offset=".105" stop-color="#37B6BF"/><stop offset=".22" stop-color="#2C87A1"/><stop offset=".338" stop-color="#235F87"/><stop offset=".459" stop-color="#1C3F72"/><stop offset=".582" stop-color="#162561"/><stop offset=".711" stop-color="#121355"/><stop offset=".846" stop-color="#10084E"/><stop offset="1" stop-color="#0F054C"/></radialGradient><radialGradient id="paint17_radial_4649_74446" cx="0" cy="0" r="1" gradientTransform="matrix(62.49703 19.2075 -19.53749 63.57076 513.422 458.612)" gradientUnits="userSpaceOnUse"><stop stop-color="#C0BFF6"/><stop offset="1" stop-color="#393091"/></radialGradient><radialGradient id="paint19_radial_4649_74446" cx="0" cy="0" r="1" gradientTransform="matrix(-3.7699 -43.0633 42.2024 -3.69453 501.147 462.374)" gradientUnits="userSpaceOnUse"><stop stop-color="#42E8E0"/><stop offset=".105" stop-color="#37B6BF"/><stop offset=".22" stop-color="#2C87A1"/><stop offset=".338" stop-color="#235F87"/><stop offset=".459" stop-color="#1C3F72"/><stop offset=".582" stop-color="#162561"/><stop offset=".711" stop-color="#121355"/><stop offset=".846" stop-color="#10084E"/><stop offset="1" stop-color="#0F054C"/></radialGradient><linearGradient id="paint2_linear_4649_74446" x1="257.463" x2="269.15" y1="401.099" y2="339.286" gradientUnits="userSpaceOnUse"><stop stop-color="#6D94DD"/><stop offset="1" stop-color="#2A66D8"/></linearGradient><linearGradient id="paint5_linear_4649_74446" x1="311.053" x2="321.086" y1="325.201" y2="255.263" gradientUnits="userSpaceOnUse"><stop stop-color="#6D94DD"/><stop offset="1" stop-color="#2A66D8"/></linearGradient><linearGradient id="paint7_linear_4649_74446" x1="386.675" x2="421.816" y1="477.472" y2="267.969" gradientUnits="userSpaceOnUse"><stop stop-color="#6D94DD"/><stop offset="1" stop-color="#2A66D8"/></linearGradient><linearGradient id="paint9_linear_4649_74446" x1="389.952" x2="416.36" y1="308.439" y2="124.35" gradientUnits="userSpaceOnUse"><stop stop-color="#6D94DD"/><stop offset="1" stop-color="#2A66D8"/></linearGradient><linearGradient id="paint12_linear_4649_74446" x1="492.477" x2="502.51" y1="412.947" y2="343.009" gradientUnits="userSpaceOnUse"><stop stop-color="#6D94DD"/><stop offset="1" stop-color="#2A66D8"/></linearGradient><linearGradient id="paint14_linear_4649_74446" x1="504.675" x2="417.968" y1="257.708" y2="283.54" gradientUnits="userSpaceOnUse"><stop stop-color="#BCBEFF"/><stop offset=".151" stop-color="#A3A7F5"/><stop offset=".387" stop-color="#8289E8"/><stop offset=".612" stop-color="#6A73DF"/><stop offset=".822" stop-color="#5C66D9"/><stop offset="1" stop-color="#5761D7"/></linearGradient><linearGradient id="paint15_linear_4649_74446" x1="489.718" x2="371.243" y1="263.305" y2="277.133" gradientUnits="userSpaceOnUse"><stop stop-color="#BCBEFF"/><stop offset=".151" stop-color="#A3A7F5"/><stop offset=".387" stop-color="#8289E8"/><stop offset=".612" stop-color="#6A73DF"/><stop offset=".822" stop-color="#5C66D9"/><stop offset="1" stop-color="#5761D7"/></linearGradient><linearGradient id="paint16_linear_4649_74446" x1="471.958" x2="535.526" y1="298.836" y2="195.83" gradientUnits="userSpaceOnUse"><stop stop-color="#C2CCDD"/><stop offset=".81" stop-color="#3C66A8"/><stop offset="1" stop-color="#393091"/></linearGradient><linearGradient id="paint18_linear_4649_74446" x1="495.207" x2="506.894" y1="509.97" y2="448.157" gradientUnits="userSpaceOnUse"><stop stop-color="#6D94DD"/><stop offset="1" stop-color="#2A66D8"/></linearGradient><clipPath id="clip0_4649_74446"><path fill="#fff" d="M0 0h738v657H0z"/></clipPath></defs></svg>