<svg xmlns="http://www.w3.org/2000/svg" width="287" height="223" fill="none" viewBox="0 0 287 223"><path fill="url(#paint0_linear_5139_2650)" d="M201.709 194.266a.742.742 0 0 1-.446-.148l-1.209-.903a.75.75 0 1 1 .904-1.198l1.2.896a.751.751 0 0 1-.448 1.352l-.001.001Z"/><path fill="#3D80FF" d="M264.18 220.695a.75.75 0 0 1-.005-1.501 29.581 29.581 0 0 0 2.911-.161.746.746 0 0 1 .826.667.75.75 0 0 1-.667.826c-.961.103-1.99.16-3.058.169h-.007Zm-2.987-.091-.05-.001a50.499 50.499 0 0 1-3.022-.296.75.75 0 0 1-.649-.838.757.757 0 0 1 .838-.65c1.008.13 1.994.226 2.932.288a.75.75 0 0 1-.049 1.497Zm8.917-.581a.749.749 0 0 1-.178-1.478 14.788 14.788 0 0 0 2.684-.924.75.75 0 1 1 .634 1.359c-.887.414-1.883.757-2.958 1.022a.751.751 0 0 1-.181.021h-.001Zm-14.85-.167a.767.767 0 0 1-.134-.012 73.371 73.371 0 0 1-2.963-.597.75.75 0 0 1-.569-.895.756.756 0 0 1 .895-.569c.988.221 1.956.416 2.901.585a.75.75 0 0 1-.132 1.488h.002Zm-5.837-1.299a.803.803 0 0 1-.193-.024 98.422 98.422 0 0 1-2.904-.816.752.752 0 0 1-.505-.933.746.746 0 0 1 .934-.504c.967.289 1.92.556 2.856.802a.75.75 0 0 1-.19 1.476l.002-.001Zm26.018-1.109a.75.75 0 0 1-.493-1.316 7.475 7.475 0 0 0 1.692-2.104.75.75 0 1 1 1.322.709 9.007 9.007 0 0 1-2.027 2.525.75.75 0 0 1-.494.185v.001Zm-31.754-.6a.725.725 0 0 1-.236-.039c-.936-.31-1.886-.64-2.845-.988a.75.75 0 1 1 .513-1.41c.945.343 1.88.668 2.806.974a.75.75 0 0 1-.236 1.461l-.002.002Zm-5.624-2.038a.747.747 0 0 1-.273-.052c-.921-.36-1.851-.738-2.788-1.131a.748.748 0 0 1-.4-.982c.162-.381.6-.56.982-.4.926.39 1.845.762 2.754 1.118a.752.752 0 0 1 .425.972.751.751 0 0 1-.699.476l-.001-.001Zm-5.516-2.314a.748.748 0 0 1-.307-.066c-.903-.404-1.815-.821-2.732-1.255a.75.75 0 1 1 .641-1.356c.907.428 1.809.842 2.703 1.241.379.169.548.612.379.99a.75.75 0 0 1-.686.445l.002.001Zm45.675-.186a.749.749 0 0 1-.742-.863c.073-.486.111-1.002.111-1.534 0-.41-.022-.833-.066-1.259a.75.75 0 0 1 .671-.822.747.747 0 0 1 .823.67c.048.475.072.95.072 1.411 0 .606-.043 1.197-.128 1.758a.75.75 0 0 1-.741.638v.001Zm-51.086-2.367a.749.749 0 0 1-.333-.078c-.887-.442-1.78-.897-2.676-1.364a.75.75 0 1 1 .693-1.329c.889.463 1.773.914 2.652 1.351a.75.75 0 0 1-.336 1.422v-.002Zm-5.302-2.767a.734.734 0 0 1-.359-.093c-.872-.475-1.746-.965-2.623-1.465a.751.751 0 0 1 .744-1.303c.869.498 1.736.981 2.597 1.452a.75.75 0 0 1-.36 1.409h.001Zm55.874-.779a.75.75 0 0 1-.722-.551 24.778 24.778 0 0 0-.943-2.742.75.75 0 0 1 1.392-.565c.406.999.741 1.977.997 2.909a.746.746 0 0 1-.724.949Zm-61.069-2.186a.752.752 0 0 1-.383-.105 189.58 189.58 0 0 1-2.569-1.559.75.75 0 1 1 .79-1.275c.85.525 1.701 1.041 2.547 1.544a.751.751 0 0 1 .262 1.028.752.752 0 0 1-.646.366l-.001.001Zm-5.087-3.146a.757.757 0 0 1-.406-.119 195.647 195.647 0 0 1-2.513-1.646.751.751 0 0 1 .832-1.249c.832.555 1.663 1.099 2.494 1.632a.75.75 0 0 1-.408 1.38l.001.002Zm63.943-.21a.752.752 0 0 1-.671-.411 44.32 44.32 0 0 0-1.418-2.573.752.752 0 0 1 1.292-.766c.53.896 1.023 1.792 1.465 2.662a.748.748 0 0 1-.668 1.088Zm-68.919-3.108a.755.755 0 0 1-.427-.134 175.095 175.095 0 0 1-2.457-1.728.75.75 0 0 1 .873-1.218c.813.581 1.624 1.153 2.437 1.713a.75.75 0 0 1-.427 1.368l.001-.001Zm65.888-2.042a.75.75 0 0 1-.626-.337 70.514 70.514 0 0 0-1.686-2.431.75.75 0 1 1 1.215-.879 70.336 70.336 0 0 1 1.722 2.483c.23.345.135.81-.211 1.038a.747.747 0 0 1-.414.126Zm-3.498-4.847a.749.749 0 0 1-.594-.29l-1.833-2.361a.752.752 0 0 1 .133-1.054.754.754 0 0 1 1.054.134l1.833 2.362a.75.75 0 0 1-.592 1.209h-.001Zm-3.667-4.724a.75.75 0 0 1-.593-.289l-1.837-2.36a.75.75 0 1 1 1.185-.92l1.836 2.359a.75.75 0 0 1-.59 1.212l-.001-.002Zm-3.674-4.718a.75.75 0 0 1-.593-.289l-1.838-2.359a.75.75 0 1 1 1.184-.922l1.839 2.358a.75.75 0 0 1-.591 1.212h-.001Zm-3.675-4.719a.75.75 0 0 1-.593-.289l-1.837-2.358a.748.748 0 0 1 .132-1.052.747.747 0 0 1 1.052.132l1.837 2.357a.75.75 0 0 1-.59 1.212l-.001-.002Zm-3.673-4.718a.748.748 0 0 1-.594-.291l-1.834-2.362a.75.75 0 1 1 1.187-.92l1.834 2.363a.751.751 0 0 1-.593 1.21Zm-3.666-4.725a.747.747 0 0 1-.594-.291l-1.829-2.369a.75.75 0 1 1 1.19-.914l1.825 2.365a.75.75 0 0 1-.592 1.209Zm-3.649-4.737a.743.743 0 0 1-.595-.295 615.161 615.161 0 0 1-1.819-2.377.749.749 0 0 1 .143-1.05.748.748 0 0 1 1.051.142c.598.786 1.203 1.576 1.815 2.373a.748.748 0 0 1-.139 1.051.749.749 0 0 1-.456.156Zm-3.626-4.756a.754.754 0 0 1-.6-.297 602.64 602.64 0 0 1-1.803-2.389.75.75 0 0 1 1.199-.9c.594.791 1.193 1.584 1.8 2.384a.75.75 0 0 1-.597 1.202h.001Zm-3.596-4.778a.745.745 0 0 1-.602-.302 807.25 807.25 0 0 1-1.784-2.403.751.751 0 0 1 1.207-.893c.586.794 1.18 1.594 1.78 2.4a.75.75 0 0 1-.601 1.197v.001Zm-3.551-4.812a.751.751 0 0 1-.608-.309c-.594-.814-1.18-1.622-1.756-2.423a.75.75 0 1 1 1.218-.876c.575.799 1.16 1.605 1.752 2.418a.751.751 0 0 1-.606 1.191v-.001Zm-3.49-4.854a.753.753 0 0 1-.614-.317 448.252 448.252 0 0 1-1.723-2.452.75.75 0 1 1 1.231-.858 330.68 330.68 0 0 0 1.716 2.441.75.75 0 0 1-.612 1.183l.002.003Zm-3.415-4.909a.75.75 0 0 1-.622-.329c-.57-.835-1.127-1.663-1.676-2.484a.749.749 0 1 1 1.249-.831c.545.817 1.101 1.642 1.668 2.472a.748.748 0 0 1-.619 1.171v.001Zm-3.314-4.977a.75.75 0 0 1-.63-.342c-.55-.85-1.089-1.692-1.616-2.526a.751.751 0 0 1 1.27-.8c.523.83 1.057 1.667 1.605 2.51a.75.75 0 0 1-.628 1.159l-.001-.001Zm-3.182-5.06a.747.747 0 0 1-.642-.361c-.529-.867-1.04-1.727-1.537-2.579a.749.749 0 1 1 1.295-.756c.494.843 1.001 1.696 1.523 2.555a.75.75 0 0 1-.639 1.141Zm-3.011-5.164a.747.747 0 0 1-.657-.385c-.494-.887-.97-1.767-1.433-2.64a.752.752 0 0 1 .313-1.014.755.755 0 0 1 1.015.313c.455.863.929 1.735 1.417 2.614a.75.75 0 0 1-.654 1.114l-.001-.002Zm-2.784-5.29a.752.752 0 0 1-.674-.418 105.01 105.01 0 0 1-1.294-2.718.749.749 0 0 1 .37-.994.748.748 0 0 1 .994.37c.406.886.831 1.778 1.276 2.678a.751.751 0 0 1-.672 1.081v.001Zm-2.484-5.435a.755.755 0 0 1-.694-.461 78.254 78.254 0 0 1-1.108-2.806.751.751 0 0 1 1.407-.524c.337.908.7 1.826 1.087 2.751a.751.751 0 0 1-.694 1.04h.002Zm-2.078-5.601a.75.75 0 0 1-.714-.52 61.305 61.305 0 0 1-.857-2.902.75.75 0 0 1 1.449-.386c.247.925.528 1.877.836 2.827a.75.75 0 0 1-.715.979l.001.002Zm-1.538-5.768a.751.751 0 0 1-.734-.598 46.94 46.94 0 0 1-.523-2.988.748.748 0 0 1 .636-.848.744.744 0 0 1 .848.636c.135.948.305 1.922.507 2.895a.75.75 0 0 1-.735.903h.001Zm-.829-5.908a.75.75 0 0 1-.748-.697 39.489 39.489 0 0 1-.098-2.756v-.291a.752.752 0 0 1 .752-.742h.008a.75.75 0 0 1 .742.758v.275c0 .869.03 1.761.092 2.65a.75.75 0 0 1-.696.802l-.054.001h.002Zm.051-5.971c-.022 0-.046 0-.069-.003a.75.75 0 0 1-.68-.814c.093-1.008.227-2.026.404-3.024a.75.75 0 0 1 1.477.261c-.169.957-.3 1.931-.387 2.898a.75.75 0 0 1-.746.682h.001Zm1.046-5.876a.751.751 0 0 1-.725-.945c.261-.97.57-1.95.918-2.909a.75.75 0 0 1 1.41.51c-.333.92-.628 1.86-.878 2.79a.752.752 0 0 1-.725.554Zm2.03-5.612a.747.747 0 0 1-.682-1.061c.414-.906.876-1.82 1.372-2.72a.75.75 0 1 1 1.314.725 39.312 39.312 0 0 0-1.32 2.618.75.75 0 0 1-.682.438h-.002Zm2.881-5.23a.751.751 0 0 1-.63-1.158 48.44 48.44 0 0 1 1.729-2.495.75.75 0 1 1 1.206.894 47.237 47.237 0 0 0-1.675 2.416.75.75 0 0 1-.631.344l.001-.002Zm3.547-4.809a.75.75 0 0 1-.578-1.229 63.685 63.685 0 0 1 1.989-2.28.75.75 0 0 1 1.108 1.015 61.774 61.774 0 0 0-1.943 2.222.75.75 0 0 1-.577.272h.001Zm4.035-4.408a.748.748 0 0 1-.531-1.28 76.984 76.984 0 0 1 2.179-2.087.75.75 0 1 1 1.018 1.102 74.06 74.06 0 0 0-2.135 2.047.75.75 0 0 1-.531.219v-.001Zm4.391-4.055a.749.749 0 0 1-.49-1.319 94.853 94.853 0 0 1 2.316-1.928.75.75 0 1 1 .942 1.168 97.293 97.293 0 0 0-2.28 1.897.748.748 0 0 1-.489.182h.001Z"/><path fill="url(#paint1_linear_5139_2650)" d="M232.773 55.422a.751.751 0 0 1-.456-1.346c.397-.303.801-.606 1.208-.909a.75.75 0 1 1 .894 1.206c-.404.298-.802.598-1.193.896a.749.749 0 0 1-.454.153h.001Z"/><g filter="url(#filter0_d_5139_2650)"><path fill="#131313" d="m205.998 111.011.068.039-58.927-92.472c-2.815-4.419-6.991-6.83-9.808-5.662l-58.98 24.438.067.04c-.668.306-1.095 1.05-1.095 2.163v91.379c0 2.087 1.476 4.629 3.294 5.68l123.181 71.078c1.82 1.051 3.295.21 3.295-1.876v-91.381c0-1.113-.428-2.351-1.095-3.426Z" opacity=".13"/><path fill="#131313" d="m205.131 110.184.068.04-58.927-92.472c-2.815-4.42-6.991-6.83-9.808-5.662l-58.98 24.438.067.04c-.668.306-1.095 1.049-1.095 2.163v91.379c0 2.087 1.475 4.629 3.294 5.68l123.181 71.078c1.82 1.051 3.295.21 3.295-1.877v-91.38c0-1.113-.428-2.351-1.095-3.427Z" opacity=".14"/><path fill="#131313" d="m204.263 109.36.067.04-58.926-92.473c-2.815-4.418-6.991-6.829-9.808-5.662l-58.98 24.439.067.04c-.668.306-1.095 1.049-1.095 2.163v91.379c0 2.087 1.475 4.629 3.294 5.679l123.181 71.079c1.82 1.051 3.295.21 3.295-1.877v-91.381c0-1.112-.428-2.35-1.095-3.426Z" opacity=".14"/><path fill="#131313" d="m203.396 108.536.067.04-58.925-92.473c-2.816-4.419-6.991-6.829-9.808-5.662L75.75 34.88l.067.04c-.668.305-1.095 1.048-1.095 2.163v91.379c0 2.087 1.475 4.629 3.294 5.679l123.181 71.079c1.82 1.05 3.295.21 3.295-1.877v-91.381c0-1.112-.428-2.35-1.095-3.426h-.001Z" opacity=".15"/><path fill="url(#paint2_linear_5139_2650)" d="m205.075 106.37.074.042-63.708-99.974c-3.044-4.778-7.559-7.383-10.604-6.121l-63.765 26.42.072.043c-.722.331-1.183 1.135-1.183 2.339v98.794c0 2.256 1.594 5.005 3.562 6.14l133.175 76.846c1.968 1.135 3.562.227 3.562-2.03v-98.794c0-1.204-.462-2.541-1.185-3.705Z"/><path fill="url(#paint3_radial_5139_2650)" d="M204.868 210.817v-98.794c0-1.204-.463-2.541-1.185-3.705l.074.042-63.708-99.974c-3.044-4.778-7.559-7.384-10.605-6.123L66.019 28.545c.127-.879.53-1.491 1.126-1.766l-.072-.042L130.838.316c3.045-1.26 7.56 1.345 10.604 6.123l63.708 99.974-.074-.042c.723 1.164 1.185 2.501 1.185 3.705v98.794c0 1.338-.569 2.188-1.437 2.433.019-.159.045-.309.045-.483l-.001-.003Z" style="mix-blend-mode:color-dodge"/><g opacity=".3" style="mix-blend-mode:multiply"><path fill="#A7ADDF" d="M96.982 9.13c-6.543-3.775-11.846-.753-11.846 6.75v93.644c0 7.503 5.303 16.646 11.846 20.421l82.06 46.502c6.543 3.775 14.232.376 14.232-7.127V75.676c0-7.504-7.689-16.269-14.232-20.044L96.982 9.13Z" opacity=".09"/><path fill="#A0A5D9" d="M96.84 9.554c-6.535-3.771-11.832-.752-11.832 6.742v93.145c0 7.494 5.297 16.625 11.831 20.395l81.865 46.39c6.535 3.771 13.979.412 13.979-7.081V76.001c0-7.494-7.444-16.284-13.979-20.055L96.839 9.554Z" opacity=".18"/><path fill="#989CD3" d="M96.695 9.977c-6.527-3.765-11.816-.75-11.816 6.733v92.645c0 7.484 5.29 16.604 11.816 20.37l81.671 46.278c6.526 3.765 13.724.449 13.724-7.035V76.323c0-7.484-7.198-16.302-13.724-20.067L96.694 9.977Z" opacity=".27"/><path fill="#9094CD" d="M96.551 10.403c-6.517-3.76-11.8-.75-11.8 6.724v92.144c0 7.474 5.283 16.583 11.8 20.343l81.477 46.166c6.517 3.76 13.471.486 13.471-6.988V76.648c0-7.474-6.954-16.319-13.471-20.08L96.551 10.404Z" opacity=".36"/><path fill="#898BC7" d="M96.409 10.827c-6.51-3.756-11.787-.75-11.787 6.715v91.645c0 7.465 5.277 16.562 11.787 20.318l81.282 46.053c6.51 3.756 13.218.522 13.218-6.943V76.972c0-7.465-6.708-16.336-13.218-20.091L96.409 10.827Z" opacity=".45"/><path fill="#8183C1" d="M96.264 11.252c-6.5-3.75-11.771-.748-11.771 6.708v91.144c0 7.456 5.27 16.541 11.772 20.292l81.088 45.94c6.501 3.751 12.964.56 12.964-6.896V77.297c0-7.456-6.463-16.352-12.964-20.103L96.264 11.252Z" opacity=".55"/><path fill="#7A7ABB" d="M96.121 11.676c-6.493-3.747-11.755-.747-11.755 6.7v90.643c0 7.447 5.263 16.519 11.755 20.266l80.894 45.829c6.493 3.747 12.71.596 12.71-6.85V77.619c0-7.446-6.217-16.369-12.71-20.114L96.121 11.676Z" opacity=".64"/><path fill="#7272B5" d="M95.978 12.1c-6.484-3.742-11.741-.746-11.741 6.69v90.144c0 7.438 5.257 16.498 11.741 20.24l80.699 45.716c6.484 3.742 12.457.634 12.457-6.804V77.944c0-7.438-5.973-16.386-12.457-20.128L95.978 12.1Z" opacity=".73"/><path fill="#6A69AF" d="M95.834 12.525c-6.477-3.736-11.727-.745-11.727 6.683v89.644c0 7.426 5.25 16.478 11.727 20.215l80.504 45.602c6.477 3.737 12.204.671 12.204-6.757V78.268c0-7.427-5.727-16.402-12.204-20.14L95.834 12.525Z" opacity=".82"/><path fill="#6361A9" d="M95.692 12.951c-6.468-3.732-11.711-.744-11.711 6.674v89.143c0 7.418 5.243 16.458 11.71 20.189l80.312 45.49c6.468 3.733 11.95.706 11.95-6.711V78.594c0-7.418-5.482-16.42-11.95-20.152l-80.311-45.49Z" opacity=".91"/><path fill="#5B58A3" d="M95.547 13.375c-6.46-3.727-11.696-.743-11.696 6.665v88.643c0 7.409 5.236 16.437 11.696 20.164l80.117 45.378c6.46 3.727 11.697.743 11.697-6.665V78.917c0-7.409-5.237-16.437-11.697-20.164L95.547 13.375Z"/></g><path fill="url(#paint4_linear_5139_2650)" d="M187.339 78.164c0-7.434-5.254-16.493-11.736-20.234L95.216 12.396c-6.483-3.74-11.736-.746-11.736 6.688v15.824L187.34 93.945V78.164h-.002Z"/><path fill="#fff" d="m95.216 134.608 80.388 45.535c6.481 3.741 11.736.746 11.736-6.687v-84.74L83.479 29.677v84.698c0 7.433 5.254 16.493 11.736 20.233l.001-.001Z"/><path fill="url(#paint5_radial_5139_2650)" d="M175.604 57.933 95.216 12.398c-6.481-3.74-11.737-.746-11.737 6.688v1.135c0-7.434 5.254-10.428 11.737-6.688l80.388 45.535c6.482 3.741 11.737 12.8 11.737 20.234v-1.135c0-7.434-5.255-16.493-11.737-20.234Z" style="mix-blend-mode:color-dodge"/><path fill="#CED3F4" d="m116.68 115.437-24.865-14.348V45.797l24.865 14.348v55.292Z"/><path fill="url(#paint6_linear_5139_2650)" d="M116.68 71.675 91.815 57.327v-11.53l24.865 14.348v11.53Z"/><path fill="#CED3F4" d="m147.014 132.941-24.865-14.349V63.301l24.865 14.348v55.292ZM177.35 150.445l-24.865-14.348v-55.29l24.865 14.348v55.29Z"/><path fill="url(#paint7_linear_5139_2650)" d="M147.014 89.18 122.149 74.83v-11.53l24.865 14.348v11.53Z"/><path fill="url(#paint8_linear_5139_2650)" d="m177.35 106.685-24.865-14.348v-11.53l24.865 14.348v11.53Z"/><path fill="#131313" d="M141.479 134.263c-3.1 1.284-7.699-1.37-10.798-6.234l-64.72-97.478v93.277c0 2.256 1.594 5.005 3.562 6.14l133.175 76.846c1.968 1.136 3.562.227 3.562-2.029v-93.278l-64.779 22.757-.002-.001Z" opacity=".2"/><path fill="url(#paint9_linear_5139_2650)" d="M141.479 138.349c-3.1 1.284-7.699-1.37-10.798-6.233L65.961 30.551v97.362c0 2.256 1.594 5.005 3.562 6.14l133.175 76.846c1.968 1.136 3.562.227 3.562-2.03v-97.362l-64.779 26.842h-.002Z"/><path fill="url(#paint10_radial_5139_2650)" d="M140.088 140.853c-3.101 1.284-7.699-1.37-10.799-6.234L65.96 30.551l64.721 101.565c3.1 4.863 7.698 7.517 10.799 6.233l64.779-26.842-66.172 29.347.001-.001Z" style="mix-blend-mode:color-dodge"/><path fill="#131313" d="m69.176 133.942-.07-.041 61.18-28.414c2.923-1.214 7.26 1.287 10.183 5.873l61.237 99.055-.07-.041-132.46-76.432Z" opacity=".2"/><path fill="url(#paint11_linear_5139_2650)" d="m69.176 133.943-.07-.04 61.18-25.403c2.923-1.214 7.26 1.287 10.183 5.874l61.237 96.044-.07-.041-132.46-76.434Z"/><path fill="url(#paint12_radial_5139_2650)" d="M139.635 115.835c-2.923-4.587-7.26-7.088-10.183-5.873L70.23 134.551l-1.052-.608-.07-.04 61.18-25.403c2.923-1.214 7.26 1.287 10.183 5.874l61.236 96.044-.07-.041-2.725-1.572-59.277-92.97Z" style="mix-blend-mode:color-dodge"/></g><path fill="url(#paint13_linear_5139_2650)" d="m287 16.287-62.116 29.17 5.894 18.976L287 16.287Z"/><g style="mix-blend-mode:multiply"><path fill="url(#paint14_linear_5139_2650)" d="m287 16.287-62.116 29.17 5.894 18.976L287 16.287Z"/></g><path fill="url(#paint15_linear_5139_2650)" d="m287 16.287-62.116 29.17-10.343.71-6.121-5.666L287 16.287Z"/><path fill="url(#paint16_linear_5139_2650)" d="m286.999 16.287-50.326 36.024-5.895 12.122 56.221-48.146Z"/><g style="mix-blend-mode:multiply"><path fill="url(#paint17_linear_5139_2650)" d="m286.999 16.287-50.326 36.024-5.895 12.122 56.221-48.146Z"/></g><path fill="url(#paint18_linear_5139_2650)" d="m287 16.287-50.327 36.024 7.848 8.639 9.635 3.512L287 16.287Z"/><path fill="url(#paint19_linear_5139_2650)" d="m254.156 64.46-9.635-3.511-7.848-8.639-5.895 12.122-5.894-18.976-10.343.709-6.121-5.665 6.348 5.495 10.293-.609 5.774 18.252 5.838-11.328 7.877 8.27 9.606 3.88Z"/><path fill="#3D80FF" d="M77.445 216.856a.749.749 0 1 1-.001-1.499c.939 0 1.913-.064 2.901-.186a.75.75 0 1 1 .186 1.487 25.161 25.161 0 0 1-3.085.198Zm-2.988-.201a.75.75 0 0 1-.106-.006 19.977 19.977 0 0 1-3.04-.671.75.75 0 0 1 .438-1.433c.9.274 1.847.483 2.81.618a.75.75 0 0 1-.102 1.492Zm8.932-.52a.75.75 0 0 1-.169-1.479 33.368 33.368 0 0 0 2.825-.793.75.75 0 1 1 .467 1.425c-.99.325-1.983.603-2.951.828a.778.778 0 0 1-.17.019h-.002Zm-14.64-1.234a.741.741 0 0 1-.334-.079 18.708 18.708 0 0 1-2.665-1.626.751.751 0 0 1 .887-1.212 17.045 17.045 0 0 0 2.449 1.496.75.75 0 0 1-.336 1.42l-.001.001Zm20.342-.62a.75.75 0 0 1-.286-1.444 46.228 46.228 0 0 0 2.69-1.217.75.75 0 1 1 .663 1.346c-.933.457-1.866.881-2.777 1.258a.767.767 0 0 1-.288.057h-.002Zm-25.165-2.9a.747.747 0 0 1-.533-.223 21.48 21.48 0 0 1-2.016-2.362.751.751 0 0 1 1.21-.89c.58.788 1.211 1.527 1.873 2.198a.749.749 0 0 1-.534 1.276v.001Zm-3.559-4.803a.747.747 0 0 1-.656-.385 27.444 27.444 0 0 1-1.34-2.776.75.75 0 1 1 1.385-.577c.381.916.808 1.799 1.266 2.623a.75.75 0 0 1-.654 1.114v.001Zm-2.319-5.519a.75.75 0 0 1-.717-.531c-.29-.948-.55-1.944-.767-2.966a.75.75 0 1 1 1.467-.315c.21.979.457 1.935.734 2.84a.748.748 0 0 1-.717.969v.003Zm-1.265-5.858a.75.75 0 0 1-.742-.651 44.166 44.166 0 0 1-.301-3.035.75.75 0 0 1 .7-.798.76.76 0 0 1 .797.7c.066.996.164 1.984.29 2.934a.748.748 0 0 1-.744.849v.001Zm-.394-6.033c-.414 0-.75-.287-.75-.7 0-1.059.028-2.049.084-3.039a.75.75 0 0 1 1.498.083 51.01 51.01 0 0 0-.08 2.857c0 .415-.335.799-.75.799h-.002Zm.333-5.937c-.028 0-.054 0-.083-.005a.75.75 0 0 1-.663-.828c.107-.982.246-1.994.408-3.009a.75.75 0 0 1 1.482.238c-.16.988-.293 1.977-.399 2.935a.75.75 0 0 1-.745.668v.001Zm.929-5.927a.746.746 0 0 1-.737-.89c.19-1 .39-1.985.587-2.951a.747.747 0 0 1 .885-.584c.407.084.668.48.584.885-.197.959-.394 1.936-.584 2.931a.75.75 0 0 1-.735.61v-.001Zm1.183-5.883a.75.75 0 0 1-.737-.895c.197-.992.382-1.968.544-2.927a.745.745 0 0 1 .865-.614.748.748 0 0 1 .614.864 99.302 99.302 0 0 1-.552 2.969.748.748 0 0 1-.734.604v-.001Zm.97-5.917c-.029 0-.055 0-.084-.005a.748.748 0 0 1-.663-.828 31.09 31.09 0 0 0 .193-2.922.75.75 0 1 1 1.5.024c-.016.966-.08 1.968-.202 3.062a.75.75 0 0 1-.745.668v.001Zm.057-5.984a.75.75 0 0 1-.744-.667 18.18 18.18 0 0 0-.545-2.822.75.75 0 1 1 1.447-.402c.273.982.47 2.01.589 3.057a.75.75 0 0 1-.662.829c-.028.002-.057.005-.085.005Zm-1.607-5.744a.75.75 0 0 1-.68-.432 18.708 18.708 0 0 0-1.423-2.501.75.75 0 1 1 1.245-.838 20.167 20.167 0 0 1 1.537 2.702.748.748 0 0 1-.678 1.067v.002Zm-3.313-4.971a.752.752 0 0 1-.565-.256 29.093 29.093 0 0 0-2.038-2.092.75.75 0 1 1 1.022-1.098 30.063 30.063 0 0 1 2.145 2.202.75.75 0 0 1-.564 1.244Zm-4.369-4.095a.738.738 0 0 1-.466-.164 47.78 47.78 0 0 0-2.37-1.759.75.75 0 1 1 .86-1.23c.86.599 1.683 1.21 2.445 1.816a.749.749 0 0 1-.467 1.337h-.002Zm-4.91-3.44a.744.744 0 0 1-.397-.115 74.156 74.156 0 0 0-2.548-1.522.75.75 0 0 1 .744-1.302 75.894 75.894 0 0 1 2.6 1.553.75.75 0 0 1-.399 1.385v.001Zm-5.204-2.981a.737.737 0 0 1-.35-.088 110.4 110.4 0 0 0-2.653-1.355.75.75 0 1 1 .665-1.344c.933.461 1.828.919 2.688 1.373a.751.751 0 0 1-.352 1.414h.002Zm-5.375-2.661a.753.753 0 0 1-.316-.07c-.877-.408-1.781-.82-2.719-1.233a.75.75 0 1 1 .608-1.37c.944.418 1.86.833 2.744 1.245a.748.748 0 0 1-.318 1.429l.001-.001Zm-5.466-2.474a.733.733 0 0 1-.314-.07c-.935-.431-1.843-.862-2.726-1.289a.752.752 0 0 1-.347-1.003.753.753 0 0 1 1.003-.347c.873.425 1.774.85 2.698 1.277.377.174.54.619.366.995a.749.749 0 0 1-.681.436l.001.001Zm-5.399-2.622a.747.747 0 0 1-.34-.083c-.92-.472-1.81-.943-2.67-1.411a.75.75 0 1 1 .72-1.316c.847.463 1.725.928 2.634 1.393a.75.75 0 0 1-.343 1.417Zm-5.265-2.874a.743.743 0 0 1-.377-.103 92.601 92.601 0 0 1-2.589-1.566.75.75 0 1 1 .8-1.269 93.29 93.29 0 0 0 2.544 1.541.75.75 0 0 1-.379 1.397h.001Zm-5.075-3.199a.754.754 0 0 1-.424-.132 65.32 65.32 0 0 1-2.461-1.774.753.753 0 0 1-.144-1.052.754.754 0 0 1 1.052-.144 60.2 60.2 0 0 0 2.404 1.733.75.75 0 0 1-.427 1.368v.001Zm-4.767-3.635a.742.742 0 0 1-.489-.181 41.611 41.611 0 0 1-2.246-2.069.749.749 0 1 1 1.059-1.061 40.297 40.297 0 0 0 2.164 1.993.749.749 0 0 1-.488 1.318Zm-4.23-4.239a.745.745 0 0 1-.577-.272c-.688-.829-1.301-1.67-1.824-2.497a.748.748 0 0 1 .234-1.034.748.748 0 0 1 1.034.234c.49.775 1.064 1.561 1.711 2.341a.75.75 0 0 1-.578 1.228Zm-3.158-5.071a.75.75 0 0 1-.693-.463 14.443 14.443 0 0 1-.891-3.027.751.751 0 0 1 .611-.867.758.758 0 0 1 .868.611c.154.89.422 1.8.799 2.708a.751.751 0 0 1-.695 1.038h.001Zm-.974-5.852c-.023 0-.044 0-.066-.003a.749.749 0 0 1-.682-.813c.091-1.042.324-2.086.69-3.102a.75.75 0 0 1 .96-.453c.39.142.591.571.453.96a10.82 10.82 0 0 0-.606 2.724.75.75 0 0 1-.747.685l-.002.002Zm1.971-5.597a.747.747 0 0 1-.634-1.15 18.486 18.486 0 0 1 1.894-2.48.75.75 0 0 1 1.116 1.001 16.988 16.988 0 0 0-1.74 2.28.75.75 0 0 1-.636.349Zm3.971-4.467a.75.75 0 0 1-.489-1.319 30.132 30.132 0 0 1 2.441-1.874.75.75 0 1 1 .856 1.233 28.865 28.865 0 0 0-2.319 1.78.748.748 0 0 1-.489.18Zm4.921-3.43a.749.749 0 0 1-.375-1.399 42.951 42.951 0 0 1 2.702-1.428.75.75 0 1 1 .655 1.349c-.903.437-1.78.9-2.608 1.377a.735.735 0 0 1-.374.1v.002Zm5.399-2.623a.75.75 0 0 1-.284-1.446c.93-.38 1.89-.739 2.854-1.067a.75.75 0 1 1 .485 1.419c-.936.319-1.87.667-2.773 1.037a.739.739 0 0 1-.284.055l.002.002Zm5.68-1.94a.75.75 0 0 1-.199-1.474 50.59 50.59 0 0 1 2.961-.727.75.75 0 1 1 .313 1.466c-.947.203-1.913.44-2.873.707a.746.746 0 0 1-.201.028Zm5.875-1.248a.75.75 0 0 1-.106-1.493 37.085 37.085 0 0 1 3.048-.316.764.764 0 0 1 .794.703.75.75 0 0 1-.704.793c-.934.056-1.918.159-2.925.303a.74.74 0 0 1-.107.008v.002Zm8.988-.212h-.01a61.787 61.787 0 0 1-2.968-.111l-.02-.753.069-.747c1.005.063 1.978.1 2.94.111a.75.75 0 0 1-.01 1.501l-.001-.001Zm3.002-.04a.75.75 0 0 1-.03-1.5c1.007-.041 1.998-.11 2.95-.205.384-.05.779.258.82.672a.749.749 0 0 1-.673.82c-.978.098-2 .17-3.036.212h-.032v.001Zm5.967-.604a.749.749 0 0 1-.124-1.49c.998-.17 1.968-.371 2.88-.601a.75.75 0 0 1 .367 1.454c-.952.24-1.96.45-2.997.625a.675.675 0 0 1-.126.01v.002Zm5.812-1.481a.75.75 0 0 1-.253-1.456c.95-.34 1.849-.722 2.671-1.14a.75.75 0 0 1 .677 1.338c-.879.446-1.835.854-2.844 1.214a.745.745 0 0 1-.253.044h.002Zm5.32-2.735a.75.75 0 0 1-.447-1.354 12.53 12.53 0 0 0 2.079-1.909.752.752 0 0 1 1.058-.08c.314.269.35.743.08 1.057a14.04 14.04 0 0 1-2.327 2.138.745.745 0 0 1-.445.147l.002.001Zm3.802-4.543a.75.75 0 0 1-.687-1.052 8.58 8.58 0 0 0 .685-2.656.761.761 0 0 1 .818-.677c.412.04.715.406.677.817a10.09 10.09 0 0 1-.807 3.118.75.75 0 0 1-.686.449v.001Zm.602-5.87a.752.752 0 0 1-.738-.618 14.287 14.287 0 0 0-.798-2.727.752.752 0 0 1 .42-.974.752.752 0 0 1 .974.42c.409 1.026.706 2.041.881 3.015a.751.751 0 0 1-.74.883Zm-2.153-5.561a.748.748 0 0 1-.65-.377 28.267 28.267 0 0 0-1.592-2.447.749.749 0 1 1 1.215-.879c.63.872 1.194 1.739 1.677 2.578a.752.752 0 0 1-.65 1.123v.002Zm-3.491-4.868a.75.75 0 0 1-.572-.264 47.94 47.94 0 0 0-1.985-2.187.749.749 0 1 1 1.082-1.039c.732.762 1.42 1.52 2.044 2.256a.748.748 0 0 1-.572 1.234h.003Zm-4.148-4.328a.746.746 0 0 1-.516-.204 72.862 72.862 0 0 0-2.202-1.99.749.749 0 1 1 .982-1.133 72.647 72.647 0 0 1 2.25 2.031.75.75 0 0 1-.514 1.295v.001Zm-4.527-3.937a.74.74 0 0 1-.472-.168c-.749-.605-1.53-1.218-2.343-1.837a.752.752 0 0 1 .912-1.193c.825.63 1.617 1.251 2.375 1.865a.749.749 0 0 1-.472 1.333Zm-4.77-3.637a.743.743 0 0 1-.439-.143c-.786-.569-1.598-1.14-2.438-1.72a.75.75 0 1 1 .852-1.234c.85.585 1.672 1.165 2.466 1.74a.748.748 0 0 1-.441 1.357Zm-4.94-3.408a.748.748 0 0 1-.413-.125 155.563 155.563 0 0 0-2.506-1.623.75.75 0 1 1 .804-1.266c.868.55 1.71 1.097 2.53 1.638a.752.752 0 0 1-.414 1.377v-.001Zm-5.064-3.218a.74.74 0 0 1-.394-.112l-.342-.209a130.9 130.9 0 0 1-2.214-1.383.748.748 0 1 1 .807-1.263c.708.451 1.437.907 2.19 1.367l.35.214a.75.75 0 0 1-.397 1.387v-.001Zm-5.053-3.238a.756.756 0 0 1-.42-.13 91.488 91.488 0 0 1-2.476-1.739.75.75 0 1 1 .884-1.213 92.902 92.902 0 0 0 2.435 1.712.749.749 0 0 1-.424 1.37h.002Zm-4.846-3.536a.744.744 0 0 1-.465-.162 63.052 63.052 0 0 1-2.336-1.939.748.748 0 0 1-.071-1.057.748.748 0 0 1 1.057-.071c.715.623 1.482 1.259 2.281 1.892a.75.75 0 0 1-.468 1.337h.002Zm-4.507-3.955a.754.754 0 0 1-.529-.217 37.923 37.923 0 0 1-2.089-2.237.75.75 0 0 1 1.141-.974c.597.698 1.272 1.42 2.005 2.145a.751.751 0 0 1-.528 1.283Zm77.256-4.149a.738.738 0 0 1-.38-.104 132.998 132.998 0 0 0-2.588-1.488.75.75 0 0 1-.287-1.021.756.756 0 0 1 1.022-.288c.873.49 1.744.992 2.615 1.505.357.21.475.67.264 1.027a.75.75 0 0 1-.647.37Zm-81.123-.42a.749.749 0 0 1-.623-.332 18.046 18.046 0 0 1-1.53-2.727.75.75 0 1 1 1.371-.608c.36.809.832 1.648 1.403 2.497a.75.75 0 0 1-.622 1.17h.001Zm75.89-2.516a.734.734 0 0 1-.352-.089c-.882-.471-1.765-.929-2.649-1.374a.751.751 0 0 1 .675-1.341c.893.452 1.785.915 2.678 1.39a.751.751 0 0 1-.353 1.412v.002Zm-5.358-2.706a.759.759 0 0 1-.322-.073c-.904-.431-1.807-.851-2.708-1.259a.75.75 0 1 1 .62-1.366c.91.413 1.822.837 2.735 1.272a.75.75 0 0 1-.324 1.427l-.001-.001Zm-72.863-.252a.749.749 0 0 1-.74-.639 8.954 8.954 0 0 1-.102-1.332c0-.658.078-1.31.23-1.932a.75.75 0 1 1 1.458.359 6.54 6.54 0 0 0-.188 1.573c0 .363.027.737.084 1.109a.749.749 0 0 1-.742.862Zm67.395-2.22a.772.772 0 0 1-.294-.06c-.922-.392-1.842-.772-2.76-1.143a.748.748 0 0 1-.415-.975.752.752 0 0 1 .976-.414c.927.372 1.857.756 2.788 1.152a.75.75 0 0 1-.295 1.44Zm-5.573-2.232a.77.77 0 0 1-.264-.048c-.937-.352-1.872-.693-2.803-1.017a.75.75 0 1 1 .495-1.416c.943.328 1.89.673 2.837 1.029a.75.75 0 0 1-.264 1.452Zm-60.41-1.197a.75.75 0 0 1-.598-1.202c.606-.803 1.382-1.553 2.305-2.229a.75.75 0 1 1 .885 1.212c-.804.587-1.475 1.234-1.993 1.92a.75.75 0 0 1-.6.299Zm54.746-.79a.749.749 0 0 1-.232-.037c-.955-.31-1.903-.607-2.849-.892a.75.75 0 1 1 .434-1.436c.954.288 1.913.588 2.879.903a.749.749 0 0 1-.233 1.462h.001Zm-5.747-1.729a.745.745 0 0 1-.2-.027c-.967-.267-1.93-.52-2.885-.76a.75.75 0 1 1 .363-1.455c.967.242 1.94.498 2.92.768a.749.749 0 0 1-.198 1.472v.002Zm-44.26-1.066a.75.75 0 0 1-.323-1.428 23.74 23.74 0 0 1 2.885-1.127.75.75 0 1 1 .46 1.428 22.26 22.26 0 0 0-2.702 1.054.747.747 0 0 1-.32.073Zm38.438-.39a.703.703 0 0 1-.165-.02 120.81 120.81 0 0 0-2.919-.616.75.75 0 1 1 .29-1.47c.977.193 1.963.4 2.956.624a.749.749 0 0 1-.162 1.481Zm-5.89-1.166a.687.687 0 0 1-.127-.01c-.993-.17-1.975-.325-2.946-.463a.747.747 0 0 1-.637-.847.736.736 0 0 1 .848-.636c.984.14 1.98.296 2.987.467a.751.751 0 0 1-.124 1.489h-.001ZM24.2 10.04a.75.75 0 0 1-.16-1.482c.957-.21 1.968-.393 3.006-.544a.75.75 0 1 1 .215 1.485 41.324 41.324 0 0 0-2.898.524.76.76 0 0 1-.163.017Zm20.919-.533a.62.62 0 0 1-.085-.005 94.641 94.641 0 0 0-2.965-.285.752.752 0 0 1-.688-.81c.035-.413.398-.703.81-.687.988.08 1.991.177 3.01.29a.75.75 0 0 1-.082 1.496Zm-14.985-.34a.75.75 0 0 1-.064-1.496 61.81 61.81 0 0 1 3.035-.182c.423.006.762.31.777.723a.752.752 0 0 1-.724.776 60.48 60.48 0 0 0-2.958.176l-.066.002v.002Zm9-.138h-.036a79.357 79.357 0 0 0-2.971-.08.748.748 0 0 1 .005-1.5h.005c.99.007 2 .035 3.03.082a.75.75 0 0 1-.033 1.498Z"/><path fill="#fff" d="M103.273 32.829c1.36-.795 1.346-3.348-.031-5.702s-3.596-3.618-4.956-2.824c-1.36.795-1.346 3.348.03 5.702 1.378 2.354 3.596 3.618 4.957 2.824Z"/><defs><linearGradient id="paint0_linear_5139_2650" x1="246.976" x2="201.504" y1="30.343" y2="191.84" gradientUnits="userSpaceOnUse"><stop offset=".02" stop-color="#FFE585"/><stop offset=".1" stop-color="#DBED70"/><stop offset=".18" stop-color="#B4F759"/><stop offset=".22" stop-color="#90ED6E"/><stop offset=".33" stop-color="#35D5A4"/><stop offset=".38" stop-color="#00C7C5"/><stop offset=".52" stop-color="#2D9BE0"/><stop offset=".64" stop-color="#5277F7"/><stop offset=".68" stop-color="#5A76F6"/><stop offset=".73" stop-color="#7273F5"/><stop offset=".8" stop-color="#9970F4"/><stop offset=".85" stop-color="#BB6DF3"/><stop offset="1" stop-color="#F36DD4"/></linearGradient><linearGradient id="paint1_linear_5139_2650" x1="240.609" x2="195.134" y1="28.551" y2="190.048" gradientUnits="userSpaceOnUse"><stop offset=".02" stop-color="#FFE585"/><stop offset=".1" stop-color="#DBED70"/><stop offset=".18" stop-color="#B4F759"/><stop offset=".22" stop-color="#90ED6E"/><stop offset=".33" stop-color="#35D5A4"/><stop offset=".38" stop-color="#00C7C5"/><stop offset=".52" stop-color="#2D9BE0"/><stop offset=".64" stop-color="#5277F7"/><stop offset=".68" stop-color="#5A76F6"/><stop offset=".73" stop-color="#7273F5"/><stop offset=".8" stop-color="#9970F4"/><stop offset=".85" stop-color="#BB6DF3"/><stop offset="1" stop-color="#F36DD4"/></linearGradient><linearGradient id="paint2_linear_5139_2650" x1="144.001" x2="117.211" y1="168.723" y2="-.303" gradientUnits="userSpaceOnUse"><stop offset=".14" stop-color="#1049B3"/><stop offset=".52" stop-color="#3D80FF"/><stop offset=".8" stop-color="#1049B3"/><stop offset="1" stop-color="#3D80FF"/></linearGradient><linearGradient id="paint4_linear_5139_2650" x1="83.478" x2="187.339" y1="52.366" y2="52.366" gradientUnits="userSpaceOnUse"><stop offset=".03" stop-color="#E5F1FF"/><stop offset="1" stop-color="#1049B3"/></linearGradient><linearGradient id="paint6_linear_5139_2650" x1="27.895" x2="118.235" y1="7.087" y2="68.265" gradientUnits="userSpaceOnUse"><stop stop-color="#E5F1FF"/><stop offset="1" stop-color="#1049B3" stop-opacity=".4"/></linearGradient><linearGradient id="paint7_linear_5139_2650" x1="58.229" x2="148.569" y1="24.59" y2="85.769" gradientUnits="userSpaceOnUse"><stop stop-color="#E5F1FF"/><stop offset="1" stop-color="#1049B3" stop-opacity=".4"/></linearGradient><linearGradient id="paint8_linear_5139_2650" x1="88.565" x2="178.905" y1="42.096" y2="103.275" gradientUnits="userSpaceOnUse"><stop stop-color="#E5F1FF"/><stop offset="1" stop-color="#1049B3" stop-opacity=".4"/></linearGradient><linearGradient id="paint9_linear_5139_2650" x1="-6.768" x2="54.652" y1="132.476" y2="36.112" gradientUnits="userSpaceOnUse"><stop offset=".09" stop-color="#E5E9FF"/><stop offset=".37" stop-color="#CED3F4"/><stop offset=".51" stop-color="#DDE1FB"/><stop offset=".57" stop-color="#E5E9FF"/><stop offset=".77" stop-color="#ECEEFF"/><stop offset="1" stop-color="#FBFBFF"/></linearGradient><linearGradient id="paint11_linear_5139_2650" x1="113.894" x2="164.397" y1="209.83" y2="121.297" gradientUnits="userSpaceOnUse"><stop offset=".09" stop-color="#E5E9FF"/><stop offset=".37" stop-color="#CED3F4"/><stop offset=".51" stop-color="#DDE1FB"/><stop offset=".57" stop-color="#E5E9FF"/><stop offset=".77" stop-color="#ECEEFF"/><stop offset="1" stop-color="#FBFBFF"/></linearGradient><linearGradient id="paint13_linear_5139_2650" x1="145.962" x2="286.088" y1="98.887" y2="81.759" gradientUnits="userSpaceOnUse"><stop offset=".14" stop-color="#1049B3"/><stop offset=".422" stop-color="#2F66CB"/><stop offset=".8" stop-color="#2166E8"/><stop offset="1" stop-color="#9ABDFF"/></linearGradient><linearGradient id="paint14_linear_5139_2650" x1="145.962" x2="286.088" y1="98.887" y2="81.759" gradientUnits="userSpaceOnUse"><stop offset=".14" stop-color="#1049B3"/><stop offset=".422" stop-color="#2F66CB"/><stop offset=".8" stop-color="#2166E8"/><stop offset="1" stop-color="#9ABDFF"/></linearGradient><linearGradient id="paint15_linear_5139_2650" x1="108.579" x2="277.978" y1="67.548" y2="25.341" gradientUnits="userSpaceOnUse"><stop offset=".14" stop-color="#1049B3"/><stop offset=".422" stop-color="#2F66CB"/><stop offset=".8" stop-color="#2166E8"/><stop offset="1" stop-color="#9ABDFF"/></linearGradient><linearGradient id="paint16_linear_5139_2650" x1="159.344" x2="286.512" y1="98.887" y2="84.818" gradientUnits="userSpaceOnUse"><stop offset=".14" stop-color="#1049B3"/><stop offset=".422" stop-color="#2F66CB"/><stop offset=".8" stop-color="#2166E8"/><stop offset="1" stop-color="#9ABDFF"/></linearGradient><linearGradient id="paint17_linear_5139_2650" x1="159.344" x2="286.512" y1="98.887" y2="84.818" gradientUnits="userSpaceOnUse"><stop offset=".14" stop-color="#1049B3"/><stop offset=".422" stop-color="#2F66CB"/><stop offset=".8" stop-color="#2166E8"/><stop offset="1" stop-color="#9ABDFF"/></linearGradient><linearGradient id="paint18_linear_5139_2650" x1="172.729" x2="286.839" y1="98.937" y2="87.643" gradientUnits="userSpaceOnUse"><stop offset=".14" stop-color="#1049B3"/><stop offset=".422" stop-color="#2F66CB"/><stop offset=".8" stop-color="#2166E8"/><stop offset="1" stop-color="#9ABDFF"/></linearGradient><linearGradient id="paint19_linear_5139_2650" x1="150.309" x2="251.71" y1="81.607" y2="63.27" gradientUnits="userSpaceOnUse"><stop offset=".14" stop-color="#1049B3"/><stop offset=".422" stop-color="#2F66CB"/><stop offset=".8" stop-color="#2166E8"/><stop offset="1" stop-color="#9ABDFF"/></linearGradient><radialGradient id="paint3_radial_5139_2650" cx="0" cy="0" r="1" gradientTransform="matrix(-56.8173 0 0 -56.7858 149.786 49.148)" gradientUnits="userSpaceOnUse"><stop stop-color="#fff"/><stop offset=".07" stop-color="#D8D8D8"/><stop offset=".16" stop-color="#A5A5A5"/><stop offset=".26" stop-color="#797979"/><stop offset=".37" stop-color="#545454"/><stop offset=".47" stop-color="#353535"/><stop offset=".59" stop-color="#1D1D1D"/><stop offset=".7" stop-color="#0D0D0D"/><stop offset=".84" stop-color="#030303"/><stop offset="1"/></radialGradient><radialGradient id="paint5_radial_5139_2650" cx="0" cy="0" r="1" gradientTransform="matrix(95.9968 0 0 95.9434 135.41 45.044)" gradientUnits="userSpaceOnUse"><stop stop-color="#711F56"/><stop offset=".16" stop-color="#6B1D51"/><stop offset=".36" stop-color="#5C1946"/><stop offset=".58" stop-color="#421232"/><stop offset=".82" stop-color="#1F0818"/><stop offset="1"/></radialGradient><radialGradient id="paint10_radial_5139_2650" cx="0" cy="0" r="1" gradientTransform="matrix(-43.8253 0 0 -43.801 158.669 70.19)" gradientUnits="userSpaceOnUse"><stop stop-color="#fff"/><stop offset=".07" stop-color="#D8D8D8"/><stop offset=".16" stop-color="#A5A5A5"/><stop offset=".26" stop-color="#797979"/><stop offset=".37" stop-color="#545454"/><stop offset=".47" stop-color="#353535"/><stop offset=".59" stop-color="#1D1D1D"/><stop offset=".7" stop-color="#0D0D0D"/><stop offset=".84" stop-color="#030303"/><stop offset="1"/></radialGradient><radialGradient id="paint12_radial_5139_2650" cx="0" cy="0" r="1" gradientTransform="matrix(-39.2164 0 0 -39.1946 148.357 153.67)" gradientUnits="userSpaceOnUse"><stop stop-color="#fff"/><stop offset=".07" stop-color="#D8D8D8"/><stop offset=".16" stop-color="#A5A5A5"/><stop offset=".26" stop-color="#797979"/><stop offset=".37" stop-color="#545454"/><stop offset=".47" stop-color="#353535"/><stop offset=".59" stop-color="#1D1D1D"/><stop offset=".7" stop-color="#0D0D0D"/><stop offset=".84" stop-color="#030303"/><stop offset="1"/></radialGradient><filter id="filter0_d_5139_2650" width="171.133" height="241.389" x="65.96" y="-11" color-interpolation-filters="sRGB" filterUnits="userSpaceOnUse"><feFlood flood-opacity="0" result="BackgroundImageFix"/><feColorMatrix in="SourceAlpha" result="hardAlpha" type="matrix" values="0 0 0 0 0 0 0 0 0 0 0 0 0 0 0 0 0 0 127 0"/><feOffset dx="15" dy="4"/><feGaussianBlur stdDeviation="7.5"/><feComposite in2="hardAlpha" operator="out"/><feColorMatrix type="matrix" values="0 0 0 0 0 0 0 0 0 0.348572 0 0 0 0 1 0 0 0 0.16 0"/><feBlend in2="BackgroundImageFix" mode="normal" result="effect1_dropShadow_5139_2650"/><feBlend in="SourceGraphic" in2="effect1_dropShadow_5139_2650" mode="normal" result="shape"/></filter></defs></svg>