<svg xmlns="http://www.w3.org/2000/svg" width="500" height="313" fill="none" viewBox="0 0 500 313"><g clip-path="url(#clip0_4649_69922)"><path fill="#A5C4FF" d="M469.697 226.732s-.217.028-.632.056c-.414.047-1.045.038-1.846.16-1.61.207-4.003.735-6.715 2.251-2.704 1.506-5.548 4.114-8.195 7.626-2.694 3.493-5.218 7.842-8.289 12.475-1.544 2.306-3.259 4.688-5.359 6.901-2.091 2.193-4.625 4.265-7.714 5.47-1.517.668-3.174.998-4.879 1.243-.848.056-1.677.122-2.562.122-.867-.066-1.743-.028-2.609-.207-.434-.066-.867-.141-1.309-.207l-1.291-.349-.65-.179-.631-.244c-.414-.17-.838-.32-1.253-.499a22.624 22.624 0 0 1-4.615-2.957c-2.835-2.4-5.19-5.404-7.347-8.595-2.176-3.183-4.172-6.563-6.433-9.849-1.121-1.647-2.308-3.267-3.626-4.801-1.3-1.544-2.741-2.994-4.371-4.228-1.629-1.223-3.419-2.278-5.378-2.937-1.968-.65-4.003-.96-6.141-.998-2.072.038-4.163.339-6.122.989-1.96.668-3.759 1.704-5.388 2.937-1.639 1.224-3.071 2.683-4.38 4.218-1.309 1.535-2.505 3.154-3.626 4.802-2.251 3.285-4.258 6.675-6.433 9.857-2.157 3.182-4.512 6.195-7.347 8.596a23.063 23.063 0 0 1-4.616 2.966c-.414.179-.838.339-1.252.508l-.631.245-.65.179-1.291.348c-.442.066-.876.141-1.318.207-.876.179-1.733.142-2.59.207-.876 0-1.734-.056-2.581-.122-1.686-.245-3.353-.574-4.87-1.243-3.089-1.205-5.623-3.276-7.714-5.47-2.101-2.212-3.815-4.594-5.359-6.901-3.071-4.642-5.595-8.991-8.289-12.475-2.647-3.512-5.491-6.12-8.195-7.626-2.703-1.506-5.105-2.034-6.706-2.241-.81-.122-1.432-.113-1.856-.16-.414-.028-.631-.056-.631-.056s.857-.029 2.487.113c1.62.179 4.05.678 6.8 2.174 2.741 1.497 5.633 4.115 8.317 7.627 2.723 3.493 5.275 7.842 8.355 12.456 1.554 2.297 3.259 4.651 5.35 6.835 2.082 2.165 4.568 4.18 7.592 5.357 5.953 2.429 13.836 1.61 19.346-3.258 2.779-2.363 5.105-5.338 7.253-8.511 2.166-3.163 4.154-6.553 6.424-9.867 1.121-1.657 2.326-3.295 3.654-4.848 1.319-1.563 2.779-3.041 4.456-4.294 1.657-1.252 3.503-2.325 5.519-3.012 2.025-.669 4.135-.979 6.311-1.017 2.1.038 4.276.348 6.273 1.026 2.015.687 3.852 1.761 5.519 3.013 1.668 1.252 3.127 2.73 4.446 4.293a52.162 52.162 0 0 1 3.645 4.849c2.261 3.304 4.258 6.694 6.424 9.857 2.148 3.173 4.474 6.148 7.253 8.511 5.5 4.868 13.422 5.678 19.346 3.249 3.024-1.177 5.51-3.192 7.592-5.357 2.082-2.175 3.796-4.539 5.35-6.836 3.08-4.613 5.633-8.963 8.355-12.456 2.684-3.512 5.576-6.129 8.317-7.626 2.75-1.497 5.171-1.996 6.791-2.175 1.629-.141 2.496-.113 2.496-.113l.019-.009ZM183.67 50.68s-.216.029-.631.057c-.414.047-1.045.038-1.846.15-1.61.208-4.003.735-6.716 2.25-2.703 1.507-5.547 4.115-8.194 7.627-2.694 3.493-5.218 7.842-8.289 12.475-1.544 2.306-3.259 4.688-5.359 6.9-2.091 2.195-4.625 4.266-7.714 5.47-1.517.67-3.175.999-4.879 1.244-.848.056-1.677.122-2.562.122-.867-.066-1.743-.028-2.609-.207-.434-.066-.867-.141-1.31-.207l-1.29-.349-.65-.178-.631-.245c-.414-.17-.838-.32-1.253-.5a22.599 22.599 0 0 1-4.615-2.956c-2.835-2.4-5.19-5.404-7.347-8.595-2.176-3.183-4.172-6.563-6.433-9.848-1.111-1.648-2.308-3.267-3.626-4.802-1.3-1.544-2.741-2.994-4.371-4.227-1.629-1.224-3.419-2.279-5.378-2.938-1.969-.65-4.003-.96-6.141-.998-2.072.038-4.163.34-6.122.989-1.96.668-3.759 1.704-5.388 2.937-1.64 1.224-3.07 2.683-4.38 4.218-1.31 1.535-2.506 3.154-3.626 4.802-2.252 3.285-4.258 6.675-6.434 9.857-2.157 3.183-4.511 6.195-7.346 8.596a23.052 23.052 0 0 1-4.616 2.966c-.414.179-.838.339-1.252.499l-.631.245-.65.178-1.29.349c-.443.066-.877.141-1.32.207-.875.179-1.733.141-2.59.207a32.92 32.92 0 0 1-2.58-.122c-1.686-.245-3.354-.575-4.87-1.243-3.09-1.205-5.623-3.276-7.714-5.47-2.1-2.213-3.815-4.595-5.36-6.901-3.07-4.642-5.595-8.992-8.288-12.475-2.647-3.512-5.492-6.12-8.195-7.626-2.703-1.507-5.105-2.034-6.706-2.25-.81-.123-1.432-.113-1.856-.151-.414-.028-.63-.057-.63-.057s.866-.028 2.495.113c1.62.18 4.05.678 6.8 2.175 2.742 1.497 5.633 4.114 8.318 7.626 2.722 3.493 5.274 7.843 8.354 12.456 1.554 2.298 3.26 4.651 5.35 6.836 2.082 2.165 4.569 4.18 7.592 5.357 5.953 2.429 13.837 1.61 19.347-3.258 2.778-2.363 5.105-5.338 7.252-8.511 2.167-3.163 4.154-6.553 6.424-9.867 1.12-1.657 2.326-3.295 3.655-4.849 1.318-1.563 2.778-3.04 4.455-4.293 1.657-1.252 3.504-2.325 5.52-3.013 2.024-.668 4.134-.979 6.31-1.017 2.1.038 4.267.349 6.273 1.027 2.016.687 3.852 1.76 5.52 3.013 1.667 1.252 3.127 2.73 4.445 4.293 1.328 1.553 2.534 3.191 3.646 4.849 2.26 3.304 4.257 6.694 6.423 9.857 2.148 3.173 4.474 6.148 7.253 8.511 5.501 4.868 13.422 5.677 19.347 3.248 3.023-1.177 5.51-3.191 7.591-5.357 2.082-2.175 3.796-4.538 5.35-6.835 3.08-4.613 5.633-8.963 8.355-12.456 2.684-3.512 5.576-6.13 8.317-7.626 2.75-1.497 5.171-1.996 6.791-2.175 1.629-.141 2.496-.113 2.496-.113l.009.01Z"/><g opacity=".4"><path fill="#BBD3FF" d="m280.83 253.766 12.894 36.417-31.186 22.671-12.885-36.417 31.177-22.671Z"/><path fill="#164CB3" d="m262.538 312.854-28.643-8.765L221 267.672l28.653 8.765 12.885 36.417Z"/><path fill="#5D95FF" d="M249.653 276.437 221 267.671 252.187 245l28.643 8.765-31.177 22.672Z"/></g><path fill="#BBD3FF" d="m156.818 159.781 12.885 36.408-31.177 22.671-12.895-36.407 31.187-22.672Z"/><path fill="#164CB3" d="m138.526 218.86-28.653-8.765-12.894-36.417 28.652 8.774 12.895 36.408Z"/><path fill="#5D95FF" d="m125.631 182.452-28.652-8.775 31.186-22.671 28.653 8.775-31.187 22.671Z"/><path fill="url(#paint0_linear_4649_69922)" d="m156.818 159.781-28.653-8.775-31.186 22.671 12.894 36.417 28.672 8.766 31.158-22.672-12.885-36.407Z"/><path fill="#BBD3FF" d="m390.465 81.063 12.885 36.417-31.177 22.671-12.894-36.417 31.186-22.671Z"/><path fill="#164CB3" d="m372.173 140.151-28.652-8.765-12.895-36.417 28.653 8.765 12.894 36.417Z"/><path fill="#5D95FF" d="m359.278 103.733-27.768-8.35 31.177-22.672 27.777 8.351-31.186 22.671Z"/><path fill="#5A9AD1" d="m305.801 144.943 12.895 36.418-31.187 22.671-12.894-36.417 31.186-22.672Z"/><path fill="#104DBF" d="m287.508 204.032-28.652-8.775-12.886-36.417 28.644 8.775 12.894 36.417Z"/><path fill="#94B9FD" d="m274.614 167.614-28.644-8.775 31.177-22.671 28.653 8.775-31.186 22.671Z"/><path fill="#5A9AD1" d="m274.754 167.445 12.894 36.408-31.186 22.671-12.895-36.407 31.187-22.672Z"/><path fill="#104DBF" d="m256.462 226.524-28.653-8.765-12.894-36.417 28.652 8.775 12.895 36.407Z"/><path fill="#94B9FD" d="m243.567 190.116-28.652-8.775 31.186-22.671 28.653 8.775-31.187 22.671Z"/><path fill="#5A9AD1" d="m243.569 190.125 12.894 36.417-31.186 22.671-12.894-36.417 31.186-22.671Z"/><path fill="#104DBF" d="m225.276 249.214-28.643-8.775-12.895-36.408 28.643 8.766 12.895 36.417Z"/><path fill="#94B9FD" d="m212.381 212.796-28.643-8.765 31.177-22.672 28.652 8.766-31.186 22.671Z"/><path fill="#5A9AD1" d="m293.147 108.15 12.886 36.418-31.177 22.671-12.895-36.417 31.186-22.672Z"/><path fill="#104DBF" d="m274.856 167.239-28.653-8.775-12.894-36.407 28.652 8.765 12.895 36.417Z"/><path fill="#94B9FD" d="m261.961 130.821-28.652-8.765 31.186-22.671 28.652 8.765-31.186 22.671Z"/><path fill="#5A9AD1" d="m262.104 130.652 12.885 36.408-31.176 22.681-12.895-36.417 31.186-22.672Z"/><path fill="#104DBF" d="m243.813 189.741-28.653-8.775-12.895-36.417 28.653 8.775 12.895 36.417Z"/><path fill="#94B9FD" d="m230.918 153.323-28.653-8.775 31.187-22.671 28.652 8.775-31.186 22.671Z"/><path fill="#5A9AD1" d="m230.915 153.332 12.895 36.417-31.187 22.671-12.894-36.417 31.186-22.671Z"/><path fill="#104DBF" d="m212.623 212.421-28.652-8.775-12.895-36.408 28.653 8.766 12.894 36.417Z"/><path fill="#94B9FD" d="m199.729 176.003-28.653-8.765 31.186-22.672 28.653 8.766-31.186 22.671Z"/><path fill="#5A9AD1" d="m280.67 72.137 12.895 36.417-31.187 22.671-12.894-36.417 31.186-22.671Z"/><path fill="#104DBF" d="m262.377 131.225-28.653-8.775-12.885-36.417 28.643 8.775 12.895 36.417Z"/><path fill="#94B9FD" d="m249.482 94.807-28.643-8.774 31.177-22.672 28.653 8.775-31.187 22.671Z"/><path fill="#5A9AD1" d="m249.625 94.639 12.894 36.407-31.186 22.672-12.895-36.408 31.187-22.671Z"/><path fill="#104DBF" d="m231.332 153.718-28.653-8.766-12.885-36.417 28.643 8.775 12.895 36.408Z"/><path fill="#94B9FD" d="m218.437 117.309-28.643-8.774 31.177-22.672 28.652 8.775-31.186 22.671Z"/><path fill="#5A9AD1" d="m334.772 153.869 12.885 36.417-31.177 22.672-12.895-36.418 31.187-22.671Z"/><path fill="#104DBF" d="m316.48 212.958-28.653-8.765-12.894-36.418 28.652 8.766 12.895 36.417Z"/><path fill="#94B9FD" d="m303.585 176.54-28.652-8.765 31.186-22.671 28.653 8.765-31.187 22.671Z"/><path fill="#5A9AD1" d="m303.717 176.371 12.895 36.417-31.187 22.672-12.885-36.418 31.177-22.671Z"/><path fill="#104DBF" d="m285.425 235.459-28.643-8.774-12.894-36.417 28.652 8.774 12.885 36.417Z"/><path fill="#94B9FD" d="m272.54 199.042-28.652-8.775 31.186-22.671 28.643 8.774-31.177 22.672Z"/><path fill="#5A9AD1" d="m322.112 117.084 12.895 36.408-31.187 22.671-12.894-36.408 31.186-22.671Z"/><path fill="#104DBF" d="m303.819 176.163-28.643-8.765-12.895-36.418 28.643 8.775 12.895 36.408Z"/><path fill="#94B9FD" d="m290.924 139.755-28.643-8.775 31.187-22.671 28.643 8.774-31.187 22.672Z"/><path fill="#5A9AD1" d="m291.069 139.576 12.895 36.417-31.187 22.672-12.894-36.418 31.186-22.671Z"/><path fill="#104DBF" d="m272.776 198.665-28.653-8.775-12.885-36.417 28.643 8.774 12.895 36.418Z"/><path fill="#94B9FD" d="m259.881 162.247-28.643-8.775 31.177-22.671 28.653 8.775-31.187 22.671Z"/><path fill="#5A9AD1" d="m259.882 162.266 12.894 36.407-31.186 22.672-12.894-36.408 31.186-22.671Z"/><path fill="#104DBF" d="m241.589 221.345-28.643-8.766-12.895-36.417 28.643 8.775 12.895 36.408Z"/><path fill="#94B9FD" d="m228.694 184.936-28.643-8.774 31.186-22.672 28.643 8.775-31.186 22.671Z"/><path fill="#5A9AD1" d="m309.602 81.063 12.923 36.417-31.252 22.671-12.923-36.417 31.252-22.671Z"/><path fill="#104DBF" d="m291.273 140.151-28.718-8.765-12.923-36.417 28.719 8.765 12.922 36.417Z"/><path fill="#94B9FD" d="m278.351 103.733-28.719-8.765 31.252-22.671 28.719 8.765-31.252 22.671Z"/><path fill="#5A9AD1" d="m247.23 126.246 12.923 36.417-31.261 22.672-12.923-36.408 31.261-22.681Z"/><path fill="#104DBF" d="m228.893 185.335-28.719-8.766-12.923-36.417 28.719 8.775 12.923 36.408Z"/><path fill="#94B9FD" d="m215.97 148.926-28.719-8.774 31.262-22.672 28.718 8.766-31.261 22.68Z"/><path fill="#5A9AD1" d="m363.728 163.189 12.894 36.418-31.186 22.671-12.894-36.408 31.186-22.681Z"/><path fill="#104DBF" d="m345.435 222.278-28.643-8.765-12.895-36.417 28.643 8.774 12.895 36.408Z"/><path fill="#94B9FD" d="m332.54 185.87-28.643-8.775 31.186-22.671 28.644 8.765-31.187 22.681Z"/><path fill="#5A9AD1" d="m332.683 185.691 12.894 36.418-31.186 22.671-12.895-36.417 31.187-22.672Z"/><path fill="#104DBF" d="m314.39 244.78-28.653-8.775-12.885-36.417 28.643 8.775 12.895 36.417Z"/><path fill="#94B9FD" d="m301.495 208.362-28.643-8.775 31.177-22.671 28.653 8.775-31.187 22.671Z"/><path fill="#5A9AD1" d="m301.822 208.23 12.885 36.418-31.177 22.671-12.895-36.417 31.187-22.672Z"/><path fill="#104DBF" d="m283.53 267.319-28.653-8.775-12.894-36.417 28.652 8.775 12.895 36.417Z"/><path fill="#94B9FD" d="m270.635 230.901-28.652-8.775 31.186-22.671 28.653 8.775-31.187 22.671Z"/><path fill="#5A9AD1" d="m351.074 126.406 12.894 36.408-31.186 22.671-12.894-36.407 31.186-22.672Z"/><path fill="#104DBF" d="m332.782 185.485-28.652-8.765-12.895-36.417 28.653 8.774 12.894 36.408Z"/><path fill="#94B9FD" d="m319.888 149.077-28.653-8.775 31.186-22.671 28.653 8.775-31.186 22.671Z"/><path fill="#5A9AD1" d="m288.844 171.588 12.894 36.408-31.186 22.671-12.895-36.408 31.187-22.671Z"/><path fill="#104DBF" d="m270.552 230.667-28.653-8.765-12.894-36.418 28.652 8.775 12.895 36.408Z"/><path fill="#94B9FD" d="m257.657 194.259-28.652-8.775 31.186-22.672 28.653 8.775-31.187 22.672Z"/><path fill="#5A9AD1" d="m338.596 90.383 12.895 36.417-31.186 22.671-12.895-36.417 31.186-22.671Z"/><path fill="#104DBF" d="m320.304 149.472-28.644-8.766-12.894-36.417 28.643 8.765 12.895 36.418Z"/><path fill="#94B9FD" d="m307.409 113.054-28.643-8.766 31.186-22.67 28.643 8.764-31.186 22.672Z"/><path fill="#5A9AD1" d="m307.551 112.885 12.895 36.417-31.186 22.671-12.895-36.417 31.186-22.671Z"/><path fill="#104DBF" d="m289.258 171.973-28.652-8.775-12.885-36.417 28.643 8.775 12.894 36.417Z"/><path fill="#94B9FD" d="m276.364 135.555-28.643-8.774 31.177-22.672 28.652 8.775-31.186 22.671Z"/><path fill="#5A9AD1" d="m276.365 135.576 12.894 36.408-31.186 22.671-12.895-36.408 31.187-22.671Z"/><path fill="#104DBF" d="m258.071 194.655-28.643-8.765-12.894-36.417 28.643 8.774 12.894 36.408Z"/><path fill="#94B9FD" d="m245.177 158.247-28.643-8.775 31.186-22.671 28.643 8.775-31.186 22.671Z"/><path fill="#164CB3" d="m196.63 240.439 28.643 8.775-12.329-36.634 28.954 9.321 12.659 36.793 28.643 8.766-38.025-109.214-57.926-18.096 12.922 36.418-29.095-9.331 25.554 73.202Z"/><path fill="url(#paint1_linear_4649_69922)" d="m200.174 176.568-55.215 36.389-30.065-9.02-11.51-36.163 86.41-59.239 28.718 8.944-31.261 22.672 12.923 36.417Z"/><path fill="url(#paint2_linear_4649_69922)" d="m171.076 167.238 29.095 9.33-12.922-36.417 31.261-22.672-28.718-8.944-18.716 58.703Z"/><path fill="#5D95FF" d="m252.016 63.361-62.222 45.173 28.719 8.945 31.12-22.512 29.265 9.142-31.177 22.69-29.208-9.32-31.262 22.671 57.927 18.095 93.418-67.863-86.58-27.02Z"/><path fill="url(#paint3_linear_4649_69922)" d="m218.626 117.48-26.26-81.713 31.262-22.671 28.709 8.774 26.684 82.24-31.186 22.69-29.209-9.32Z"/><path fill="url(#paint4_linear_4649_69922)" d="m249.632 94.969-31.12 22.511 29.208 9.321 31.177-22.69-29.265-9.142Z"/><path fill="#BBD3FF" d="m338.596 90.383-93.418 67.854 38.024 109.223 93.418-67.854-38.024-109.223Zm-36.857 117.612-12.48-36.013 31.186-22.69 12.339 36.192-31.045 22.511Z"/><path fill="url(#paint5_linear_4649_69922)" d="m212.947 212.58 12.329 36.634 20.769-15.271-4.144-12.042-28.954-9.321Z"/><path fill="url(#paint6_linear_4649_69922)" d="m301.739 207.996 88.727 29.864 30.8-22.794-12.894-36.417-87.927-29.346-31.186 22.68 12.48 36.013Z"/><path fill="url(#paint7_linear_4649_69922)" d="m289.259 171.984 12.48 36.012 31.045-22.511-12.48-36.012-31.045 22.511Z"/><path fill="url(#paint8_linear_4649_69922)" d="m403.351 117.479-44.072 32.312-12.715-36.906-7.969-22.502 24.094-17.672 27.777 8.351 12.885 36.417Z"/><path fill="#BBD3FF" d="m150.786 73.285 6.443 18.209-15.589 11.335-6.452-18.208 15.598-11.336Z"/><path fill="#164CB3" d="m141.641 102.83-14.326-4.387-6.443-18.209 14.317 4.388 6.452 18.208Z"/><path fill="#5D95FF" d="m135.189 84.621-14.317-4.387 15.589-11.336 14.326 4.388-15.598 11.335Z"/><path fill="url(#paint9_linear_4649_69922)" d="m150.787 73.286-14.326-4.388-15.589 11.336 6.443 18.209 14.335 4.387 15.579-11.336-6.442-18.208Z"/><path fill="#A5C4FF" d="M338.208 38.488s-.104-.104-.283-.311c-.198-.254-.443-.565-.744-.96-.669-.895-1.601-2.119-2.75-3.644l-.047-.056.028-.076c.565-1.657 1.243-3.634 2.006-5.865.075.075.16.16.245.254-1.771.593-3.758 1.252-5.878 1.958l-.113.038-.094-.076-4.935-3.747c.122-.056.254-.122.386-.188 0 1.987.009 4.058.019 6.195v.132l-.104.075a1286.56 1286.56 0 0 0-5.096 3.521 5.639 5.639 0 0 0-.066-.423c2.054.668 4.032 1.308 5.897 1.911l.113.038.037.113c.632 2.137 1.216 4.123 1.752 5.94-.122-.018-.235-.037-.348-.056 1.403-1.902 2.628-3.578 3.673-4.99l.047-.066h.076c1.921.076 3.457.132 4.568.179.49.028.895.047 1.206.066.273.019.414.038.414.047 0 .01-.141.028-.414.028-.321 0-.716 0-1.215.01-1.121 0-2.657-.02-4.569-.038l.123-.056-3.589 5.046-.226.32-.113-.386c-.556-1.817-1.158-3.794-1.808-5.931l.15.15a4507 4507 0 0 1-5.905-1.883l-.462-.15.405-.283c1.639-1.139 3.344-2.316 5.096-3.53-.038.066-.066.131-.104.197 0-2.137 0-4.218-.009-6.195v-.49l.386.293c1.714 1.318 3.372 2.58 4.917 3.765-.076-.009-.142-.028-.208-.037 2.129-.688 4.126-1.328 5.897-1.902l.376-.122-.131.376c-.792 2.213-1.507 4.18-2.101 5.828a.526.526 0 0 0-.019-.132c1.102 1.563 1.997 2.815 2.638 3.729.273.404.499.734.687.998.151.226.226.357.217.357l-.028.029ZM264.268 57.564s.113-.122.367-.33c.264-.225.631-.536 1.102-.931.999-.82 2.43-2.006 4.258-3.512 3.72-3.041 9.061-7.41 15.597-12.748l.076-.057.094.029c6.104 1.563 13.092 3.36 20.703 5.319l.113.028.047.104c3.184 7.861 6.725 16.627 10.427 25.788l.066.169-.141.113c-7.564 6.13-14.807 11.995-21.429 17.361l-.094.075-.113-.028-20.703-5.395-.094-.028-.038-.085c-3.146-7.899-5.726-14.348-7.525-18.858-.876-2.231-1.564-3.973-2.035-5.187-.217-.584-.396-1.027-.518-1.356-.113-.31-.16-.47-.16-.47s.075.15.207.451c.141.32.33.772.565 1.337l2.129 5.15c1.837 4.49 4.465 10.921 7.676 18.792a1.527 1.527 0 0 0-.131-.113c6.122 1.573 13.101 3.361 20.721 5.32-.066.019-.132.028-.197.047 6.612-5.376 13.845-11.251 21.409-17.39-.028.094-.047.189-.075.283a60834.4 60834.4 0 0 0-10.399-25.807c.056.047.104.095.151.132-7.601-1.986-14.59-3.803-20.684-5.395.056-.01.113-.028.169-.037-6.584 5.29-11.953 9.603-15.701 12.616-1.856 1.478-3.306 2.636-4.324 3.436-.48.377-.857.669-1.139.885a7.809 7.809 0 0 1-.396.292h.019Z"/><path fill="#A5C4FF" d="M295.398 88.717s-.094-.15-.235-.442c-.151-.349-.349-.782-.584-1.309-.509-1.214-1.206-2.852-2.044-4.858a1652.334 1652.334 0 0 1-6.584-16.1c-.415-1.026-.829-2.043-1.206-2.993.057.047.113.094.16.14-5.802-1.534-10.945-2.9-14.722-3.897-1.799-.5-3.259-.904-4.351-1.205-.462-.141-.848-.254-1.168-.349-.264-.084-.405-.131-.396-.15 0-.019.151 0 .424.066.32.075.716.16 1.187.263 1.102.264 2.581.622 4.389 1.064 3.787.96 8.939 2.26 14.76 3.738l.113.028.047.113c.386.951.791 1.968 1.215 2.994a2086.414 2086.414 0 0 1 6.452 16.147c.782 2.024 1.432 3.69 1.903 4.915.197.536.357.988.499 1.346.103.31.16.48.141.48v.01Z"/><path fill="#A5C4FF" d="M284.962 62.92s.254-.291.781-.753c.613-.517 1.366-1.167 2.252-1.92a517.945 517.945 0 0 1 7.535-6.195c2.957-2.401 5.661-4.548 7.629-6.092.923-.706 1.705-1.309 2.345-1.798.556-.414.876-.63.905-.612.019.028-.255.292-.782.753-.612.518-1.356 1.168-2.251 1.92a584.435 584.435 0 0 1-7.535 6.205 615.828 615.828 0 0 1-7.62 6.092c-.923.706-1.705 1.308-2.346 1.798-.555.414-.876.63-.904.612l-.009-.01ZM194.681 17.587s.113-.122.367-.329c.264-.226.631-.537 1.102-.932.999-.82 2.43-2.006 4.258-3.512 3.72-3.04 9.061-7.41 15.598-12.748l.075-.056.094.028a18517.34 18517.34 0 0 1 20.703 5.32l.113.028.047.103c3.184 7.862 6.725 16.627 10.427 25.788l.066.179-.141.113c-7.564 6.129-14.807 11.994-21.429 17.361l-.094.075-.113-.028c-7.62-1.986-14.59-3.804-20.703-5.395l-.094-.028-.038-.085c-3.146-7.899-5.726-14.348-7.525-18.858-.876-2.231-1.564-3.973-2.035-5.188-.217-.583-.395-1.026-.518-1.355-.113-.311-.16-.471-.16-.471s.085.15.207.452c.141.32.33.772.565 1.337.5 1.205 1.215 2.937 2.129 5.15 1.837 4.49 4.465 10.921 7.676 18.792-.037-.038-.084-.075-.131-.113 6.122 1.572 13.101 3.361 20.721 5.32-.066.018-.131.028-.197.047 6.612-5.376 13.846-11.251 21.409-17.39-.028.094-.047.189-.075.283-3.693-9.17-7.225-17.936-10.399-25.807.057.047.104.094.151.132-7.601-1.987-14.59-3.804-20.684-5.395.056-.01.113-.028.169-.037-6.584 5.29-11.953 9.603-15.701 12.616-1.856 1.478-3.306 2.636-4.324 3.436-.48.377-.857.668-1.139.885-.255.198-.396.292-.396.292l.019-.01Z"/><path fill="#A5C4FF" d="M225.811 48.74s-.094-.15-.235-.442c-.151-.348-.349-.781-.584-1.308-.509-1.215-1.206-2.853-2.044-4.858a1652.177 1652.177 0 0 1-6.584-16.1c-.415-1.026-.829-2.043-1.206-2.994.057.047.113.094.16.141-5.802-1.534-10.945-2.9-14.722-3.898l-4.351-1.205c-.462-.141-.848-.254-1.168-.348-.264-.085-.405-.132-.396-.15 0-.02.151 0 .424.065.32.075.716.16 1.187.264 1.102.263 2.581.621 4.389 1.064 3.787.96 8.939 2.26 14.76 3.737l.113.029.047.113c.386.95.791 1.967 1.215 2.994a2046.469 2046.469 0 0 1 6.452 16.146c.782 2.024 1.432 3.69 1.903 4.915.197.536.358.989.499 1.346.103.31.16.48.141.48v.01Z"/><path fill="#A5C4FF" d="M215.375 22.944s.254-.292.782-.753c.612-.518 1.365-1.168 2.251-1.92a517.205 517.205 0 0 1 7.535-6.196 600.12 600.12 0 0 1 7.629-6.091c.923-.706 1.705-1.309 2.346-1.799.555-.414.876-.63.904-.612.019.029-.255.292-.782.754-.612.517-1.356 1.167-2.251 1.92a584.823 584.823 0 0 1-7.535 6.205 614.886 614.886 0 0 1-7.62 6.091c-.923.706-1.705 1.309-2.346 1.799-.555.414-.876.63-.904.611l-.009-.009ZM165.886 246.55s.113-.122.367-.329c.264-.226.631-.537 1.102-.932.999-.819 2.43-2.006 4.258-3.512 3.72-3.041 9.061-7.41 15.598-12.748l.075-.056.094.028c6.104 1.563 13.093 3.361 20.703 5.319l.113.029.047.103c3.184 7.862 6.725 16.627 10.427 25.788l.066.169-.141.113c-7.564 6.129-14.807 11.995-21.428 17.361l-.095.076-.113-.028c-7.62-1.987-14.59-3.804-20.703-5.395l-.094-.028-.038-.085c-3.145-7.899-5.726-14.349-7.525-18.858-.876-2.232-1.564-3.974-2.035-5.188-.216-.584-.395-1.026-.518-1.356-.113-.311-.16-.471-.16-.471s.085.151.207.452c.142.32.33.772.565 1.337.5 1.205 1.215 2.938 2.129 5.15 1.837 4.491 4.465 10.922 7.677 18.793l-.132-.113c6.122 1.572 13.102 3.361 20.721 5.319a1.442 1.442 0 0 0-.197.047c6.612-5.376 13.846-11.251 21.409-17.389-.028.094-.047.188-.075.282-3.693-9.17-7.225-17.935-10.399-25.806.057.047.104.094.151.131-7.601-1.986-14.59-3.803-20.684-5.394.056-.01.113-.029.169-.038l-15.701 12.616c-1.856 1.478-3.306 2.636-4.324 3.437-.48.376-.857.668-1.139.885-.255.197-.396.291-.396.291h.019Z"/><path fill="#A5C4FF" d="M197.015 277.704s-.094-.151-.235-.443c-.16-.348-.349-.781-.584-1.308-.509-1.215-1.206-2.853-2.054-4.859-1.714-4.114-4.04-9.801-6.584-16.099-.414-1.026-.828-2.043-1.205-2.994.056.047.113.094.16.141-5.802-1.535-10.945-2.9-14.722-3.898-1.799-.499-3.259-.904-4.352-1.205-.461-.141-.847-.254-1.167-.348-.264-.085-.405-.132-.396-.151 0-.019.151 0 .424.066.32.075.716.16 1.187.264 1.102.263 2.58.621 4.389 1.064 3.786.96 8.938 2.259 14.759 3.737l.123.029.047.113c.386.95.791 1.958 1.215 2.994a1887.13 1887.13 0 0 1 6.452 16.156c.782 2.024 1.432 3.69 1.903 4.914.197.537.358.989.499 1.347.103.31.16.47.141.48Z"/><path fill="#A5C4FF" d="M186.588 251.907s.255-.292.782-.753c.612-.518 1.366-1.168 2.251-1.921a520.089 520.089 0 0 1 7.535-6.195 596.357 596.357 0 0 1 7.63-6.091l2.345-1.799c.556-.414.876-.631.904-.612.019.029-.254.292-.781.753-.613.518-1.357 1.168-2.251 1.921a586.615 586.615 0 0 1-7.536 6.205 606.831 606.831 0 0 1-7.62 6.091c-.923.706-1.704 1.309-2.345 1.798-.565.415-.876.631-.904.612l-.01-.009ZM52.66 11.58s.265.094.754.32c.528.254 1.225.593 2.1 1.017 1.866.932 4.456 2.222 7.62 3.803l.085.038.02.094c.442 2.636.95 5.64 1.506 8.907l.02.113-.086.084c-2.496 2.58-5.274 5.452-8.185 8.446l-.122.131-.16-.084c-3.664-1.874-7.168-3.672-10.38-5.32l-.104-.056-.018-.113c-.528-3.277-1.008-6.28-1.432-8.926l-.019-.094.066-.066c2.505-2.532 4.559-4.604 6.037-6.1.697-.688 1.253-1.243 1.677-1.658.386-.376.603-.564.612-.555.01.01-.17.226-.537.63-.404.434-.941 1.008-1.6 1.724a2339.69 2339.69 0 0 0-5.916 6.213c.019-.056.028-.103.047-.16.452 2.646.96 5.64 1.517 8.916l-.123-.169c3.212 1.638 6.725 3.418 10.39 5.291l-.293.047c2.91-2.994 5.699-5.856 8.204-8.426-.019.066-.047.141-.066.198-.527-3.277-1.007-6.28-1.431-8.916.037.047.066.094.103.14a3354.96 3354.96 0 0 0-7.544-3.944c-.857-.461-1.536-.829-2.054-1.111-.47-.254-.706-.405-.706-.424l.019.01Z"/><path fill="#A5C4FF" d="M45.936 28.941c-.047-.047.716-.922 1.997-2.306A346.006 346.006 0 0 1 53 21.305l.952-.978c-.02.075-.047.14-.066.207a348.109 348.109 0 0 1-.97-6.365c-.217-1.6-.32-2.58-.264-2.589.056-.01.273.951.584 2.542.301 1.591.706 3.813 1.13 6.337l.019.122-.085.085-.951.979a291.487 291.487 0 0 1-5.171 5.225c-1.338 1.318-2.195 2.109-2.242 2.062v.01Z"/><path fill="#A5C4FF" d="M54.13 20.496c.066-.123 2.44.97 5.303 2.438 2.873 1.469 5.143 2.75 5.086 2.872-.066.122-2.44-.97-5.303-2.439s-5.142-2.749-5.086-2.871Z"/></g><defs><linearGradient id="paint0_linear_4649_69922" x1="168.912" x2="115.107" y1="159.235" y2="198.159" gradientUnits="userSpaceOnUse"><stop stop-color="#2D6DE7"/><stop offset="1" stop-color="#73CAFF" stop-opacity="0"/></linearGradient><linearGradient id="paint1_linear_4649_69922" x1="240.873" x2="117.046" y1="121.65" y2="187.571" gradientUnits="userSpaceOnUse"><stop stop-color="#5992FB"/><stop offset="1" stop-color="#73CAFF" stop-opacity="0"/></linearGradient><linearGradient id="paint2_linear_4649_69922" x1="231.471" x2="170.306" y1="123.138" y2="155.707" gradientUnits="userSpaceOnUse"><stop stop-color="#3FFFAC"/><stop offset="0" stop-color="#104DBF"/><stop offset="1" stop-color="#73CAFF" stop-opacity="0"/></linearGradient><linearGradient id="paint3_linear_4649_69922" x1="255.059" x2="222.202" y1="124.465" y2="32.416" gradientUnits="userSpaceOnUse"><stop stop-color="#6EA0FF"/><stop offset="1" stop-color="#fff" stop-opacity="0"/></linearGradient><linearGradient id="paint4_linear_4649_69922" x1="258.382" x2="241.761" y1="138.598" y2="90.793" gradientUnits="userSpaceOnUse"><stop stop-color="#022A74"/><stop offset="1" stop-color="#73CAFF" stop-opacity="0"/></linearGradient><linearGradient id="paint5_linear_4649_69922" x1="231.22" x2="224.378" y1="212.759" y2="254.497" gradientUnits="userSpaceOnUse"><stop stop-color="#104DBF"/><stop offset="1" stop-color="#73CAFF" stop-opacity="0"/></linearGradient><linearGradient id="paint6_linear_4649_69922" x1="294.355" x2="395.94" y1="173.565" y2="206.882" gradientUnits="userSpaceOnUse"><stop stop-color="#4985F4"/><stop offset="1" stop-color="#D8F0FF" stop-opacity="0"/></linearGradient><linearGradient id="paint7_linear_4649_69922" x1="289.41" x2="326.884" y1="170.383" y2="184.884" gradientUnits="userSpaceOnUse"><stop stop-color="#1043A3"/><stop offset="1" stop-color="#73CAFF" stop-opacity="0"/></linearGradient><linearGradient id="paint8_linear_4649_69922" x1="335.506" x2="383.199" y1="129.841" y2="95.014" gradientUnits="userSpaceOnUse"><stop stop-color="#104DBF"/><stop offset="1" stop-color="#73CAFF" stop-opacity="0"/></linearGradient><linearGradient id="paint9_linear_4649_69922" x1="149.12" x2="135.19" y1="109.27" y2="76.85" gradientUnits="userSpaceOnUse"><stop stop-color="#104DBF"/><stop offset="1" stop-color="#73CAFF" stop-opacity="0"/></linearGradient><clipPath id="clip0_4649_69922"><path fill="#fff" d="M0 0h500v312.634H0z"/></clipPath></defs></svg>