<svg xmlns="http://www.w3.org/2000/svg" width="500" height="313" fill="none" viewBox="0 0 500 313"><g clip-path="url(#clip0_4649_69685)"><path fill="url(#paint0_linear_4649_69685)" d="m180.434 197.597-.849.486c-3.125 1.786-2.752 4.943.84 7.041l78.896 46.176c3.592 2.099 9.037 2.359 12.162.572l.849-.485c3.125-1.787 2.752-4.943-.84-7.041l-78.896-46.176c-3.592-2.099-9.037-2.359-12.162-.573Z" opacity=".66"/><path fill="url(#paint1_linear_4649_69685)" d="m229.517 120.707-.848.485c-3.125 1.787-2.753 4.943.839 7.042l66.457 38.9c3.592 2.099 9.037 2.359 12.162.572l.848-.485c3.125-1.787 2.753-4.943-.839-7.041l-66.457-38.901c-3.592-2.098-9.037-2.358-12.162-.572Z" opacity=".66"/><path fill="url(#paint2_linear_4649_69685)" d="M265.086 296.574c-1.956 0-3.913-.503-5.661-1.517l-119.538-69.138a2.75 2.75 0 0 1-1.394-2.411c0-1.006.519-1.908 1.394-2.41l74.861-43.297.58.338 124.62 72.077a2.753 2.753 0 0 1 1.394 2.411c0 1.006-.52 1.908-1.394 2.411l-69.2 40.019a11.277 11.277 0 0 1-5.662 1.517ZM214.74 180.489l-73.693 42.62a.447.447 0 0 0-.234.399c0 .104.026.286.234.399l119.538 69.138a9.024 9.024 0 0 0 9.003 0l69.2-40.019a.447.447 0 0 0 .234-.399.429.429 0 0 0-.234-.399l-124.04-71.739h-.008Z"/><path fill="url(#paint3_linear_4649_69685)" d="m214.593 149.229 16.655-98.977-1.342-.564 2.008-1.153c.39-.251.944-.234 1.55.122l133.094 76.976c1.091.633 1.922 2.255 1.731 3.391l-16.785 99.757c-.086.52-.346.867-.701 1.014l-1.965 1.136-.337-1.838.112.035-132.298-76.509c-1.09-.633-1.922-2.255-1.731-3.39h.009Z"/><path fill="url(#paint4_linear_4649_69685)" d="m365.822 128.338 2.19-.971c.242.564.364 1.153.286 1.648l-16.785 99.757c-.087.52-.347.867-.701 1.014l-1.966 1.136-.337-1.838.112.034-6.691-3.867 23.901-96.921-.009.008Z"/><path fill="#1755C9" d="m214.229 153.817 133.094 76.976c1.03.599 1.905.252 2.086-.815l16.786-99.756c.19-1.136-.632-2.758-1.732-3.391L231.378 49.854c-1.031-.598-1.905-.251-2.087.815l-16.785 99.757c-.19 1.136.632 2.758 1.732 3.391h-.009Z"/><g opacity=".51"><path fill="#4553C7" d="m233.118 56.227 128.29 74.193-15.902 93.955-128.212-74.149 15.824-94Z"/></g><path fill="url(#paint5_linear_4649_69685)" d="m130.564 201.05 7.262 3.799 72.837-42.127c1.22-.702 3.35-.615 4.752.2l125.615 72.65c1.203-.677 6.683-3.313 6.683-3.313l-2.658 6.937h-.008c-.113.304-.347.59-.745.815l-76.705 44.364c-1.221.702-3.351.615-4.753-.2l-128.549-74.332c-.58-.338-.935-.737-1.083-1.144h-.008l-2.64-7.64v-.009Z"/><path fill="url(#paint6_linear_4649_69685)" d="m131.689 202.246 131.744 76.197c1.445.832 3.627.928 4.873.199l78.619-45.464c1.247-.72 1.091-1.986-.346-2.819l-131.753-76.196c-1.445-.833-3.627-.928-4.873-.2l-78.61 45.465c-1.247.72-1.091 1.986.346 2.818Z"/><path fill="#0C41BC" d="M303.166 261.958v-1.448c0-.139-.086-.2-.182-.139l-5.098 2.948c-.104.061-.182.217-.182.356v1.448c0 .139.087.2.182.139l5.098-2.948c.104-.061.182-.217.182-.356ZM295.549 266.364v-1.448c0-.139-.087-.199-.182-.139l-5.099 2.949c-.104.06-.182.217-.182.355v1.448c0 .139.087.2.182.139l5.099-2.948c.104-.061.182-.217.182-.356Z"/><path fill="#ADC8FF" d="M326.426 228.919 216.947 165.6a2.334 2.334 0 0 0-2.355 0l-38.989 22.598a.84.84 0 0 0 0 1.457l109.427 63.284a2.334 2.334 0 0 0 2.355 0l39.041-22.563a.84.84 0 0 0 0-1.457Z"/><path fill="#97B4FF" d="m326.426 230.377-.389.225-109.09-63.093a2.332 2.332 0 0 0-2.354 0l-38.591 22.363-.39-.225a.84.84 0 0 1 0-1.457l38.989-22.598a2.334 2.334 0 0 1 2.355 0l109.479 63.319a.84.84 0 0 1 0 1.457l-.009.009Z"/><path fill="#1755C9" d="m211.649 171.324 95.092 54.995 4.234-2.445-95.101-54.995-4.225 2.445ZM201.278 177.316l89.197 51.587 4.233-2.445-89.205-51.587-4.225 2.445ZM194.527 181.227l105.021 60.735 4.225-2.446-105.013-60.735-4.233 2.446ZM187.775 185.129l105.021 60.735 4.233-2.445-105.021-60.735-4.233 2.445ZM181.023 189.031l105.021 60.744 4.233-2.445-105.021-60.744-4.233 2.445ZM312.489 229.648l4.225 2.446 4.233-2.446-4.233-2.445-4.225 2.445ZM297.574 233.014l8.778 5.073 4.224-2.446-8.777-5.073-4.225 2.446Z"/><path fill="url(#paint7_linear_4649_69685)" d="m212.732 244.242-29.519-17.074c-1.151-.668-1.151-1.752 0-2.419l20.187-11.672c1.151-.668 3.021-.668 4.181 0l29.519 17.074c1.151.668 1.151 1.752 0 2.419l-20.187 11.672c-1.151.668-3.021.668-4.181 0Z"/><path fill="#97B4FF" d="m237.091 231.14-29.519-17.074c-1.151-.668-3.021-.668-4.181 0l-20.187 11.671c-.355.208-.588.451-.727.711-.303-.581-.069-1.24.727-1.699l20.187-11.672c1.152-.668 3.022-.668 4.181 0l29.519 17.074c.797.46 1.03 1.119.727 1.7a1.79 1.79 0 0 0-.727-.711Z"/><g opacity=".11"><path fill="url(#paint8_linear_4649_69685)" d="m214.696 154.006 131.744 76.196c1.446.833 3.627.928 4.874.2l78.618-45.465c1.247-.719 1.091-1.985-.346-2.818l-131.753-76.196c-1.445-.833-3.627-.928-4.873-.2l-78.619 45.465c-1.246.72-1.091 1.986.346 2.818h.009Z"/><path fill="url(#paint9_linear_4649_69685)" d="m346.829 167.664-29.518-17.074c-1.152-.668-1.152-1.752 0-2.419l20.187-11.672c1.151-.668 3.021-.668 4.181 0l29.519 17.074c1.151.668 1.151 1.752 0 2.419l-20.187 11.672c-1.152.668-3.022.668-4.182 0Z"/><path fill="#97B4FF" d="m371.197 154.562-29.519-17.075c-1.151-.667-3.021-.667-4.181 0l-20.187 11.672c-.355.208-.588.451-.727.711-.303-.581-.069-1.24.727-1.699l20.187-11.672c1.152-.668 3.021-.668 4.181 0l29.519 17.074c.797.46 1.03 1.119.727 1.7-.138-.261-.372-.512-.727-.711Z"/><path fill="#ADC8FF" d="m384.174 194.345-109.48-63.319a2.332 2.332 0 0 0-2.354 0l-38.989 22.598a.839.839 0 0 0 0 1.456l109.427 63.285a2.334 2.334 0 0 0 2.355 0l39.041-22.563a.84.84 0 0 0 0-1.457Z"/><path fill="#97B4FF" d="m384.173 195.803-.389.225-109.09-63.094a2.332 2.332 0 0 0-2.354 0l-38.591 22.364-.39-.225a.84.84 0 0 1 0-1.457l38.989-22.598a2.334 2.334 0 0 1 2.355 0l109.479 63.319a.84.84 0 0 1 0 1.457l-.009.009Z"/><path fill="#1755C9" d="m243.557 152.082 95.369 55.159-3.774 2.186-95.378-55.16 3.783-2.185ZM253.599 146.271l90.66 52.428-3.783 2.186-90.652-52.428 3.775-2.186ZM351.028 202.619l8.466 4.891-3.783 2.185-8.466-4.891 3.783-2.185ZM343.549 209.912l5.895 3.417-3.783 2.185-5.895-3.417 3.783-2.185ZM259.9 142.629l105.887 61.238-3.774 2.185-105.895-61.238 3.782-2.185ZM266.194 138.988l105.887 61.238-3.774 2.186-105.887-61.238 3.774-2.186ZM272.496 135.346l105.887 61.246-3.783 2.177-105.887-61.238 3.783-2.185Z"/></g><path fill="#B6D0FF" d="m349.548 135.987 2.536 1.622.303-1.882-2.528-1.622-.311 1.882ZM347.479 148.708l2.528 1.622 1.791-11.013-2.527-1.622-1.792 11.013ZM346.483 154.786l2.528 1.621.718-4.37-2.536-1.613-.71 4.362ZM345.453 161.099l2.537 1.622.709-4.371-2.527-1.621-.719 4.37ZM344.786 139.656l2.528 1.621.71-4.37-2.528-1.622-.71 4.371ZM343.427 148.005l2.528 1.621 1.047-6.417-2.536-1.621-1.039 6.417ZM342.172 155.698l2.528 1.613.9-5.498-2.536-1.622-.892 5.507ZM344.432 167.404l2.527 1.621.71-4.37-2.527-1.622-.71 4.371ZM345.782 133.567l2.527 1.622.303-1.882-2.527-1.621-.303 1.881ZM341.549 172.311l4.415 2.827.294-1.821-4.415-2.827-.294 1.821Z"/><path fill="#B6D0FF" d="m256.204 43.08-11.037-6.39v-2.428l11.037 6.39v2.429ZM261.874 46.358l-3.982-2.307v-2.428l3.982 2.298v2.437ZM266.263 48.891l-2.701-1.56v-2.429l2.701 1.561v2.428ZM251.184 45.724l-6.017-3.485V39.81l6.017 3.477v2.437ZM260.248 50.964l-7.376-4.267V44.27l7.376 4.267v2.428ZM264.636 53.503l-2.701-1.56v-2.437l2.701 1.57v2.427ZM268.808 55.915l-2.701-1.561v-2.428l2.701 1.56v2.429Z" opacity=".5"/><path fill="#B6D0FF" d="m249.522 50.313-4.355-2.524v-2.428l4.355 2.524v2.428ZM252.69 52.15l-1.489-.867v-2.428l1.489.859v2.437Z"/><path fill="#B6D0FF" d="m257.079 54.682-2.701-1.56v-2.429l2.701 1.561v2.428ZM261.234 62.634l-16.067-9.296V50.91l16.067 9.296v2.428ZM266.896 65.913l-3.974-2.297v-2.428l3.974 2.297v2.428ZM249.522 61.412l-4.355-2.514V56.46l4.355 2.523v2.428ZM259.737 67.317l-8.536-4.934v-2.428l8.536 4.934v2.428ZM264.125 69.858l-2.701-1.56v-2.429l2.701 1.561v2.428ZM254.075 69.597l-8.908-5.15V62.01l8.908 5.16v2.427Z" opacity=".5"/><path fill="#B6D0FF" d="m262.203 74.297-6.44-3.728V68.14l6.44 3.728v2.428Z"/><path fill="#B6D0FF" d="m268.246 77.793-4.355-2.515v-2.436l4.355 2.523v2.428ZM248.171 71.731l-3.004-1.734v-2.436l3.004 1.742v2.428ZM253.832 75.01l-3.973-2.299v-2.428l3.973 2.298v2.428ZM261.935 79.692l-6.414-3.703v-2.436l6.414 3.711v2.428ZM254.378 80.871l-9.211-5.324V73.12l9.211 5.324v2.428ZM264.706 86.845l-8.64-4.995v-2.428l8.64 4.995v2.428Z" opacity=".5"/><path fill="#B6D0FF" d="m269.094 89.386-2.701-1.56v-2.437l2.701 1.57v2.427Z"/><path fill="#B6D0FF" d="m273.309 91.824-2.709-1.561v-2.437l2.709 1.57v2.428ZM250.682 84.287l-5.515-3.191v-2.428l5.515 3.191v2.428Z" opacity=".5"/><path fill="#B6D0FF" d="m273.786 53.244 7.652 4.432v-2.428l-7.652-4.432v2.428Z"/><path fill="#B6D0FF" d="m275.422 59.739 6.016 3.486v-2.428l-6.016-3.486v2.428ZM277.084 66.25l4.355 2.524v-2.428l-4.355-2.524v2.428ZM275.11 70.665l6.328 3.66v-2.428l-6.328-3.669v2.437ZM277.084 77.359l4.355 2.514v-2.428l-4.355-2.523v2.437ZM275.915 82.233l5.523 3.19v-2.427l-5.523-3.191v2.428ZM278.434 89.23l3.004 1.744v-2.428l-3.004-1.743v2.428ZM275.612 93.15l5.826 3.374v-2.428l-5.826-3.373v2.428ZM275.915 98.881l5.523 3.191v-2.428l-5.523-3.19v2.427ZM254.724 86.62l-2.355-1.353V82.83l2.355 1.362v2.428ZM261.693 90.652l-5.281-3.052v-2.428l5.281 3.052v2.428ZM299.036 67.752l-11.045-6.383v-2.428l11.045 6.383v2.428ZM304.707 71.029l-3.982-2.298v-2.428l3.982 2.298v2.428Z" opacity=".5"/><path fill="#B6D0FF" d="m309.096 73.569-2.71-1.56V69.58l2.71 1.56v2.429Z"/><path fill="#B6D0FF" d="m294.007 70.395-6.016-3.477V64.49l6.016 3.478v2.427ZM303.071 75.642l-7.375-4.267v-2.428l7.375 4.267v2.428Z" opacity=".5"/><path fill="#B6D0FF" d="m307.459 78.174-2.7-1.56v-2.428l2.7 1.56v2.428Z"/><path fill="#B6D0FF" d="m311.641 80.594-2.701-1.56v-2.428l2.701 1.56v2.428ZM292.345 74.984l-4.354-2.515v-2.428l4.354 2.515v2.428ZM295.522 76.822l-1.489-.859v-2.428l1.489.859v2.428ZM299.911 79.362l-2.701-1.56v-2.429l2.701 1.56v2.429ZM304.066 87.314l-16.075-9.296V75.59l16.075 9.296v2.428ZM309.727 90.592l-3.973-2.298v-2.437l3.973 2.307v2.428ZM292.345 86.092l-4.354-2.523V81.14l4.354 2.514v2.437ZM302.568 91.997l-8.535-4.934v-2.428l8.535 4.934v2.428ZM306.958 94.537l-2.701-1.561v-2.437l2.701 1.57v2.428Z" opacity=".5"/><path fill="#B6D0FF" d="m296.898 94.268-8.907-5.15V86.69l8.907 5.15v2.428Z"/><path fill="#B6D0FF" d="m305.036 98.977-6.449-3.729V92.82l6.449 3.72v2.437ZM311.078 102.471l-4.354-2.523V97.52l4.354 2.514v2.437ZM291.003 96.411l-3.012-1.743V92.24l3.012 1.743v2.428ZM296.665 99.688l-3.973-2.298v-2.437l3.973 2.307v2.428Z" opacity=".5"/><path fill="#B6D0FF" d="m304.759 104.37-6.406-3.712v-2.427l6.406 3.702v2.437Z"/><path fill="#B6D0FF" d="m297.21 105.55-9.219-5.333v-2.428l9.219 5.333v2.428ZM307.537 111.525l-8.639-4.995v-2.436l8.639 4.995v2.436ZM311.926 114.057l-2.701-1.561v-2.428l2.701 1.561v2.428ZM316.134 116.493l-2.701-1.561v-2.428l2.701 1.561v2.428ZM293.514 108.966l-5.523-3.2v-2.428l5.523 3.2v2.428Z" opacity=".5"/><path fill="#B6D0FF" d="m316.61 77.923 7.661 4.422v-2.427l-7.661-4.432v2.437Z"/><path fill="#B6D0FF" d="m318.255 84.418 6.016 3.477v-2.427l-6.016-3.478v2.428ZM319.916 90.93l4.354 2.515v-2.428l-4.354-2.515v2.428ZM317.934 95.334l6.336 3.668v-2.436l-6.336-3.66v2.428ZM319.916 102.03l4.354 2.523v-2.437l-4.354-2.514v2.428ZM318.748 106.903l5.523 3.199v-2.428l-5.523-3.199v2.428ZM321.259 113.908l3.012 1.743v-2.428l-3.012-1.743v2.428ZM318.437 117.828l5.834 3.374v-2.428l-5.834-3.374v2.428ZM318.748 123.562l5.523 3.191v-2.428l-5.523-3.2v2.437Z" opacity=".5"/><path fill="#B6D0FF" d="m297.548 111.299-2.346-1.361v-2.428l2.346 1.361v2.428Z"/><path fill="#B6D0FF" d="m304.525 115.331-5.289-3.061v-2.428l5.289 3.061v2.428ZM256.204 93.063l-11.037-6.382v-2.437l11.037 6.391v2.428ZM261.874 96.341l-3.982-2.298v-2.428l3.982 2.298v2.428ZM266.263 98.882l-2.701-1.56v-2.437l2.701 1.57v2.427ZM251.184 95.709l-6.017-3.477v-2.437l6.017 3.486v2.428ZM260.248 100.946l-7.376-4.257v-2.437l7.376 4.266v2.428ZM264.636 103.487l-2.701-1.561v-2.428l2.701 1.561v2.428ZM268.808 105.906l-2.701-1.561v-2.437l2.701 1.57v2.428ZM249.522 100.294l-4.355-2.514v-2.428l4.355 2.514v2.428ZM252.69 102.134l-1.489-.858v-2.428l1.489.858v2.428ZM257.079 104.673l-2.701-1.561v-2.436l2.701 1.569v2.428ZM261.234 112.626l-16.067-9.296v-2.428l16.067 9.296v2.428ZM266.896 115.905l-3.974-2.307v-2.428l3.974 2.298v2.437ZM249.522 111.394l-4.355-2.515v-2.428l4.355 2.515v2.428ZM259.737 117.309l-8.536-4.934v-2.428l8.536 4.934v2.428ZM264.125 119.849l-2.701-1.569v-2.428l2.701 1.56v2.437ZM254.075 119.581l-8.908-5.151v-2.428l8.908 5.151v2.428ZM262.203 124.281l-6.44-3.72v-2.428l6.44 3.72v2.428ZM268.246 127.775l-4.355-2.515v-2.428l4.355 2.515v2.428ZM248.171 121.722l-3.004-1.743v-2.428l3.004 1.743v2.428ZM253.832 125l-3.973-2.306v-2.428l3.973 2.298V125ZM261.935 129.674l-6.414-3.703v-2.428l6.414 3.703v2.428ZM254.378 130.863l-9.211-5.333v-2.428l9.211 5.333v2.428ZM264.706 136.829l-8.64-4.995v-2.428l8.64 4.995v2.428ZM269.094 139.37l-2.701-1.561v-2.428l2.701 1.561v2.428ZM273.309 141.805l-2.709-1.561v-2.428l2.709 1.561v2.428ZM250.682 134.278l-5.515-3.2v-2.428l5.515 3.191v2.437ZM273.786 103.227l7.652 4.431v-2.428l-7.652-4.431v2.428ZM275.422 109.729l6.016 3.477v-2.428l-6.016-3.477v2.428ZM277.084 116.242l4.355 2.515v-2.428l-4.355-2.515v2.428ZM275.11 120.647l6.328 3.659v-2.428l-6.328-3.659v2.428ZM277.084 127.342l4.355 2.515v-2.428l-4.355-2.515v2.428ZM275.915 132.215l5.523 3.2v-2.437l-5.523-3.191v2.428ZM278.434 139.221l3.004 1.743v-2.437l-3.004-1.734v2.428ZM275.612 143.141l5.826 3.373v-2.437l-5.826-3.364v2.428ZM275.915 148.864l5.523 3.199v-2.428l-5.523-3.199v2.428ZM254.724 136.612l-2.355-1.362v-2.428l2.355 1.362v2.428ZM261.693 140.643l-5.281-3.061v-2.428l5.281 3.061v2.428ZM266.064 159.314l-8.917-5.159v-2.428l8.917 5.159v2.428ZM272.176 162.842l-3.515-2.029v-2.428l3.515 2.029v2.428ZM299.036 117.743l-11.045-6.391v-2.428l11.045 6.391v2.428ZM304.707 121.02l-3.982-2.307v-2.428l3.982 2.298v2.437ZM309.096 123.551l-2.71-1.56v-2.429l2.71 1.561v2.428ZM294.007 120.387l-6.016-3.486v-2.428l6.016 3.477v2.437ZM303.071 125.624l-7.375-4.266v-2.428l7.375 4.266v2.428ZM307.459 128.166l-2.7-1.561v-2.437l2.7 1.57v2.428ZM311.641 130.577l-2.701-1.561v-2.428l2.701 1.561v2.428ZM292.345 124.975l-4.354-2.524v-2.428l4.354 2.524v2.428ZM295.522 126.813l-1.489-.867v-2.428l1.489.858v2.437ZM299.911 129.344l-2.701-1.561v-2.428l2.701 1.561v2.428ZM304.066 137.296 287.991 128v-2.428l16.075 9.296v2.428ZM309.727 140.574l-3.973-2.298v-2.428l3.973 2.298v2.428ZM292.345 136.074l-4.354-2.514v-2.437l4.354 2.523v2.428ZM302.568 141.979l-8.535-4.934v-2.428l8.535 4.934v2.428ZM306.958 144.52l-2.701-1.561v-2.428l2.701 1.561v2.428ZM296.898 144.259l-8.907-5.15v-2.437l8.907 5.159v2.428ZM305.036 148.959l-6.449-3.728v-2.428l6.449 3.728v2.428ZM311.078 152.453l-4.354-2.514v-2.437l4.354 2.523v2.428ZM291.003 146.394l-3.012-1.735v-2.436l3.012 1.743v2.428ZM296.665 149.671l-3.973-2.298v-2.428l3.973 2.298v2.428ZM304.759 154.352l-6.406-3.702v-2.437l6.406 3.711v2.428ZM297.21 155.54l-9.219-5.333v-2.428l9.219 5.325v2.436ZM307.537 161.507l-8.639-4.995v-2.428l8.639 4.995v2.428ZM311.926 164.048l-2.701-1.561v-2.436l2.701 1.569v2.428ZM316.134 166.484l-2.701-1.561v-2.437l2.701 1.57v2.428ZM293.514 158.949l-5.523-3.191v-2.428l5.523 3.191v2.428ZM316.61 127.905l7.661 4.431v-2.428l-7.661-4.431v2.428ZM318.255 134.401l6.016 3.486v-2.428l-6.016-3.486v2.428ZM319.916 140.912l4.354 2.524v-2.428l-4.354-2.524v2.428ZM317.934 145.325l6.336 3.66v-2.428l-6.336-3.668v2.436ZM319.916 152.021l4.354 2.514v-2.428l-4.354-2.523v2.437ZM318.748 156.895l5.523 3.191v-2.428l-5.523-3.191v2.428ZM321.259 163.9l3.012 1.734v-2.428l-3.012-1.743v2.437ZM318.437 167.811l5.834 3.373v-2.428l-5.834-3.373v2.428ZM318.748 173.543l5.523 3.191v-2.428l-5.523-3.191v2.428ZM297.548 161.281l-2.346-1.353V157.5l2.346 1.353v2.428ZM304.525 165.314l-5.289-3.052v-2.428l5.289 3.052v2.428ZM308.897 183.993l-8.916-5.16v-2.437l8.916 5.16v2.437ZM315.009 187.522l-3.515-2.029v-2.436l3.515 2.037v2.428Z" opacity=".5"/><path fill="#A5C4FF" d="M518.807 245.408s-.217.028-.631.056c-.414.047-1.046.038-1.846.16-1.611.207-4.003.735-6.716 2.25-2.703 1.507-5.548 4.115-8.194 7.626-2.694 3.493-5.219 7.843-8.289 12.475-1.545 2.307-3.259 4.689-5.36 6.901-2.091 2.194-4.624 4.265-7.714 5.471-1.516.668-3.174.998-4.879 1.242-.847.057-1.676.123-2.562.123-.866-.066-1.742-.028-2.609-.207-.433-.066-.866-.142-1.309-.207l-1.29-.349-.65-.179-.631-.245c-.415-.169-.839-.32-1.253-.499a22.55 22.55 0 0 1-4.615-2.956c-2.836-2.401-5.19-5.404-7.347-8.596-2.176-3.182-4.173-6.562-6.433-9.848-1.121-1.647-2.308-3.267-3.627-4.801-1.3-1.544-2.741-2.994-4.37-4.228-1.63-1.224-3.419-2.278-5.378-2.937-1.969-.65-4.003-.961-6.142-.998-2.072.037-4.163.339-6.122.988-1.959.669-3.758 1.704-5.388 2.938-1.639 1.224-3.07 2.683-4.379 4.218-1.31 1.534-2.506 3.154-3.627 4.801-2.251 3.286-4.257 6.676-6.433 9.858-2.157 3.182-4.512 6.195-7.347 8.596a22.98 22.98 0 0 1-4.615 2.965c-.414.179-.838.339-1.253.509l-.631.245-.65.179-1.29.348c-.443.066-.876.141-1.319.207-.876.179-1.733.141-2.59.207-.876 0-1.733-.056-2.581-.122-1.686-.245-3.353-.575-4.869-1.243-3.09-1.205-5.624-3.276-7.715-5.47-2.1-2.213-3.814-4.595-5.359-6.901-3.071-4.642-5.595-8.992-8.289-12.475-2.646-3.512-5.491-6.12-8.194-7.626-2.704-1.507-5.105-2.034-6.707-2.241-.81-.122-1.431-.113-1.855-.16-.415-.028-.631-.057-.631-.057s.857-.028 2.486.113c1.62.179 4.051.678 6.801 2.175 2.741 1.497 5.632 4.115 8.317 7.626 2.722 3.493 5.275 7.843 8.355 12.456 1.554 2.298 3.259 4.651 5.35 6.836 2.081 2.165 4.568 4.18 7.591 5.357 5.953 2.429 13.837 1.61 19.347-3.258 2.778-2.363 5.105-5.338 7.252-8.511 2.167-3.163 4.154-6.553 6.424-9.867 1.121-1.657 2.327-3.295 3.655-4.849 1.318-1.562 2.778-3.041 4.455-4.293 1.658-1.252 3.504-2.325 5.52-3.013 2.025-.668 4.134-.979 6.31-1.016 2.101.037 4.276.348 6.273 1.026 2.016.687 3.853 1.76 5.52 3.013 1.667 1.252 3.127 2.73 4.446 4.293 1.328 1.553 2.533 3.192 3.645 4.849 2.26 3.304 4.257 6.694 6.423 9.857 2.148 3.173 4.475 6.148 7.253 8.511 5.501 4.868 13.422 5.677 19.347 3.248 3.023-1.176 5.51-3.191 7.591-5.357 2.082-2.175 3.796-4.538 5.35-6.835 3.08-4.613 5.633-8.963 8.355-12.456 2.684-3.512 5.576-6.129 8.317-7.626 2.75-1.497 5.171-1.996 6.791-2.175 1.63-.141 2.496-.113 2.496-.113l.019-.009ZM183.67 84.942s-.216.028-.631.057c-.414.047-1.045.037-1.846.15-1.61.207-4.003.735-6.716 2.25-2.703 1.507-5.547 4.115-8.194 7.626-2.694 3.493-5.218 7.843-8.289 12.475-1.544 2.307-3.259 4.689-5.359 6.902-2.091 2.193-4.625 4.265-7.714 5.47-1.517.668-3.175.998-4.879 1.242-.848.057-1.677.123-2.562.123-.867-.066-1.743-.028-2.609-.207-.434-.066-.867-.142-1.31-.207l-1.29-.349-.65-.179-.631-.244c-.414-.17-.838-.321-1.253-.499a22.624 22.624 0 0 1-4.615-2.957c-2.835-2.401-5.19-5.404-7.347-8.596-2.176-3.182-4.172-6.562-6.433-9.848-1.111-1.647-2.308-3.267-3.626-4.801-1.3-1.544-2.741-2.994-4.371-4.228-1.629-1.224-3.419-2.278-5.378-2.937-1.969-.65-4.003-.96-6.141-.998-2.072.038-4.163.339-6.122.988-1.96.669-3.759 1.704-5.388 2.938-1.64 1.224-3.07 2.683-4.38 4.218-1.31 1.534-2.506 3.154-3.626 4.801-2.252 3.286-4.258 6.676-6.434 9.858-2.157 3.182-4.511 6.195-7.346 8.596a23.053 23.053 0 0 1-4.616 2.966c-.414.178-.838.338-1.252.499l-.631.244-.65.179-1.29.349c-.443.065-.877.141-1.32.207-.875.179-1.733.141-2.59.207-.885 0-1.733-.057-2.58-.123-1.686-.244-3.354-.574-4.87-1.242-3.09-1.205-5.623-3.277-7.714-5.47-2.1-2.213-3.815-4.595-5.36-6.902-3.07-4.641-5.595-8.991-8.288-12.475-2.647-3.511-5.492-6.12-8.195-7.626-2.703-1.506-5.105-2.033-6.706-2.25-.81-.122-1.432-.113-1.856-.15a11.529 11.529 0 0 1-.63-.057s.866-.028 2.495.113c1.62.179 4.05.678 6.8 2.175 2.742 1.497 5.633 4.114 8.318 7.626 2.722 3.493 5.274 7.843 8.354 12.456 1.554 2.297 3.26 4.651 5.35 6.835 2.082 2.166 4.569 4.181 7.592 5.357 5.953 2.43 13.837 1.61 19.347-3.257 2.778-2.363 5.105-5.338 7.252-8.511 2.167-3.164 4.154-6.553 6.424-9.867 1.12-1.657 2.326-3.295 3.655-4.849 1.318-1.563 2.778-3.04 4.455-4.293 1.657-1.252 3.504-2.326 5.52-3.013 2.024-.668 4.134-.98 6.31-1.017 2.1.038 4.267.349 6.273 1.026 2.016.688 3.852 1.761 5.52 3.013 1.667 1.252 3.127 2.73 4.445 4.293 1.328 1.554 2.534 3.192 3.646 4.85 2.26 3.304 4.257 6.693 6.423 9.857 2.148 3.173 4.474 6.148 7.253 8.511 5.501 4.867 13.422 5.677 19.347 3.248 3.023-1.177 5.51-3.192 7.591-5.357 2.082-2.175 3.796-4.538 5.35-6.835 3.08-4.614 5.633-8.963 8.355-12.456 2.684-3.512 5.576-6.13 8.317-7.626 2.75-1.498 5.171-1.996 6.791-2.175 1.629-.142 2.496-.113 2.496-.113l.009.01ZM385.458 81.818s.113-.122.367-.33c.264-.225.631-.536 1.102-.932.999-.819 2.43-2.005 4.258-3.511 3.72-3.041 9.061-7.41 15.597-12.748l.076-.057.094.029c6.103 1.562 13.092 3.36 20.703 5.319l.113.028.047.104c3.184 7.861 6.725 16.627 10.427 25.787l.066.17-.141.113-21.429 17.361-.094.075-.113-.028c-7.62-1.986-14.59-3.804-20.703-5.395l-.094-.028-.038-.085c-3.146-7.899-5.726-14.348-7.526-18.858-.875-2.231-1.563-3.973-2.034-5.188-.217-.583-.396-1.026-.518-1.355-.113-.31-.16-.471-.16-.471s.075.15.207.452c.141.32.33.772.565 1.337l2.129 5.15c1.837 4.49 4.464 10.921 7.676 18.792-.037-.038-.084-.075-.132-.113 6.123 1.572 13.102 3.361 20.722 5.32-.066.018-.132.028-.198.047a33893.32 33893.32 0 0 1 21.41-17.39c-.028.094-.047.189-.076.283-3.692-9.17-7.224-17.936-10.398-25.807.056.047.104.094.151.132-7.602-1.987-14.59-3.804-20.684-5.395.056-.01.113-.028.169-.037-6.584 5.29-11.953 9.603-15.701 12.616-1.856 1.478-3.306 2.636-4.324 3.436-.48.377-.857.669-1.139.885a7.728 7.728 0 0 1-.396.292h.019Z"/><path fill="#A5C4FF" d="M416.588 112.971s-.094-.15-.236-.442c-.15-.349-.348-.782-.583-1.309-.509-1.214-1.206-2.853-2.044-4.858a1649.074 1649.074 0 0 1-6.584-16.1c-.415-1.026-.829-2.043-1.206-2.994.057.047.113.094.16.142-5.802-1.535-10.945-2.9-14.722-3.898-1.799-.5-3.259-.904-4.351-1.205-.462-.142-.848-.255-1.168-.349-.264-.084-.405-.132-.396-.15 0-.02.151 0 .424.066.32.075.716.16 1.187.263 1.102.264 2.581.622 4.389 1.064 3.787.96 8.939 2.26 14.76 3.738l.113.028.047.113c.386.951.791 1.968 1.215 2.994a2079.382 2079.382 0 0 1 6.452 16.147c.782 2.024 1.432 3.69 1.902 4.914.198.537.358.989.5 1.347.103.31.16.48.141.48v.009Z"/><path fill="#A5C4FF" d="M406.152 87.174s.254-.291.781-.753c.613-.518 1.366-1.167 2.252-1.92a517.205 517.205 0 0 1 7.535-6.195c2.957-2.401 5.661-4.548 7.629-6.092.923-.706 1.705-1.309 2.345-1.798.556-.414.876-.631.905-.612.018.028-.255.292-.782.753-.612.518-1.356 1.168-2.251 1.92a584.435 584.435 0 0 1-7.535 6.205 615.828 615.828 0 0 1-7.62 6.092c-.923.706-1.705 1.308-2.346 1.798-.555.414-.876.63-.904.612l-.009-.01ZM39.633 196.379s.113-.123.368-.33c.263-.226.63-.537 1.102-.932.998-.819 2.43-2.005 4.257-3.512 3.72-3.041 9.061-7.409 15.598-12.748l.075-.056.094.028a20046.25 20046.25 0 0 1 20.703 5.319l.114.029.047.103c3.183 7.862 6.725 16.627 10.426 25.788l.066.179-.141.113c-7.563 6.129-14.807 11.994-21.428 17.361l-.094.075-.113-.028c-7.62-1.986-14.59-3.804-20.703-5.395l-.094-.028-.038-.085c-3.146-7.899-5.727-14.348-7.526-18.858-.876-2.231-1.563-3.973-2.034-5.188-.217-.583-.396-1.026-.518-1.355-.114-.311-.16-.471-.16-.471s.084.151.207.452c.14.32.33.772.565 1.337.499 1.205 1.215 2.937 2.128 5.15 1.837 4.491 4.465 10.921 7.677 18.792-.038-.038-.085-.075-.132-.113 6.122 1.572 13.102 3.361 20.722 5.32-.066.018-.132.028-.198.047 6.612-5.376 13.846-11.251 21.41-17.39-.029.094-.048.188-.076.283-3.692-9.171-7.224-17.936-10.399-25.807.057.047.104.094.151.132-7.601-1.987-14.59-3.804-20.684-5.395.057-.009.113-.028.17-.037l-15.702 12.616c-1.855 1.478-3.306 2.636-4.323 3.436-.48.377-.857.669-1.14.885-.254.198-.395.292-.395.292l.018-.009Z"/><path fill="#A5C4FF" d="M70.763 227.532s-.094-.151-.235-.443c-.15-.348-.349-.781-.584-1.308-.509-1.215-1.206-2.853-2.044-4.858-1.714-4.115-4.04-9.801-6.584-16.1-.414-1.026-.829-2.043-1.205-2.994.056.047.113.094.16.141-5.802-1.534-10.945-2.9-14.722-3.898l-4.352-1.205c-.461-.141-.847-.254-1.168-.348-.263-.085-.405-.132-.395-.151 0-.019.15 0 .424.066.32.075.715.16 1.186.264 1.102.263 2.581.621 4.39 1.064 3.786.96 8.938 2.259 14.76 3.737l.112.029.047.113c.387.951.791 1.967 1.215 2.994a2063.522 2063.522 0 0 1 6.452 16.146c.782 2.025 1.432 3.691 1.903 4.915.198.537.358.988.5 1.346.103.311.16.48.14.48v.01Z"/><path fill="#A5C4FF" d="M60.327 201.735s.255-.292.782-.753c.612-.518 1.366-1.168 2.251-1.921a523.638 523.638 0 0 1 7.535-6.195 596.952 596.952 0 0 1 7.63-6.091c.923-.706 1.704-1.309 2.345-1.799.556-.414.876-.63.904-.612.019.029-.254.292-.782.754-.612.517-1.356 1.167-2.25 1.92a582.342 582.342 0 0 1-7.536 6.205 604.985 604.985 0 0 1-7.62 6.091c-.923.706-1.705 1.309-2.345 1.798-.556.415-.876.631-.904.612l-.01-.009ZM165.886 280.812s.113-.122.367-.329c.264-.226.631-.537 1.102-.932.999-.82 2.43-2.006 4.258-3.512 3.72-3.041 9.061-7.41 15.598-12.748l.075-.057.094.029c6.104 1.563 13.093 3.361 20.703 5.319l.113.028.047.104c3.184 7.861 6.725 16.627 10.427 25.788l.066.169-.141.113c-7.564 6.129-14.807 11.995-21.428 17.361l-.095.076-.113-.029-20.703-5.395-.094-.028-.038-.084c-3.145-7.9-5.726-14.349-7.525-18.859-.876-2.231-1.564-3.973-2.035-5.187-.216-.584-.395-1.027-.518-1.356-.113-.311-.16-.471-.16-.471s.085.151.207.452c.142.32.33.772.565 1.337.5 1.205 1.215 2.937 2.129 5.15a25056.29 25056.29 0 0 1 7.677 18.792l-.132-.113c6.122 1.573 13.102 3.361 20.721 5.32a1.442 1.442 0 0 0-.197.047c6.612-5.376 13.846-11.251 21.409-17.39-.028.095-.047.189-.075.283-3.693-9.17-7.225-17.936-10.399-25.807.057.047.104.095.151.132-7.601-1.986-14.59-3.803-20.684-5.395.056-.009.113-.028.169-.037l-15.701 12.616c-1.856 1.478-3.306 2.636-4.324 3.436-.48.377-.857.669-1.139.885-.255.198-.396.292-.396.292h.019Z"/><path fill="#A5C4FF" d="M197.016 311.965s-.094-.15-.235-.442c-.16-.348-.349-.782-.584-1.309-.509-1.214-1.206-2.852-2.054-4.858-1.714-4.114-4.04-9.801-6.583-16.099-.415-1.027-.829-2.044-1.206-2.994.056.047.113.094.16.141-5.802-1.535-10.945-2.9-14.722-3.898-1.799-.499-3.259-.904-4.351-1.205-.462-.141-.848-.254-1.168-.349-.264-.084-.405-.131-.396-.15 0-.019.151 0 .424.066.32.075.716.16 1.187.263 1.102.264 2.58.622 4.389 1.064 3.786.961 8.939 2.26 14.759 3.738l.123.028.047.113c.386.951.791 1.959 1.215 2.994a1900.433 1900.433 0 0 1 6.452 16.156c.782 2.025 1.432 3.691 1.903 4.915.198.537.358.989.499 1.346.104.311.16.471.141.48Z"/><path fill="#A5C4FF" d="M186.589 286.169s.255-.292.782-.754c.612-.517 1.366-1.167 2.251-1.92a520.089 520.089 0 0 1 7.535-6.195 597.62 597.62 0 0 1 7.63-6.092c.923-.706 1.705-1.308 2.345-1.798.556-.414.876-.631.904-.612.019.028-.254.292-.781.753-.613.518-1.357 1.168-2.252 1.921a571.627 571.627 0 0 1-7.535 6.204 599.072 599.072 0 0 1-7.62 6.092c-.923.706-1.705 1.309-2.345 1.798-.565.414-.876.631-.904.612l-.01-.009ZM52.66 45.841s.265.095.754.32l2.1 1.017c1.866.932 4.456 2.222 7.62 3.804l.085.038.02.094c.442 2.636.95 5.64 1.506 8.906l.02.113-.086.085c-2.496 2.58-5.274 5.451-8.185 8.445l-.122.132-.16-.085c-3.664-1.873-7.168-3.671-10.38-5.319l-.104-.056-.018-.114c-.528-3.276-1.008-6.28-1.432-8.925l-.019-.094.066-.066c2.505-2.533 4.559-4.604 6.037-6.1.697-.688 1.253-1.244 1.677-1.658.386-.377.603-.565.612-.555.01.009-.17.226-.537.63-.404.433-.941 1.008-1.6 1.723-1.451 1.516-3.467 3.634-5.916 6.214.019-.056.028-.103.047-.16.452 2.646.96 5.64 1.517 8.916l-.123-.17c3.212 1.639 6.725 3.418 10.39 5.292l-.293.047c2.91-2.994 5.699-5.856 8.204-8.426-.019.066-.047.14-.066.197-.527-3.276-1.007-6.28-1.431-8.916.037.047.066.094.103.142a3306.517 3306.517 0 0 0-7.544-3.945c-.857-.462-1.536-.829-2.054-1.111-.47-.255-.706-.405-.706-.424l.019.01Z"/><path fill="#A5C4FF" d="M45.936 63.203c-.047-.047.716-.923 1.997-2.307A346.006 346.006 0 0 1 53 55.568l.952-.98c-.02.076-.047.142-.066.207a348.109 348.109 0 0 1-.97-6.364c-.217-1.6-.32-2.58-.264-2.59.056-.008.273.952.584 2.543.301 1.591.706 3.813 1.13 6.336l.019.123-.085.084-.951.98a291.152 291.152 0 0 1-5.171 5.225c-1.338 1.318-2.195 2.109-2.242 2.062v.01Z"/><path fill="#A5C4FF" d="M54.13 54.757c.066-.122 2.44.97 5.303 2.439 2.873 1.469 5.143 2.75 5.086 2.872-.066.122-2.44-.97-5.303-2.439s-5.142-2.75-5.086-2.872Z"/><path fill="url(#paint10_linear_4649_69685)" d="m346.36 229.123-151.499 95.824-101.178-95.824-46.038-49.786L231.264 53.534l132.227 76.552-17.131 99.037Z"/></g><defs><linearGradient id="paint0_linear_4649_69685" x1="-476.097" x2="-521.885" y1="679.06" y2="598.924" gradientUnits="userSpaceOnUse"><stop stop-color="#567CFF"/><stop offset=".13" stop-color="#4FAAFF"/><stop offset=".24" stop-color="#49CFFF"/><stop offset=".34" stop-color="#45E9FF"/><stop offset=".43" stop-color="#42F9FF"/><stop offset=".51" stop-color="#42FFFF"/><stop offset=".57" stop-color="#43F7FF"/><stop offset=".67" stop-color="#46E2FF"/><stop offset=".8" stop-color="#4BC0FF"/><stop offset=".93" stop-color="#5391FF"/><stop offset="1" stop-color="#5778FF"/></linearGradient><linearGradient id="paint1_linear_4649_69685" x1="-411.955" x2="-451.546" y1="579.179" y2="509.888" gradientUnits="userSpaceOnUse"><stop stop-color="#567CFF"/><stop offset=".13" stop-color="#4FAAFF"/><stop offset=".24" stop-color="#49CFFF"/><stop offset=".34" stop-color="#45E9FF"/><stop offset=".43" stop-color="#42F9FF"/><stop offset=".51" stop-color="#42FFFF"/><stop offset=".57" stop-color="#43F7FF"/><stop offset=".67" stop-color="#46E2FF"/><stop offset=".8" stop-color="#4BC0FF"/><stop offset=".93" stop-color="#5391FF"/><stop offset="1" stop-color="#5778FF"/></linearGradient><linearGradient id="paint2_linear_4649_69685" x1="341.333" x2="138.493" y1="237.183" y2="237.183" gradientUnits="userSpaceOnUse"><stop stop-color="#42FFFF"/><stop offset=".15" stop-color="#42FAFF"/><stop offset=".33" stop-color="#44EBFF"/><stop offset=".52" stop-color="#48D4FF"/><stop offset=".72" stop-color="#4DB2FF"/><stop offset=".93" stop-color="#5488FF"/><stop offset="1" stop-color="#5778FF"/></linearGradient><linearGradient id="paint3_linear_4649_69685" x1="368.315" x2="214.558" y1="139.655" y2="139.655" gradientUnits="userSpaceOnUse"><stop stop-color="#C0D6FF"/><stop offset=".3" stop-color="#C4DAFF"/><stop offset=".65" stop-color="#D3E9FF"/><stop offset="1" stop-color="#E9FFFF"/></linearGradient><linearGradient id="paint4_linear_4649_69685" x1="368.315" x2="341.913" y1="179.153" y2="179.153" gradientUnits="userSpaceOnUse"><stop stop-color="#5778FF"/><stop offset=".18" stop-color="#5B7CFF"/><stop offset=".39" stop-color="#6A89FF"/><stop offset=".61" stop-color="#819FFF"/><stop offset=".85" stop-color="#A2BDFF"/><stop offset="1" stop-color="#BCD5FF"/></linearGradient><linearGradient id="paint5_linear_4649_69685" x1="347.713" x2="130.564" y1="223.553" y2="223.553" gradientUnits="userSpaceOnUse"><stop stop-color="#5778FF"/><stop offset=".18" stop-color="#5B7CFF"/><stop offset=".39" stop-color="#6A89FF"/><stop offset=".61" stop-color="#819FFF"/><stop offset=".85" stop-color="#A2BDFF"/><stop offset="1" stop-color="#BCD5FF"/></linearGradient><linearGradient id="paint6_linear_4649_69685" x1="274.756" x2="57.485" y1="216.303" y2="216.303" gradientUnits="userSpaceOnUse"><stop stop-color="#C0D6FF"/><stop offset=".3" stop-color="#C4DAFF"/><stop offset=".65" stop-color="#D3E9FF"/><stop offset="1" stop-color="#E9FFFF"/></linearGradient><linearGradient id="paint7_linear_4649_69685" x1="237.957" x2="182.347" y1="228.66" y2="228.66" gradientUnits="userSpaceOnUse"><stop stop-color="#C0D6FF"/><stop offset=".3" stop-color="#C4DAFF"/><stop offset=".65" stop-color="#D3E9FF"/><stop offset="1" stop-color="#E9FFFF"/></linearGradient><linearGradient id="paint8_linear_4649_69685" x1="357.763" x2="140.492" y1="168.063" y2="168.063" gradientUnits="userSpaceOnUse"><stop stop-color="#C0D6FF"/><stop offset=".3" stop-color="#C4DAFF"/><stop offset=".65" stop-color="#D3E9FF"/><stop offset="1" stop-color="#E9FFFF"/></linearGradient><linearGradient id="paint9_linear_4649_69685" x1="372.063" x2="316.445" y1="152.081" y2="152.081" gradientUnits="userSpaceOnUse"><stop stop-color="#C0D6FF"/><stop offset=".3" stop-color="#C4DAFF"/><stop offset=".65" stop-color="#D3E9FF"/><stop offset="1" stop-color="#E9FFFF"/></linearGradient><linearGradient id="paint10_linear_4649_69685" x1="259.025" x2="130.035" y1="67.027" y2="255.855" gradientUnits="userSpaceOnUse"><stop stop-color="#6EA0FF" stop-opacity=".56"/><stop offset="1" stop-color="#fff" stop-opacity="0"/></linearGradient><clipPath id="clip0_4649_69685"><path fill="#fff" d="M0 0h500v312.634H0z"/></clipPath></defs></svg>